<svg><metadata>Created by FontForge 20090622 at Tue Apr 10 04:39:50 2018 By deploy user Copyright (C) 2011 Markanna Studios Inc. www.SweetFonts.com</metadata><defs><font id="SweetSansPro-Light" horiz-adv-x="500"><font-face font-family="Sweet Sans Pro Light" font-weight="300" font-stretch="normal" units-per-em="1000" panose-1="2 0 0 0 0 0 0 0 0 0" ascent="770" descent="-230" x-height="459" cap-height="653" bbox="-101 -305 1496 1039" underline-thickness="56" underline-position="-128" unicode-range="U+000D-U+FB04"/><glyph glyph-name="f_f" unicode="ff" horiz-adv-x="674" d="M41 459h94v101q0 77 41.5 114t97.5 37q71 0 109 -35l-14 -50q-30 30 -84 30q-38 0 -63 -24t-25 -72v-101h260v101q0 77 41 114t97 37q72 0 109 -35l-14 -50q-13 14 -37.5 22t-46.5 8q-38 0 -62.5 -24t-24.5 -72v-101h147v-49h-147v-410h-62v410h-260v-410h-62v410h-94v49 z"/><glyph glyph-name="f_i" unicode="fi" horiz-adv-x="600" d="M41 459h94v101q0 77 41 114t95 37q48 0 82 -17l-12 -52q-25 14 -59 14q-36 0 -60.5 -24t-24.5 -72v-101h147v-49h-147v-410h-62v410h-94v49zM504 0h-62v459h62v-459zM430 641q0 17 12 28.5t30 11.5q19 0 31 -11.5t12 -28.5t-12 -28t-31 -11q-18 0 -30 11.5t-12 27.5z"/><glyph glyph-name="f_l" unicode="fl" horiz-adv-x="622" d="M41 459h94v101q0 77 41 114t95 37q48 0 82 -17l-12 -52q-25 14 -59 14q-36 0 -60.5 -24t-24.5 -72v-101h147v-49h-147v-410h-62v410h-94v49zM516 0h-62v700h62v-700z"/><glyph glyph-name="f_f_i" unicode="ffi" horiz-adv-x="922" d="M457 0v410h-260v-410h-62v410h-94v49h94v101q0 77 41.5 114t97.5 37q71 0 109 -35l-14 -50q-30 30 -84 30q-38 0 -63 -24t-25 -72v-101h260v101q0 77 41 114t95 37q48 0 82 -17l-12 -52q-25 14 -59 14q-36 0 -60.5 -24t-24.5 -72v-101h147v-49h-147v-410h-62zM763 0v459 h62v-459h-62zM794 602q-18 0 -30 11.5t-12 27.5q0 17 12 28.5t30 11.5q19 0 31 -11.5t12 -28.5t-12 -28t-31 -11z"/><glyph glyph-name="f_f_l" unicode="ffl" horiz-adv-x="944" d="M457 0v410h-260v-410h-62v410h-94v49h94v101q0 77 41.5 114t97.5 37q71 0 109 -35l-14 -50q-30 30 -84 30q-38 0 -63 -24t-25 -72v-101h260v101q0 77 41 114t95 37q48 0 82 -17l-12 -52q-25 14 -59 14q-36 0 -60.5 -24t-24.5 -72v-101h147v-49h-147v-410h-62zM776 0v700 h62v-700h-62z"/><glyph glyph-name="f_j" unicode="fj" horiz-adv-x="600" d="M41 459h94v101q0 77 41 114t95 37q48 0 82 -17l-12 -52q-25 14 -59 14q-36 0 -60.5 -24t-24.5 -72v-101h147v-49h-147v-410h-62v410h-94v49zM349 -227l-17 49q110 13 110 124v513h62v-513q0 -88 -47.5 -130.5t-107.5 -42.5zM430 641q0 17 12 28.5t30 11.5q19 0 31 -11.5 t12 -28.5t-12 -28t-31 -11q-18 0 -30 11.5t-12 27.5z"/><glyph glyph-name="f_f_j" unicode="ffj" horiz-adv-x="922" d="M457 0v410h-260v-410h-62v410h-94v49h94v101q0 77 41.5 114t97.5 37q71 0 109 -35l-14 -50q-30 30 -84 30q-38 0 -63 -24t-25 -72v-101h260v101q0 77 41 114t95 37q48 0 82 -17l-12 -52q-25 14 -59 14q-36 0 -60.5 -24t-24.5 -72v-101h147v-49h-147v-410h-62zM670 -227 l-16 49q109 13 109 124v513h62v-513q0 -88 -47 -130.5t-108 -42.5zM794 602q-18 0 -30 11.5t-12 27.5q0 17 12 28.5t30 11.5q19 0 31 -11.5t12 -28.5t-12 -28t-31 -11z"/><glyph glyph-name="f_t" unicode="ft" horiz-adv-x="708" d="M353 694l-12 -52q-25 14 -59 14q-36 0 -60.5 -24t-24.5 -72v-101h261v141h62v-141h152v-49h-152v-297q0 -37 20.5 -55.5t51.5 -18.5q52 0 84 21l9 -48q-15 -11 -45.5 -19.5t-58.5 -8.5q-49 0 -86 31t-37 98v297h-261v-410h-62v410h-94v49h94v101q0 77 41 114t95 37 q48 0 82 -17z"/><glyph glyph-name="f_f_t" unicode="fft" horiz-adv-x="1030" d="M41 459h94v101q0 77 41.5 114t97.5 37q71 0 109 -35l-14 -50q-30 30 -84 30q-38 0 -63 -24t-25 -72v-101h260v101q0 77 41 114t95 37q48 0 82 -17l-12 -52q-25 14 -59 14q-36 0 -60.5 -24t-24.5 -72v-101h261v141h62v-141h151v-49h-151v-297q0 -37 20.5 -55.5t50.5 -18.5 q53 0 85 21l9 -48q-15 -11 -46 -19.5t-59 -8.5q-49 0 -85.5 31.5t-36.5 97.5v297h-261v-410h-62v410h-260v-410h-62v410h-94v49z"/><glyph glyph-name="t_t" unicode="tt" horiz-adv-x="747" d="M31 410v49h95v141h62v-141h298v141h62v-141h152v-49h-152v-297q0 -37 20.5 -55.5t51.5 -18.5q53 0 85 21l9 -48q-15 -11 -46 -19.5t-59 -8.5q-49 0 -86 31.5t-37 97.5v297h-298v-297q0 -37 20.5 -55.5t51.5 -18.5q52 0 84 21l9 -48q-15 -11 -45.5 -19.5t-58.5 -8.5 q-49 0 -86 31t-37 98v297h-95z"/><glyph glyph-name=".notdef" horiz-adv-x="579" d="M579 0h-579v653h579v-653zM289 282l-201 -227h402zM88 598l201 -227l201 227h-402zM328 326l189 -212v425zM250 326l-189 213v-425z"/><glyph glyph-name=".null" horiz-adv-x="265"/><glyph glyph-name=".null" horiz-adv-x="265"/><glyph glyph-name="nonmarkingreturn" horiz-adv-x="333"/><glyph glyph-name="CR" horiz-adv-x="245"/><glyph glyph-name="space" horiz-adv-x="225"/><glyph glyph-name="exclam" unicode="!" horiz-adv-x="291" d="M90 40q0 20 16 35t39 15t38.5 -14.5t15.5 -35.5t-15.5 -35.5t-38.5 -14.5t-39 14.5t-16 35.5zM168 196h-45l-14 299v158h72v-158z"/><glyph glyph-name="quotedbl" unicode="&quot;" horiz-adv-x="418" d="M127 423h-40l-14 139v91h67v-91zM331 423h-39l-14 139v91h67v-91z"/><glyph glyph-name="numbersign" unicode="#" horiz-adv-x="871" d="M592 592h51l-33 -180h203v-48h-212l-37 -202h194v-48h-203l-38 -206h-51l38 206h-195l-37 -206h-52l38 206h-201v48h210l37 202h-192v48h201l33 180h51l-33 -180h195zM355 364l-37 -202h195l37 202h-195z"/><glyph glyph-name="dollar" unicode="$" horiz-adv-x="682" d="M318 651h47v-94q133 -13 222 -81l-39 -44q-65 57 -183 69v-181q38 -2 66.5 -5t66.5 -13.5t62.5 -26t42 -45t17.5 -68.5q0 -87 -71.5 -130.5t-183.5 -45.5v-119h-47v121q-151 11 -265 109l39 43q99 -86 226 -98v220q-41 3 -69.5 7t-62 13.5t-53.5 23t-34 38t-14 56.5 q0 57 38 94.5t87.5 51t107.5 13.5v92zM557 154q0 30 -15.5 50.5t-45.5 31t-59 15.5t-72 8v-218q84 1 138 30t54 83zM149 405q0 -74 169 -83v182h-2q-69 0 -118 -24t-49 -75z"/><glyph glyph-name="percent" unicode="%" horiz-adv-x="1015" d="M58 425q0 69 54.5 118t132.5 49q77 0 133 -49.5t56 -117.5q0 -69 -56 -118.5t-133 -49.5q-78 0 -132.5 49.5t-54.5 118.5zM708 580l-344 -580h-54l344 580h54zM116 425q0 -48 37.5 -82t91.5 -34q53 0 92 34t39 82t-39 82t-92 34q-54 0 -91.5 -34t-37.5 -82zM584 156 q0 68 55 117.5t132 49.5t133.5 -49.5t56.5 -117.5q0 -69 -56 -118.5t-134 -49.5t-132.5 49t-54.5 119zM642 156q0 -48 37.5 -82.5t91.5 -34.5t93 34.5t39 82.5q0 47 -39 81t-93 34t-91.5 -34t-37.5 -81z"/><glyph glyph-name="ampersand" unicode="&amp;" horiz-adv-x="806" d="M596 579l-33 -52q-66 42 -140 42q-53 0 -90 -23.5t-37 -61.5q0 -15 6.5 -31t22 -34.5t23.5 -27t30 -29.5l23 -20l193 -180q59 53 117 136l54 -28q-58 -81 -129 -147l134 -123h-89l-92 84q-128 -97 -250 -97q-39 0 -77.5 10.5t-73.5 31.5t-56.5 58.5t-21.5 86.5 q0 78 47.5 123.5t125.5 72.5q-54 57 -54 112q0 67 57.5 106.5t137.5 39.5q85 0 172 -49zM349 306l-24 21q-29 -10 -50 -19.5t-46 -26.5t-38.5 -43.5t-13.5 -60.5q0 -66 52 -98t115 -32q99 0 203 76z"/><glyph glyph-name="quotesingle" unicode="'" horiz-adv-x="214" d="M127 423h-40l-14 139v91h67v-91z"/><glyph glyph-name="parenleft" unicode="(" horiz-adv-x="371" d="M344 -126l-34 -41q-120 59 -187 176.5t-67 254.5t67.5 255t186.5 177l34 -41q-102 -52 -161.5 -160t-59.5 -231t59.5 -230.5t161.5 -159.5z"/><glyph glyph-name="parenright" unicode=")" horiz-adv-x="371" d="M27 655l34 41q119 -59 186.5 -177t67.5 -255t-67 -254.5t-187 -176.5l-34 41q102 51 161.5 159t59.5 231t-59.5 231.5t-161.5 159.5z"/><glyph glyph-name="asterisk" unicode="*" horiz-adv-x="570" d="M61 520l16 46l179 -54l4 188h50l5 -187l178 53l15 -45l-178 -63l107 -154l-38 -29l-115 149l-113 -149l-39 29l107 154z"/><glyph glyph-name="plus" unicode="+" horiz-adv-x="707" d="M84 225v55h239v218h61v-218h237v-55h-237v-217h-61v217h-239z"/><glyph glyph-name="comma" unicode="," horiz-adv-x="304" d="M90 -176l-19 40q41 13 76.5 41.5t35.5 67.5q0 30 -20 35q-16 -4 -25 -4q-21 0 -35 12t-14 31q0 18 14 30.5t35 12.5q39 0 67 -29t28 -72q0 -115 -143 -165z"/><glyph glyph-name="hyphen" unicode="-" horiz-adv-x="400" d="M71 220v61h257v-61h-257z"/><glyph glyph-name="period" unicode="." horiz-adv-x="277" d="M84 40q0 21 15.5 35.5t38.5 14.5t39 -15t16 -35q0 -21 -16 -35.5t-39 -14.5t-38.5 14.5t-15.5 35.5z"/><glyph glyph-name="slash" unicode="/" horiz-adv-x="504" d="M453 653l-343 -772h-61l343 772h61z"/><glyph glyph-name="zero" unicode="0" horiz-adv-x="721" d="M64 272q0 120 87 204t208 84q122 0 210 -84.5t88 -203.5t-88 -203t-210 -84q-121 0 -208 84t-87 203zM130 272q0 -94 67.5 -161.5t161.5 -67.5q95 0 163.5 67.5t68.5 161.5t-68.5 161.5t-163.5 67.5q-94 0 -161.5 -67.5t-67.5 -161.5z"/><glyph glyph-name="one" unicode="1" horiz-adv-x="378" d="M35 416l-15 54l171 75h66v-545h-66v484z"/><glyph glyph-name="two" unicode="2" horiz-adv-x="592" d="M116 421l-39 46q39 30 64.5 46.5t71 31.5t96.5 15q89 0 153.5 -38.5t64.5 -111.5q0 -20 -4.5 -37t-15 -31.5t-19.5 -25.5t-27.5 -21.5l-29 -16.5t-34 -14t-31.5 -11t-33 -10t-29 -8q-81 -24 -127 -62.5t-46 -106.5v-13h387v-53h-454v60q0 168 237 234q85 22 116 43 q43 29 43 71q0 46 -44 69.5t-105 23.5q-60 0 -103.5 -20.5t-91.5 -59.5z"/><glyph glyph-name="three" unicode="3" horiz-adv-x="673" d="M306 262v54h93q33 0 65 23t32 62q0 49 -46.5 74.5t-103.5 25.5q-107 0 -209 -92l-41 41q122 110 251 110q50 0 97 -14t83 -49t36 -85q0 -42 -24.5 -72.5t-55.5 -40.5q47 -9 86.5 -41t39.5 -92q0 -84 -80 -133t-202 -49q-168 0 -283 109l41 47q99 -96 242 -96q93 0 154 34 t61 92q0 26 -14.5 45.5t-36.5 29t-42 13.5t-38 4h-105z"/><glyph glyph-name="four" unicode="4" horiz-adv-x="679" d="M636 185v-53h-111v-132h-67v132h-423v49l425 364h65v-360h111zM133 188v-3h325v275h-9z"/><glyph glyph-name="five" unicode="5" horiz-adv-x="644" d="M529 545v-59h-367v-177q32 17 53 26t56.5 17t74.5 8q63 0 115 -17.5t87.5 -59t35.5 -101.5q0 -51 -23.5 -90.5t-63 -62.5t-86 -34t-98.5 -11q-140 0 -260 87l36 47q98 -74 224 -74q53 0 97.5 13t75.5 45.5t31 79.5q0 60 -50 90.5t-123 30.5q-98 0 -200 -52l-42 31v263 h427z"/><glyph glyph-name="six" unicode="6" horiz-adv-x="661" d="M566 504l-35 -47q-66 44 -166 44q-96 0 -165.5 -62.5t-72.5 -167.5q121 84 249 84q108 0 167.5 -53t59.5 -121q0 -81 -70 -138.5t-176 -57.5q-120 0 -205.5 74t-85.5 204q0 134 88.5 215.5t212.5 81.5q111 0 199 -56zM370 301q-116 0 -240 -81q14 -83 78.5 -129.5 t149.5 -46.5q75 0 126.5 42t51.5 96q0 46 -42.5 82.5t-123.5 36.5z"/><glyph glyph-name="seven" unicode="7" horiz-adv-x="592" d="M53 486v59h484v-60l-311 -485h-87l322 486h-408z"/><glyph glyph-name="eight" unicode="8" horiz-adv-x="665" d="M332 -16q-106 0 -187 47t-81 125q0 60 46 98t112 48q-58 9 -89 38t-31 76t37.5 81t88 49t104.5 15q55 0 105.5 -15t87.5 -49t37 -81q0 -96 -120 -114q67 -10 113 -47.5t46 -98.5q0 -78 -81 -125t-188 -47zM332 42q77 0 137 32.5t60 87.5q0 54 -60.5 83.5t-136.5 29.5 q-75 0 -135.5 -29.5t-60.5 -83.5q0 -55 60 -87.5t136 -32.5zM332 325q76 0 117 22t41 64q0 46 -49 71.5t-109 25.5q-59 0 -108 -25.5t-49 -71.5q0 -42 41 -64t116 -22z"/><glyph glyph-name="nine" unicode="9" horiz-adv-x="658" d="M92 41l34 46q68 -43 166 -43q97 0 166.5 62t72.5 167q-120 -83 -248 -83q-109 0 -168.5 53t-59.5 120q0 82 70 139.5t177 57.5q119 0 204.5 -74t85.5 -204q0 -135 -88.5 -216t-212.5 -81q-115 0 -199 56zM288 244q115 0 240 79q-14 84 -78.5 131t-149.5 47 q-75 0 -126.5 -42t-51.5 -97q0 -45 42.5 -81.5t123.5 -36.5z"/><glyph glyph-name="colon" unicode=":" horiz-adv-x="327" d="M109 40q0 21 15.5 35.5t38.5 14.5t39 -15t16 -35q0 -21 -16 -35.5t-39 -14.5t-38.5 14.5t-15.5 35.5zM109 356q0 21 15.5 35.5t38.5 14.5t39 -15t16 -35q0 -21 -16 -35.5t-39 -14.5t-38.5 14.5t-15.5 35.5z"/><glyph glyph-name="semicolon" unicode=";" horiz-adv-x="340" d="M111 -176l-19 40q41 13 76.5 41.5t35.5 67.5q0 30 -20 35q-16 -4 -24 -4q-21 0 -35.5 12t-14.5 31q0 18 14.5 30.5t35.5 12.5q38 0 66 -29t28 -72q0 -115 -143 -165zM110 356q0 21 15.5 35.5t38.5 14.5t39 -15t16 -35q0 -21 -16 -35.5t-39 -14.5t-38.5 14.5t-15.5 35.5z"/><glyph glyph-name="less" unicode="&lt;" horiz-adv-x="707" d="M621 481v-63l-460 -161v-9l460 -160v-63l-537 197v62z"/><glyph glyph-name="equal" unicode="=" horiz-adv-x="707" d="M84 346v56h537v-56h-537zM84 104v56h537v-56h-537z"/><glyph glyph-name="greater" unicode="&gt;" horiz-adv-x="707" d="M84 418v63l537 -197v-62l-537 -197v63l461 160v9z"/><glyph glyph-name="question" unicode="?" horiz-adv-x="596" d="M93 516l-43 39q53 55 113 83.5t153 28.5q95 0 155.5 -36.5t60.5 -118.5q0 -43 -19.5 -71.5t-57.5 -57.5q-17 -14 -55 -39.5t-58 -41t-40 -44.5t-25 -62h-60q3 43 25.5 80t44 54.5t65.5 47.5t58 41q32 23 47 42t15 49q0 53 -45 78t-113 25q-75 0 -125.5 -25t-95.5 -72z M205 40q0 21 15.5 35.5t38.5 14.5t39 -15t16 -35q0 -21 -16 -35.5t-39 -14.5t-38.5 14.5t-15.5 35.5z"/><glyph glyph-name="at" unicode="@" horiz-adv-x="992" d="M662 472h57l-93 -283q-4 -11 -4 -21q0 -27 17 -42.5t46 -15.5q67 0 132.5 71t65.5 174q0 118 -93.5 196t-243.5 78q-115 0 -212.5 -46t-158 -134.5t-60.5 -199.5q0 -83 34.5 -150t90.5 -107.5t123 -62t136 -21.5q67 0 144 18t119 40l17 -41q-45 -24 -126.5 -45 t-156.5 -21q-77 0 -152.5 24.5t-140 70.5t-104.5 123t-40 171q0 126 68.5 225.5t179 151.5t239.5 52q173 0 280.5 -91t107.5 -228q0 -126 -85.5 -211t-176.5 -85q-44 0 -71.5 21t-27.5 57v8q-71 -85 -159 -85q-59 0 -100 40.5t-41 116.5q0 109 79 188.5t163 79.5 q47 0 79.5 -27.5t40.5 -67.5zM429 117q73 0 141 77l46 141q-6 41 -34 70t-67 29q-62 0 -121 -59.5t-59 -146.5q0 -55 26 -83t68 -28z"/><glyph glyph-name="A" unicode="A" horiz-adv-x="751" d="M109 0h-69l303 653h66l303 -653h-73l-97 212h-337zM371 575l-141 -309h288l-141 309h-6z"/><glyph glyph-name="B" unicode="B" horiz-adv-x="818" d="M506 0h-378v653h366q104 0 161 -57q44 -44 44 -103q0 -49 -28.5 -89t-72.5 -53q60 -10 96.5 -56t36.5 -107q0 -77 -58 -132q-59 -56 -167 -56zM530 311h-335v-251h313q75 0 115 40q38 36 38 89q0 46 -34 82q-40 40 -97 40zM487 593h-292v-228h314q53 0 86 33q34 34 34 83 q0 45 -31 74q-37 38 -111 38z"/><glyph glyph-name="C" unicode="C" horiz-adv-x="784" d="M689 155l45 -44q-131 -127 -306 -127q-155 0 -257.5 99.5t-102.5 243.5q0 142 102.5 241.5t254.5 99.5q84 0 161.5 -29.5t131.5 -80.5l-45 -44q-48 44 -113.5 69.5t-133.5 25.5q-123 0 -205.5 -82.5t-82.5 -200.5t83 -200t208 -82q151 0 260 111z"/><glyph glyph-name="D" unicode="D" horiz-adv-x="819" d="M400 0h-272v653h272q88 0 146.5 -23.5t109.5 -70.5q91 -93 91 -232q0 -144 -96 -237q-51 -46 -107 -68t-144 -22zM195 60h203q72 0 114.5 17t86.5 55q79 79 79 195q0 115 -77 192q-41 38 -86 56t-117 18h-203v-533z"/><glyph glyph-name="E" unicode="E" horiz-adv-x="718" d="M470 375v-59h-275v-256h476v-60h-543v653h521v-60h-454v-218h275z"/><glyph glyph-name="F" unicode="F" horiz-adv-x="653" d="M195 0h-67v653h508v-60h-441v-229h275v-60h-275v-304z"/><glyph glyph-name="G" unicode="G" horiz-adv-x="817" d="M711 564l-47 -42q-45 40 -108.5 63.5t-128.5 23.5q-122 0 -205.5 -82.5t-83.5 -200.5q0 -116 83 -199t212 -83q63 0 124 20t103 54v172h-219v59h280v-263q-59 -47 -136 -74.5t-156 -27.5q-152 0 -256.5 100.5t-104.5 242.5t104.5 241.5t254.5 99.5q160 0 284 -104z"/><glyph glyph-name="H" unicode="H" horiz-adv-x="826" d="M195 0h-67v653h67v-270h436v270h67v-653h-67v324h-436v-324z"/><glyph glyph-name="I" unicode="I" horiz-adv-x="323" d="M195 0h-67v653h67v-653z"/><glyph glyph-name="J" unicode="J" horiz-adv-x="673" d="M492 653h67v-421q0 -116 -76.5 -182t-198.5 -66q-58 0 -104 15t-75.5 42t-46.5 51t-32 55l55 29q60 -132 202 -132q93 0 151 49.5t58 138.5v421z"/><glyph glyph-name="K" unicode="K" horiz-adv-x="747" d="M592 653h82l-254 -248l307 -405h-86l-269 359l-177 -175v-184h-67v653h67v-394z"/><glyph glyph-name="L" unicode="L" horiz-adv-x="637" d="M128 653h67v-593h420v-60h-487v653z"/><glyph glyph-name="M" unicode="M" horiz-adv-x="916" d="M789 0h-67v534h-5l-251 -420h-18l-251 420h-5v-534h-64v653h74l257 -430h2l256 430h72v-653z"/><glyph glyph-name="N" unicode="N" horiz-adv-x="831" d="M636 653h67v-653h-63l-444 538h-1v-538h-67v653h63l444 -538h1v538z"/><glyph glyph-name="O" unicode="O" horiz-adv-x="855" d="M68 328q0 141 104 240.5t254 99.5q151 0 256 -99.5t105 -240.5q0 -143 -105 -243.5t-256 -100.5q-150 0 -254 100.5t-104 243.5zM139 328q0 -118 83.5 -201t203.5 -83q122 0 206.5 83t84.5 201q0 117 -84.5 199t-206.5 82q-120 0 -203.5 -82t-83.5 -199z"/><glyph glyph-name="P" unicode="P" horiz-adv-x="747" d="M195 0h-67v653h346q117 0 179 -65q49 -52 49 -122q0 -76 -56 -130q-59 -58 -172 -58h-279v-278zM474 593h-279v-256h279q81 0 123 41q38 35 38 88q0 46 -34 83q-41 44 -127 44z"/><glyph glyph-name="Q" unicode="Q" horiz-adv-x="855" d="M68 328q0 141 104 240.5t254 99.5q151 0 256 -99.5t105 -240.5q0 -93 -47.5 -171t-127.5 -124l91 -127l-64 -21l-87 120q-63 -21 -126 -21q-150 0 -254 100.5t-104 243.5zM420 190l65 21l91 -127q65 37 103 102t38 142q0 117 -84.5 199t-206.5 82q-120 0 -203.5 -82 t-83.5 -199q0 -118 83.5 -201t203.5 -83q44 0 89 13z"/><glyph glyph-name="R" unicode="R" horiz-adv-x="794" d="M195 0h-67v653h359q119 0 178 -64q49 -52 49 -125q0 -67 -43 -116t-115 -62l164 -286h-76l-156 278h-293v-278zM487 593h-292v-256h316q60 0 98 37.5t38 90.5q0 49 -34 85q-42 43 -126 43z"/><glyph glyph-name="S" unicode="S" horiz-adv-x="744" d="M635 573l-41 -46q-36 34 -100 59t-146 25q-76 0 -132 -31t-56 -95q0 -23 8 -39.5t27.5 -27.5t35.5 -17.5t49.5 -10.5t51 -5.5t56.5 -3.5q34 -2 53 -3.5t54.5 -7t57 -13t49.5 -21.5t44 -32.5t27 -46.5t11 -63q0 -104 -83.5 -157t-210.5 -53q-190 0 -333 133l41 46 q130 -121 293 -121q98 0 162 36.5t64 107.5q0 32 -14 55t-34 36t-54 21.5t-60 11.5t-67 6q-39 2 -60.5 4t-57.5 6.5t-57 11t-47 19t-39.5 28.5t-23.5 40.5t-10 54.5q0 51 23.5 89t63 59t82.5 30.5t89 9.5q90 0 164.5 -29t119.5 -66z"/><glyph glyph-name="T" unicode="T" horiz-adv-x="635" d="M32 593v60h571v-60h-252v-593h-67v593h-252z"/><glyph glyph-name="U" unicode="U" horiz-adv-x="798" d="M617 653h67v-421q0 -116 -80 -182t-206 -66q-125 0 -204.5 66t-79.5 182v421h67v-421q0 -88 61 -138t156 -50q97 0 158 50t61 138v421z"/><glyph glyph-name="V" unicode="V" horiz-adv-x="750" d="M639 653h73l-304 -653h-66l-304 653h76l260 -570h6z"/><glyph glyph-name="W" unicode="W" horiz-adv-x="1008" d="M49 653h74l174 -553h5l176 553h55l177 -553h4l175 553h70l-211 -653h-71l-170 530h-6l-170 -530h-72z"/><glyph glyph-name="X" unicode="X" horiz-adv-x="706" d="M570 653h81l-256 -311l276 -342h-85l-234 295l-239 -295h-81l280 340l-252 313h85l210 -266z"/><glyph glyph-name="Y" unicode="Y" horiz-adv-x="667" d="M556 653h79l-268 -343v-310h-67v310l-268 343h85l219 -283z"/><glyph glyph-name="Z" unicode="Z" horiz-adv-x="685" d="M622 60v-60h-574v43l472 550h-437v60h533v-43l-473 -550h479z"/><glyph glyph-name="bracketleft" unicode="[" horiz-adv-x="344" d="M304 -100v-54h-202v843h202v-54h-141v-735h141z"/><glyph glyph-name="backslash" unicode="\" horiz-adv-x="507" d="M405 -119l-343 772h61l343 -772h-61z"/><glyph glyph-name="bracketright" unicode="]" horiz-adv-x="344" d="M40 689h202v-843h-202v54h141v735h-141v54z"/><glyph glyph-name="asciicircum" unicode="^" horiz-adv-x="707" d="M174 212h-70l216 401h68l214 -401h-69l-176 336h-6z"/><glyph glyph-name="underscore" unicode="_" horiz-adv-x="600" d="M-6 -144v44h612v-44h-612z"/><glyph glyph-name="grave" unicode="`" d="M139 688l70 2l89 -146l-55 -2z"/><glyph glyph-name="a" unicode="a" horiz-adv-x="596" d="M116 363l-23 50q92 59 206 59q54 0 97.5 -12t75 -44t31.5 -80v-253q0 -52 16 -83h-63q-13 21 -15 71q-86 -81 -204 -81q-84 0 -133.5 44t-49.5 113q0 66 55.5 109.5t154.5 43.5q124 0 177 -58v78q0 50 -41.5 75t-102.5 25q-99 0 -181 -57zM249 42q47 0 93 18.5t69.5 36 t29.5 27.5v66q-22 30 -68 45.5t-100 15.5q-78 0 -117.5 -29t-39.5 -75q0 -45 35.5 -75t97.5 -30z"/><glyph glyph-name="b" unicode="b" horiz-adv-x="625" d="M148 0h-58q9 49 9 110v590h62v-308q77 80 172 80q96 0 163 -67.5t67 -173.5q0 -109 -69 -176.5t-170 -67.5q-56 0 -101 26.5t-68 57.5q0 -39 -7 -71zM327 418q-87 0 -166 -77v-222q13 -16 30.5 -31t53.5 -31t74 -16q74 0 125 53t51 137q0 83 -48.5 135t-119.5 52z"/><glyph glyph-name="c" unicode="c" horiz-adv-x="564" d="M508 397l-42 -42q-66 63 -157 63q-76 0 -128 -52t-52 -135q0 -84 54 -136.5t132 -52.5q94 0 162 73l42 -39q-24 -29 -78.5 -59t-131.5 -30q-103 0 -175.5 68t-72.5 176q0 107 72 174t176 67q117 0 199 -75z"/><glyph glyph-name="d" unicode="d" horiz-adv-x="626" d="M536 0h-58q-7 32 -7 71q-24 -31 -70.5 -57.5t-103.5 -26.5q-99 0 -167 68t-68 176q0 106 68.5 173.5t167.5 67.5q91 0 167 -74v302h62v-590q0 -67 9 -110zM303 418q-73 0 -122.5 -52t-49.5 -135q0 -85 49.5 -137.5t122.5 -52.5q39 0 75.5 16t55.5 31.5t31 30.5v222 q-77 77 -162 77z"/><glyph glyph-name="e" unicode="e" horiz-adv-x="594" d="M481 114l42 -40q-89 -87 -223 -87q-109 0 -174 68t-65 169q0 105 70 176.5t174 71.5q42 0 81.5 -13.5t73.5 -39.5t54.5 -70.5t21.5 -100.5q0 -13 -1 -20h-412v-2q0 -79 49.5 -131.5t133.5 -52.5q108 0 175 72zM302 421q-65 0 -111.5 -40.5t-61.5 -103.5h339 q-2 68 -52 106t-114 38z"/><glyph glyph-name="f" unicode="f" horiz-adv-x="352" d="M41 459h94v101q0 77 41.5 114t97.5 37q71 0 109 -35l-14 -50q-30 30 -84 30q-38 0 -63 -24t-25 -72v-101h147v-49h-147v-410h-62v410h-94v49z"/><glyph glyph-name="g" unicode="g" horiz-adv-x="626" d="M465 -33v100q-78 -80 -172 -80q-96 0 -163.5 67.5t-67.5 173.5q0 108 69.5 176t170.5 68q55 0 100 -27t69 -59q0 40 11 74h58q-13 -45 -13 -110v-383q0 -84 -59.5 -139t-168.5 -55q-134 0 -208 81l38 37q61 -66 170 -66q79 0 122.5 40t43.5 102zM299 41q87 0 166 77v222 q-13 16 -30.5 31t-53.5 31t-74 16q-74 0 -125 -53t-51 -137q0 -83 48.5 -135t119.5 -52z"/><glyph glyph-name="h" unicode="h" horiz-adv-x="604" d="M160 0h-62v700h62v-308q74 80 172 80q81 0 131.5 -45t50.5 -115v-312h-63v312q0 45 -35 75.5t-90 30.5q-88 0 -166 -82v-336z"/><glyph glyph-name="i" unicode="i" horiz-adv-x="257" d="M160 0h-62v459h62v-459zM86 641q0 17 12 28.5t30 11.5q19 0 31 -11.5t12 -28.5t-12 -28t-31 -11q-18 0 -30 11.5t-12 27.5z"/><glyph glyph-name="j" unicode="j" horiz-adv-x="257" d="M5 -227l-17 49q110 13 110 124v513h62v-513q0 -88 -47.5 -130.5t-107.5 -42.5zM86 641q0 17 12 28.5t30 11.5q19 0 31 -11.5t12 -28.5t-12 -28t-31 -11q-18 0 -30 11.5t-12 27.5z"/><glyph glyph-name="k" unicode="k" horiz-adv-x="556" d="M426 459h84l-187 -161l216 -298h-77l-185 258l-117 -102v-156h-62v700h62v-477z"/><glyph glyph-name="l" unicode="l" horiz-adv-x="274" d="M168 0h-62v700h62v-700z"/><glyph glyph-name="m" unicode="m" horiz-adv-x="891" d="M161 0h-62v350q0 56 -14 109h57q12 -36 13 -72q73 85 164 85q107 0 151 -93q68 93 169 93q70 0 116 -45t46 -115v-312h-63v312q0 45 -31 75.5t-78 30.5q-77 0 -148 -82v-336h-62v334q-7 36 -35.5 60t-73.5 24q-78 0 -149 -82v-336z"/><glyph glyph-name="n" unicode="n" horiz-adv-x="606" d="M161 0h-62v350q0 56 -14 109h57q11 -32 13 -73q80 86 183 86q77 0 127 -45t50 -115v-312h-63v312q0 45 -34.5 75.5t-89.5 30.5q-89 0 -167 -82v-336z"/><glyph glyph-name="o" unicode="o" horiz-adv-x="617" d="M61 231q0 101 71 171t176 70t176.5 -70t71.5 -171q0 -103 -71.5 -173.5t-176.5 -70.5t-176 70.5t-71 173.5zM126 231q0 -80 52 -136t130 -56q79 0 131.5 56t52.5 136q0 78 -53 134t-131 56t-130 -56t-52 -134z"/><glyph glyph-name="p" unicode="p" horiz-adv-x="626" d="M161 -212h-62v558q0 66 -12 113h58q10 -34 11 -71q31 35 78 59.5t99 24.5q97 0 164 -67.5t67 -175.5q0 -107 -69.5 -174.5t-169.5 -67.5q-95 0 -164 79v-278zM161 341v-223q72 -77 158 -77q75 0 126 52t51 136t-48.5 136.5t-119.5 52.5q-90 0 -167 -77z"/><glyph glyph-name="q" unicode="q" horiz-adv-x="626" d="M527 -212h-62v278q-69 -79 -168 -79q-98 0 -166.5 67.5t-68.5 174.5q0 108 68.5 175.5t167.5 67.5q51 0 97 -24.5t76 -59.5q0 37 11 71h58q-13 -46 -13 -113v-558zM465 118v223q-73 77 -162 77q-72 0 -122 -52.5t-50 -136.5t49.5 -136t122.5 -52q90 0 162 77z"/><glyph glyph-name="r" unicode="r" horiz-adv-x="392" d="M161 0h-62v350q0 57 -15 109h58q11 -34 13 -81q64 94 144 94q52 0 73 -27l-21 -55q-21 22 -65 22q-61 0 -125 -88v-324z"/><glyph glyph-name="s" unicode="s" horiz-adv-x="547" d="M458 415l-25 -47q-28 20 -76 37t-98 17t-87 -20t-37 -59q0 -22 12.5 -36.5t38 -21t43.5 -8.5t50 -4q28 -1 44 -2.5t45.5 -6.5t48 -14t38 -23t29 -36.5t9.5 -52.5q0 -74 -61 -113t-155 -39q-121 0 -222 72l25 47q97 -68 196 -68q67 0 111 25t44 71q0 25 -14 42t-41 24.5 t-46.5 10t-50.5 4.5l-41.5 3t-40 4.5t-40 8.5t-32.5 14t-28.5 21t-16.5 30t-7 41q0 72 55.5 105t129.5 33q60 0 114.5 -18.5t85.5 -40.5z"/><glyph glyph-name="t" unicode="t" horiz-adv-x="386" d="M31 410v49h95v141h62v-141h152v-49h-152v-297q0 -37 20.5 -55.5t51.5 -18.5q52 0 84 21l9 -48q-15 -11 -45.5 -19.5t-58.5 -8.5q-49 0 -86 31t-37 98v297h-95z"/><glyph glyph-name="u" unicode="u" horiz-adv-x="605" d="M444 459h62v-349q0 -67 8 -110h-57q-7 32 -7 73q-82 -86 -182 -86q-77 0 -127.5 45t-50.5 115v312h63v-312q0 -45 35 -75.5t89 -30.5q89 0 167 82v336z"/><glyph glyph-name="v" unicode="v" horiz-adv-x="534" d="M434 459h64l-202 -459h-58l-201 459h69l159 -376h7z"/><glyph glyph-name="w" unicode="w" horiz-adv-x="771" d="M661 459h68l-153 -459h-68l-120 371h-5l-119 -371h-68l-153 459h67l118 -379h5l122 379h65l122 -379h5z"/><glyph glyph-name="x" unicode="x" horiz-adv-x="541" d="M417 459h79l-188 -224l198 -235h-78l-158 195l-157 -195h-78l198 235l-188 224h79l146 -184z"/><glyph glyph-name="y" unicode="y" horiz-adv-x="550" d="M451 459h63l-327 -671h-64l113 225l-200 446h70l162 -378h3z"/><glyph glyph-name="z" unicode="z" horiz-adv-x="519" d="M463 49v-49h-417v38l325 372h-295v49h380v-38l-325 -372h332z"/><glyph glyph-name="braceleft" unicode="{" horiz-adv-x="374" d="M336 -100v-54q-114 0 -152.5 31t-38.5 131v127q0 110 -117 110v61q48 0 83 32.5t35 83.5v103q1 101 39.5 133t150.5 32v-54q-75 0 -101 -21.5t-27 -89.5v-103q0 -60 -35 -99.5t-83 -42.5v-8q117 -2 117 -137v-127q0 -67 26 -87.5t103 -20.5z"/><glyph glyph-name="bar" unicode="|" horiz-adv-x="350" d="M147 -305v1207h58v-1207h-58z"/><glyph glyph-name="braceright" unicode="}" horiz-adv-x="374" d="M38 -154v54q75 0 102 21t27 87v127q0 135 117 137v8q-48 3 -83 42t-35 100v103q-1 68 -28 89.5t-100 21.5v54q111 0 149.5 -32t39.5 -133v-103q0 -51 35.5 -83.5t82.5 -32.5v-61q-117 0 -117 -110v-127q0 -100 -38 -131t-152 -31z"/><glyph glyph-name="asciitilde" unicode="~" horiz-adv-x="707" d="M106 203l-46 30q93 104 170 104q72 0 137 -63l27.5 -24.5t29.5 -17t43 -9.5q59 0 131 78l48 -29q-93 -108 -181 -108q-25 0 -47 6t-41.5 19t-28 20t-25.5 23q-52 46 -95 46q-52 0 -122 -75z"/><glyph glyph-name="nbspace" horiz-adv-x="225"/><glyph glyph-name="exclamdown" unicode="¡" horiz-adv-x="277" d="M173 421q0 -20 -16 -35t-39 -15t-38.5 14.5t-15.5 35.5t15.5 35.5t38.5 14.5t39 -14.5t16 -35.5zM95 265h45l14 -299v-158h-72v158z"/><glyph glyph-name="cent" unicode="¢" horiz-adv-x="567" d="M337 513h46l-21 -96q74 -14 132 -61l-40 -41q-46 35 -104 48l-72 -320q7 -1 20 -1q89 0 160 64l42 -39q-13 -14 -34.5 -30t-68.5 -32.5t-99 -16.5q-10 0 -32 2l-27 -123h-46l29 131q-74 20 -120 76t-46 133q0 96 68.5 156.5t168.5 60.5q16 0 24 -1zM123 207 q0 -56 30.5 -97t80.5 -58l71 318h-12q-72 0 -121 -45.5t-49 -117.5z"/><glyph glyph-name="sterling" unicode="£" horiz-adv-x="716" d="M65 267v49h140v83q0 77 63 118.5t150 41.5q44 0 105.5 -19t114.5 -49l-33 -46q-107 55 -187 55q-60 0 -103.5 -26t-43.5 -75v-83h259v-49h-259v-99q0 -53 -17 -79.5t-58 -35.5h442v-53h-573v53h37q59 0 81 23t22 92v99h-140z"/><glyph glyph-name="currency" unicode="¤" horiz-adv-x="739" d="M94 258q0 89 57 162l-79 74l43 43l79 -74q75 64 174 64q100 0 177 -64l79 74l44 -43l-81 -75q58 -73 58 -161q0 -90 -58 -162l81 -74l-44 -43l-79 74q-77 -64 -177 -64q-98 0 -174 63l-79 -73l-43 43l79 74q-57 72 -57 162zM161 258q0 -86 61 -147t146 -61q86 0 148 61 t62 147q0 85 -62 146.5t-148 61.5q-85 0 -146 -61.5t-61 -146.5z"/><glyph glyph-name="yen" unicode="¥" horiz-adv-x="744" d="M72 317v43h180l-155 185h85l193 -229l193 229h79l-154 -185h180v-43h-216l-51 -61v-21h267v-43h-267v-192h-67v192h-267v43h267v21l-51 61h-216z"/><glyph glyph-name="brokenbar" unicode="¦" horiz-adv-x="350" d="M147 382v413h58v-413h-58zM147 -226v420h58v-420h-58z"/><glyph glyph-name="section" unicode="§" horiz-adv-x="700" d="M598 92q-32 -29 -83 -46q14 -8 24 -21q15 -20 15 -50q0 -45 -33 -75t-76.5 -41t-92.5 -11q-115 0 -201 54l30 46q76 -47 172 -47q50 0 92 17t42 56q0 22 -12 31q-7 7 -17.5 12t-29 8.5t-28 5t-38.5 4t-36 3.5q-158 17 -221 74q-43 40 -43 99q0 60 45 103q30 31 82 48 q-14 8 -21 17q-17 23 -17 54q0 65 61.5 96.5t140.5 31.5q114 0 201 -55l-30 -46q-73 47 -171 47q-51 0 -93 -16.5t-42 -55.5q0 -22 13 -32q8 -7 18 -12t29 -8.5t28 -4.5l37.5 -4t35.5 -4q161 -17 222 -75q42 -40 42 -98q0 -62 -45 -105zM378 312q-117 13 -149 24 q-38 -12 -64 -35q-36 -36 -36 -82q0 -41 30 -70q47 -42 168 -53q111 -11 147 -24q42 13 65 34q38 35 38 83q0 41 -30 68q-46 44 -169 55z"/><glyph glyph-name="dieresis" unicode="¨" d="M306 596q0 16 11.5 27t28.5 11t29 -11t12 -27t-12 -26.5t-29 -10.5t-28.5 10.5t-11.5 26.5zM113 596q0 16 11.5 27t28.5 11t29 -11t12 -27t-12 -26.5t-29 -10.5t-28.5 10.5t-11.5 26.5z"/><glyph glyph-name="copyright" unicode="©" horiz-adv-x="999" d="M500 -136q-183 0 -313 119t-130 288t130 287.5t313 118.5q182 0 312 -118.5t130 -287.5t-130 -288t-312 -119zM500 -92q162 0 276.5 106t114.5 257q0 149 -115 256t-276 107t-276.5 -107t-115.5 -256q0 -150 115.5 -256.5t276.5 -106.5zM704 415l-25 -41q-75 65 -172 65 q-82 0 -133 -48.5t-51 -119.5q0 -68 54 -111t133 -43q58 0 96 15.5t78 45.5l25 -42q-43 -34 -87 -51t-112 -17q-103 0 -173.5 56.5t-70.5 146.5q0 93 67 155t174 62q106 0 197 -73z"/><glyph glyph-name="ordfeminine" unicode="ª" horiz-adv-x="456" d="M88 482l-20 43q70 43 162 43q66 0 112 -24t46 -76v-187q0 -36 12 -61h-54q-7 10 -12 49q-66 -59 -153 -59q-65 0 -103.5 33.5t-38.5 84.5q0 49 43.5 80.5t120.5 31.5q90 0 131 -38v52q0 35 -30.5 52t-76.5 17q-79 0 -139 -41zM192 257q35 0 69 13t51.5 25.5t21.5 19.5v43 q-39 40 -123 40q-59 0 -88 -19t-29 -51q0 -30 26 -50.5t72 -20.5z"/><glyph glyph-name="guillemotleft" unicode="«" horiz-adv-x="539" d="M166 381h75l-121 -136v-8l121 -135h-75l-108 122v34zM386 381h74l-121 -136v-8l121 -135h-74l-118 135v9z"/><glyph glyph-name="logicalnot" unicode="¬" horiz-adv-x="707" d="M621 106h-61v242h-476v56h537v-298z"/><glyph glyph-name="registered" unicode="®" horiz-adv-x="636" d="M316 206q-106 0 -178.5 67.5t-72.5 165.5q0 95 73 163t178 68q106 0 181 -68.5t75 -162.5q0 -98 -74.5 -165.5t-181.5 -67.5zM244 327h-35v235h151q37 0 61.5 -19.5t24.5 -48.5q0 -23 -16.5 -41t-43.5 -25l63 -101h-40l-60 98h-105v-98zM360 533h-116v-79h117 q21 0 35.5 12t14.5 28q0 17 -15 28t-36 11zM316 233q95 0 160.5 60t65.5 146q0 84 -66 144.5t-160 60.5q-93 0 -157.5 -60.5t-64.5 -144.5q0 -86 64 -146t158 -60z"/><glyph glyph-name="macron" unicode="¯" d="M125 625h250v-49h-250v49z"/><glyph glyph-name="degree" unicode="°" horiz-adv-x="499" d="M248 295q-89 0 -139 48t-50 119q0 73 50 121t139 48q90 0 141.5 -48.5t51.5 -120.5q0 -70 -52 -118.5t-141 -48.5zM248 343q63 0 100 34.5t37 84.5q0 51 -37 85.5t-100 34.5t-98 -34t-35 -86q0 -51 35 -85t98 -34z"/><glyph glyph-name="plusminus" unicode="±" horiz-adv-x="707" d="M84 297v56h239v183h61v-183h237v-56h-237v-183h-61v183h-239zM84 0v56h537v-56h-537z"/><glyph glyph-name="two.superior" unicode="²" horiz-adv-x="476" d="M89 550l-35 41q35 25 55 37t59 24.5t81 12.5q74 0 128 -31t54 -89q0 -14 -3.5 -27t-8.5 -23t-15.5 -19.5l-18 -16t-22.5 -14t-23 -11t-25.5 -9l-24 -7.5t-24.5 -7t-21 -6q-67 -18 -104.5 -47.5t-37.5 -81.5v-9h321v-47h-379v51q0 135 197 186q77 20 102 39q27 21 27 49 q0 34 -35.5 51t-85.5 17q-81 0 -161 -63z"/><glyph glyph-name="three.superior" unicode="³" horiz-adv-x="542" d="M249 426v47h87q24 0 47 18t23 47q0 37 -38 56t-85 19q-91 0 -174 -72l-35 36q100 88 210 88q42 0 81 -11t69.5 -39t30.5 -68q0 -33 -18.5 -56.5t-41.5 -32.5q36 -7 66.5 -32.5t30.5 -72.5q0 -68 -66.5 -106.5t-168.5 -38.5q-142 0 -236 87l36 41q83 -76 200 -76 q76 0 126 26t50 70q0 26 -20 43t-41 22t-42 5h-91z"/><glyph glyph-name="acute" unicode="´" d="M290 690l70 -2l-103 -146l-56 2z"/><glyph glyph-name="mu" unicode="µ" horiz-adv-x="598" d="M148 -230h-62v684h62v-314q1 -44 35.5 -73t88.5 -29q89 0 167 82v334h62v-344q0 -67 9 -110h-58q-7 32 -7 70q-82 -86 -182 -86q-78 0 -115 55v-269z"/><glyph glyph-name="mu" unicode="μ" horiz-adv-x="598" d="M148 -230h-62v684h62v-314q1 -44 35.5 -73t88.5 -29q89 0 167 82v334h62v-344q0 -67 9 -110h-58q-7 32 -7 70q-82 -86 -182 -86q-78 0 -115 55v-269z"/><glyph glyph-name="paragraph" unicode="¶" horiz-adv-x="841" d="M553 -206h-56v473h-220q-90 0 -158.5 49.5t-68.5 147.5q0 189 247 189h434v-859h-56v805h-122v-805zM297 599q-185 0 -185 -135q0 -72 50 -107.5t115 -35.5h220v278h-200z"/><glyph glyph-name="periodcentered" unicode="·" horiz-adv-x="707" d="M293 253q0 23 17.5 39t42.5 16t42.5 -16t17.5 -39t-17 -38.5t-43 -15.5q-25 0 -42.5 15.5t-17.5 38.5z"/><glyph glyph-name="cedilla" unicode="¸" d="M254 10h42l-27 -77q28 8 48 8q38 0 66.5 -19t28.5 -57q0 -42 -43 -66.5t-112 -24.5q-51 0 -147 24l11 36q86 -21 134 -21q45 0 72.5 13.5t27.5 38.5q0 43 -59 43q-17 0 -55 -9l-20 22z"/><glyph glyph-name="one.superior" unicode="¹" horiz-adv-x="302" d="M22 547l-14 47l141 59h59v-433h-59v380z"/><glyph glyph-name="ordmasculine" unicode="º" horiz-adv-x="466" d="M42 390q0 74 56.5 126t133.5 52q78 0 135 -52t57 -126q0 -75 -57 -127.5t-135 -52.5q-77 0 -133.5 53t-56.5 127zM98 390q0 -56 38 -94.5t96 -38.5q59 0 98 38.5t39 94.5q0 55 -39 93.5t-98 38.5q-58 0 -96 -38.5t-38 -93.5z"/><glyph glyph-name="guillemotright" unicode="»" horiz-adv-x="539" d="M298 381h75l108 -123v-34l-108 -122h-75l121 135v8zM79 381h74l118 -135v-9l-118 -135h-74l121 135v8z"/><glyph glyph-name="onequarter" unicode="¼" horiz-adv-x="1032" d="M20 547l-13 47l141 59h59v-433h-59v380zM624 653l-370 -653h-54l371 653h53zM1001 151v-48h-89v-103h-59v103h-352v43l355 287h56v-282h89zM588 153v-2h265v207h-8z"/><glyph glyph-name="onehalf" unicode="½" horiz-adv-x="997" d="M20 547l-13 47l141 59h59v-433h-59v380zM624 653l-370 -653h-54l371 653h53zM609 330l-34 41q33 24 54 37t59.5 25t80.5 12q75 0 128.5 -31t53.5 -89q0 -14 -4 -27t-8.5 -23t-15 -19.5l-17.5 -16t-22.5 -14l-22.5 -11t-26 -9.5l-24 -7.5t-24.5 -6.5t-21.5 -6 q-66 -18 -103.5 -47.5t-37.5 -81.5v-9h320v-47h-379v51q0 135 197 186q1 0 13 3l16 4t16 5t18 6.5l16.5 7t16 8.5t13.5 10.5t11.5 12.5t6.5 14t3 17q0 34 -36 51t-85 17q-50 0 -86 -16t-76 -47z"/><glyph glyph-name="threequarters" unicode="¾" horiz-adv-x="1274" d="M249 426v47h87q24 0 47 18t23 47q0 37 -38 56t-85 19q-91 0 -174 -72l-35 36q100 88 210 88q42 0 81 -11t69.5 -39t30.5 -68q0 -33 -18.5 -56.5t-41.5 -32.5q36 -7 66.5 -32.5t30.5 -72.5q0 -68 -66.5 -106.5t-168.5 -38.5q-142 0 -236 87l36 41q83 -76 200 -76 q76 0 126 26t50 70q0 26 -20 43t-41 22t-42 5h-91zM866 653l-370 -653h-54l371 653h53zM1243 151v-48h-89v-103h-59v103h-352v43l355 287h56v-282h89zM830 153v-2h265v207h-8z"/><glyph glyph-name="questiondown" unicode="¿" horiz-adv-x="593" d="M497 -55l43 -39q-53 -55 -113 -83.5t-153 -28.5q-95 0 -155.5 36.5t-60.5 118.5q0 43 19.5 71.5t57.5 57.5q17 14 55 39.5t58 41t40 44.5t25 62h60q-3 -43 -25.5 -80t-44 -54.5t-65.5 -47.5t-58 -41q-32 -23 -47 -42t-15 -49q0 -53 45 -78t113 -25q75 0 125.5 25t95.5 72 zM385 421q0 -21 -15.5 -35.5t-38.5 -14.5t-39 15t-16 35q0 21 16 35.5t39 14.5t38.5 -14.5t15.5 -35.5z"/><glyph glyph-name="Agrave" unicode="À" horiz-adv-x="751" d="M109 0h-69l303 653h66l303 -653h-73l-97 212h-337zM371 575l-141 -309h288l-141 309h-6zM383 736l-156 119l83 3l131 -118z"/><glyph glyph-name="Aacute" unicode="Á" horiz-adv-x="751" d="M109 0h-69l303 653h66l303 -653h-73l-97 212h-337zM371 575l-141 -309h288l-141 309h-6zM311 740l131 118l82 -3l-156 -119z"/><glyph glyph-name="Acircumflex" unicode="Â" horiz-adv-x="751" d="M109 0h-69l303 653h66l303 -653h-73l-97 212h-337zM371 575l-141 -309h288l-141 309h-6zM232 740l110 119h68l109 -119l-49 -4l-94 86l-95 -86z"/><glyph glyph-name="Atilde" unicode="Ã" horiz-adv-x="751" d="M109 0h-69l303 653h66l303 -653h-73l-97 212h-337zM371 575l-141 -309h288l-141 309h-6zM257 741l-41 22q44 72 93 72q26 0 68 -30q35 -27 58 -27q25 0 57 46l39 -21q-43 -73 -93 -73q-34 0 -71 27q-38 31 -55 31q-23 0 -55 -47z"/><glyph glyph-name="Adieresis" unicode="Ä" horiz-adv-x="751" d="M109 0h-69l303 653h66l303 -653h-73l-97 212h-337zM371 575l-141 -309h288l-141 309h-6zM472 828q17 0 29 -11.5t12 -26.5q0 -16 -12 -27t-29 -11t-28.5 11t-11.5 27q0 15 11.5 26.5t28.5 11.5zM279 828q17 0 29 -11.5t12 -26.5q0 -16 -12 -27t-29 -11t-28.5 11t-11.5 27 q0 15 11.5 26.5t28.5 11.5z"/><glyph glyph-name="Aring" unicode="Å" horiz-adv-x="751" d="M109 0h-69l303 653h66l303 -653h-73l-97 212h-337zM371 575l-141 -309h288l-141 309h-6zM300 788q0 -26 20.5 -43.5t52.5 -17.5q33 0 54 17t21 44q0 28 -21 46.5t-54 18.5q-32 0 -52.5 -18.5t-20.5 -46.5zM373 696q-52 0 -82 26t-30 66q0 41 30 68t82 27t83.5 -27.5 t31.5 -67.5q0 -39 -31 -65.5t-84 -26.5z"/><glyph glyph-name="AE" unicode="Æ" horiz-adv-x="1089" d="M79 0h-75l478 653h537v-60h-454v-220h275v-60h-275v-253h476v-60h-542v212h-267zM495 575l-224 -309h228v309h-4z"/><glyph glyph-name="Ccedilla" unicode="Ç" horiz-adv-x="784" d="M689 155l45 -44q-131 -127 -306 -127h-2l-18 -51q28 8 48 8q38 0 66.5 -19t28.5 -57q0 -42 -43 -66.5t-112 -24.5q-51 0 -147 24l11 36q86 -21 134 -21q45 0 72.5 13.5t27.5 38.5q0 43 -59 43q-17 0 -55 -9l-20 22l24 66q-139 14 -227.5 110.5t-88.5 229.5 q0 142 102.5 241.5t254.5 99.5q84 0 161.5 -29.5t131.5 -80.5l-45 -44q-48 44 -113.5 69.5t-133.5 25.5q-123 0 -205.5 -82.5t-82.5 -200.5t83 -200t208 -82q151 0 260 111z"/><glyph glyph-name="Egrave" unicode="È" horiz-adv-x="718" d="M470 375v-59h-275v-256h476v-60h-543v653h521v-60h-454v-218h275zM397 736l-156 119l83 3l131 -118z"/><glyph glyph-name="Eacute" unicode="É" horiz-adv-x="718" d="M470 375v-59h-275v-256h476v-60h-543v653h521v-60h-454v-218h275zM325 740l131 118l82 -3l-156 -119z"/><glyph glyph-name="Ecircumflex" unicode="Ê" horiz-adv-x="718" d="M470 375v-59h-275v-256h476v-60h-543v653h521v-60h-454v-218h275zM246 740l110 119h68l109 -119l-49 -4l-94 86l-95 -86z"/><glyph glyph-name="Edieresis" unicode="Ë" horiz-adv-x="718" d="M470 375v-59h-275v-256h476v-60h-543v653h521v-60h-454v-218h275zM486 828q17 0 29 -11.5t12 -26.5q0 -16 -12 -27t-29 -11t-28.5 11t-11.5 27q0 15 11.5 26.5t28.5 11.5zM293 828q17 0 29 -11.5t12 -26.5q0 -16 -12 -27t-29 -11t-28.5 11t-11.5 27q0 15 11.5 26.5 t28.5 11.5z"/><glyph glyph-name="Igrave" unicode="Ì" horiz-adv-x="323" d="M195 0h-67v653h67v-653zM95 858l131 -118l-58 -4l-156 119z"/><glyph glyph-name="Iacute" unicode="Í" horiz-adv-x="323" d="M195 0h-67v653h67v-653zM96 740l131 118l82 -3l-156 -119z"/><glyph glyph-name="Icircumflex" unicode="Î" horiz-adv-x="323" d="M195 0h-67v653h67v-653zM17 740l111 119h67l110 -119l-50 -4l-94 86l-94 -86z"/><glyph glyph-name="Idieresis" unicode="Ï" horiz-adv-x="323" d="M195 0h-67v653h67v-653zM257 828q18 0 29.5 -11.5t11.5 -26.5q0 -17 -11.5 -27.5t-29.5 -10.5q-17 0 -28.5 11t-11.5 27q0 15 11.5 26.5t28.5 11.5zM64 828q18 0 29.5 -11.5t11.5 -26.5q0 -17 -11.5 -27.5t-29.5 -10.5q-17 0 -28.5 11t-11.5 27q0 15 11.5 26.5t28.5 11.5 z"/><glyph glyph-name="Eth" unicode="Ð" horiz-adv-x="845" d="M53 316v54h100v283h273q88 0 146.5 -23.5t108.5 -70.5q92 -92 92 -232q0 -143 -96 -237q-51 -46 -107 -68t-144 -22h-273v316h-100zM220 60h203q72 0 115 17t86 55q79 79 79 195q0 114 -76 192q-42 38 -87 56t-117 18h-203v-223h219v-54h-219v-256z"/><glyph glyph-name="Ntilde" unicode="Ñ" horiz-adv-x="831" d="M636 653h67v-653h-63l-444 538h-1v-538h-67v653h63l444 -538h1v538zM296 741l-41 22q44 72 93 72q26 0 68 -30q35 -27 58 -27q25 0 57 46l39 -21q-43 -73 -93 -73q-34 0 -71 27q-38 31 -55 31q-23 0 -55 -47z"/><glyph glyph-name="Ograve" unicode="Ò" horiz-adv-x="855" d="M68 328q0 141 104 240.5t254 99.5q151 0 256 -99.5t105 -240.5q0 -143 -105 -243.5t-256 -100.5q-150 0 -254 100.5t-104 243.5zM139 328q0 -118 83.5 -201t203.5 -83q122 0 206.5 83t84.5 201q0 117 -84.5 199t-206.5 82q-120 0 -203.5 -82t-83.5 -199zM434 736 l-156 119l83 3l131 -118z"/><glyph glyph-name="Oacute" unicode="Ó" horiz-adv-x="855" d="M68 328q0 141 104 240.5t254 99.5q151 0 256 -99.5t105 -240.5q0 -143 -105 -243.5t-256 -100.5q-150 0 -254 100.5t-104 243.5zM139 328q0 -118 83.5 -201t203.5 -83q122 0 206.5 83t84.5 201q0 117 -84.5 199t-206.5 82q-120 0 -203.5 -82t-83.5 -199zM362 740l131 118 l82 -3l-156 -119z"/><glyph glyph-name="Ocircumflex" unicode="Ô" horiz-adv-x="855" d="M68 328q0 141 104 240.5t254 99.5q151 0 256 -99.5t105 -240.5q0 -143 -105 -243.5t-256 -100.5q-150 0 -254 100.5t-104 243.5zM139 328q0 -118 83.5 -201t203.5 -83q122 0 206.5 83t84.5 201q0 117 -84.5 199t-206.5 82q-120 0 -203.5 -82t-83.5 -199zM283 740l110 119 h68l109 -119l-49 -4l-94 86l-95 -86z"/><glyph glyph-name="Otilde" unicode="Õ" horiz-adv-x="855" d="M68 328q0 141 104 240.5t254 99.5q151 0 256 -99.5t105 -240.5q0 -143 -105 -243.5t-256 -100.5q-150 0 -254 100.5t-104 243.5zM139 328q0 -118 83.5 -201t203.5 -83q122 0 206.5 83t84.5 201q0 117 -84.5 199t-206.5 82q-120 0 -203.5 -82t-83.5 -199zM308 741l-41 22 q44 72 93 72q26 0 68 -30q35 -27 58 -27q25 0 57 46l39 -21q-43 -73 -93 -73q-34 0 -71 27q-38 31 -55 31q-23 0 -55 -47z"/><glyph glyph-name="Odieresis" unicode="Ö" horiz-adv-x="855" d="M68 328q0 141 104 240.5t254 99.5q151 0 256 -99.5t105 -240.5q0 -143 -105 -243.5t-256 -100.5q-150 0 -254 100.5t-104 243.5zM139 328q0 -118 83.5 -201t203.5 -83q122 0 206.5 83t84.5 201q0 117 -84.5 199t-206.5 82q-120 0 -203.5 -82t-83.5 -199zM523 828 q17 0 29 -11.5t12 -26.5q0 -16 -12 -27t-29 -11t-28.5 11t-11.5 27q0 15 11.5 26.5t28.5 11.5zM330 828q17 0 29 -11.5t12 -26.5q0 -16 -12 -27t-29 -11t-28.5 11t-11.5 27q0 15 11.5 26.5t28.5 11.5z"/><glyph glyph-name="multiply" unicode="×" horiz-adv-x="707" d="M103 441l42 41l209 -191l208 191l40 -40l-207 -189l208 -189l-42 -40l-209 190l-208 -190l-41 39l207 189z"/><glyph glyph-name="Oslash" unicode="Ø" horiz-adv-x="855" d="M68 328q0 141 104 240.5t254 99.5q92 0 175 -43l61 87l45 -31l-59 -85q65 -47 102 -117.5t37 -150.5q0 -143 -105 -243.5t-256 -100.5q-94 0 -175 43l-59 -85l-46 30l59 84q-64 48 -100.5 119t-36.5 153zM717 328q0 64 -28 120.5t-77 96.5l-325 -466q65 -35 139 -35 q122 0 206.5 83t84.5 201zM139 328q0 -135 103 -219l324 465q-67 35 -140 35q-120 0 -203.5 -82t-83.5 -199z"/><glyph glyph-name="Ugrave" unicode="Ù" horiz-adv-x="798" d="M617 653h67v-421q0 -116 -80 -182t-206 -66q-125 0 -204.5 66t-79.5 182v421h67v-421q0 -88 61 -138t156 -50q97 0 158 50t61 138v421zM405 736l-156 119l83 3l131 -118z"/><glyph glyph-name="Uacute" unicode="Ú" horiz-adv-x="798" d="M617 653h67v-421q0 -116 -80 -182t-206 -66q-125 0 -204.5 66t-79.5 182v421h67v-421q0 -88 61 -138t156 -50q97 0 158 50t61 138v421zM333 740l131 118l82 -3l-156 -119z"/><glyph glyph-name="Ucircumflex" unicode="Û" horiz-adv-x="798" d="M617 653h67v-421q0 -116 -80 -182t-206 -66q-125 0 -204.5 66t-79.5 182v421h67v-421q0 -88 61 -138t156 -50q97 0 158 50t61 138v421zM254 740l110 119h68l109 -119l-49 -4l-94 86l-95 -86z"/><glyph glyph-name="Udieresis" unicode="Ü" horiz-adv-x="798" d="M617 653h67v-421q0 -116 -80 -182t-206 -66q-125 0 -204.5 66t-79.5 182v421h67v-421q0 -88 61 -138t156 -50q97 0 158 50t61 138v421zM494 828q17 0 29 -11.5t12 -26.5q0 -16 -12 -27t-29 -11t-28.5 11t-11.5 27q0 15 11.5 26.5t28.5 11.5zM301 828q17 0 29 -11.5 t12 -26.5q0 -16 -12 -27t-29 -11t-28.5 11t-11.5 27q0 15 11.5 26.5t28.5 11.5z"/><glyph glyph-name="Yacute" unicode="Ý" horiz-adv-x="667" d="M556 653h79l-268 -343v-310h-67v310l-268 343h85l219 -283zM269 740l131 118l82 -3l-156 -119z"/><glyph glyph-name="Thorn" unicode="Þ" horiz-adv-x="762" d="M128 653h67v-134h290q64 0 103 -15.5t73 -47.5q52 -55 52 -128q0 -79 -57 -134q-66 -59 -171 -59h-290v-135h-67v653zM485 459h-290v-265h290q77 0 123 42q38 38 38 91t-36 89q-44 43 -125 43z"/><glyph glyph-name="germandbls" unicode="ß" horiz-adv-x="598" d="M312 -10l-6 48q81 0 125.5 39t44.5 102q0 42 -20.5 78t-52 58.5t-58.5 36t-49 19.5l5 48q39 9 67.5 46.5t28.5 85.5t-31.5 78t-82.5 30t-87.5 -32.5t-36.5 -97.5v-529h-61v529q0 93 54 137.5t131 44.5q79 0 128.5 -45t49.5 -110q0 -58 -35 -100t-73 -56q27 -8 56.5 -25.5 t60.5 -44.5t50.5 -67.5t19.5 -85.5q0 -82 -60 -134.5t-168 -52.5z"/><glyph glyph-name="agrave" unicode="à" horiz-adv-x="596" d="M116 363l-23 50q92 59 206 59q54 0 97.5 -12t75 -44t31.5 -80v-253q0 -52 16 -83h-63q-13 21 -15 71q-86 -81 -204 -81q-84 0 -133.5 44t-49.5 113q0 66 55.5 109.5t154.5 43.5q124 0 177 -58v78q0 50 -41.5 75t-102.5 25q-99 0 -181 -57zM249 42q47 0 93 18.5t69.5 36 t29.5 27.5v66q-22 30 -68 45.5t-100 15.5q-78 0 -117.5 -29t-39.5 -75q0 -45 35.5 -75t97.5 -30zM187 688l70 2l89 -146l-55 -2z"/><glyph glyph-name="aacute" unicode="á" horiz-adv-x="596" d="M116 363l-23 50q92 59 206 59q54 0 97.5 -12t75 -44t31.5 -80v-253q0 -52 16 -83h-63q-13 21 -15 71q-86 -81 -204 -81q-84 0 -133.5 44t-49.5 113q0 66 55.5 109.5t154.5 43.5q124 0 177 -58v78q0 50 -41.5 75t-102.5 25q-99 0 -181 -57zM249 42q47 0 93 18.5t69.5 36 t29.5 27.5v66q-22 30 -68 45.5t-100 15.5q-78 0 -117.5 -29t-39.5 -75q0 -45 35.5 -75t97.5 -30zM338 690l70 -2l-103 -146l-56 2z"/><glyph glyph-name="acircumflex" unicode="â" horiz-adv-x="596" d="M116 363l-23 50q92 59 206 59q54 0 97.5 -12t75 -44t31.5 -80v-253q0 -52 16 -83h-63q-13 21 -15 71q-86 -81 -204 -81q-84 0 -133.5 44t-49.5 113q0 66 55.5 109.5t154.5 43.5q124 0 177 -58v78q0 50 -41.5 75t-102.5 25q-99 0 -181 -57zM249 42q47 0 93 18.5t69.5 36 t29.5 27.5v66q-22 30 -68 45.5t-100 15.5q-78 0 -117.5 -29t-39.5 -75q0 -45 35.5 -75t97.5 -30zM154 547l110 125h68l109 -125l-49 -4l-94 92l-95 -92z"/><glyph glyph-name="atilde" unicode="ã" horiz-adv-x="596" d="M116 363l-23 50q92 59 206 59q54 0 97.5 -12t75 -44t31.5 -80v-253q0 -52 16 -83h-63q-13 21 -15 71q-86 -81 -204 -81q-84 0 -133.5 44t-49.5 113q0 66 55.5 109.5t154.5 43.5q124 0 177 -58v78q0 50 -41.5 75t-102.5 25q-99 0 -181 -57zM249 42q47 0 93 18.5t69.5 36 t29.5 27.5v66q-22 30 -68 45.5t-100 15.5q-78 0 -117.5 -29t-39.5 -75q0 -45 35.5 -75t97.5 -30zM179 547l-41 23q44 72 93 72q26 0 68 -30q36 -28 58 -28q11 0 22.5 8t17.5 16l17 23l39 -22q-44 -72 -93 -72q-34 0 -71 27q-39 30 -55 30q-23 0 -55 -47z"/><glyph glyph-name="adieresis" unicode="ä" horiz-adv-x="596" d="M116 363l-23 50q92 59 206 59q54 0 97.5 -12t75 -44t31.5 -80v-253q0 -52 16 -83h-63q-13 21 -15 71q-86 -81 -204 -81q-84 0 -133.5 44t-49.5 113q0 66 55.5 109.5t154.5 43.5q124 0 177 -58v78q0 50 -41.5 75t-102.5 25q-99 0 -181 -57zM249 42q47 0 93 18.5t69.5 36 t29.5 27.5v66q-22 30 -68 45.5t-100 15.5q-78 0 -117.5 -29t-39.5 -75q0 -45 35.5 -75t97.5 -30zM354 596q0 16 11.5 27t28.5 11t29 -11t12 -27t-12 -26.5t-29 -10.5t-28.5 10.5t-11.5 26.5zM161 596q0 16 11.5 27t28.5 11t29 -11t12 -27t-12 -26.5t-29 -10.5t-28.5 10.5 t-11.5 26.5z"/><glyph glyph-name="aring" unicode="å" horiz-adv-x="596" d="M116 363l-23 50q92 59 206 59q54 0 97.5 -12t75 -44t31.5 -80v-253q0 -52 16 -83h-63q-13 21 -15 71q-86 -81 -204 -81q-84 0 -133.5 44t-49.5 113q0 66 55.5 109.5t154.5 43.5q124 0 177 -58v78q0 50 -41.5 75t-102.5 25q-99 0 -181 -57zM249 42q47 0 93 18.5t69.5 36 t29.5 27.5v66q-22 30 -68 45.5t-100 15.5q-78 0 -117.5 -29t-39.5 -75q0 -45 35.5 -75t97.5 -30zM222 627q0 -27 20.5 -44.5t52.5 -17.5q33 0 54 17.5t21 44.5q0 28 -21 46.5t-54 18.5q-32 0 -52.5 -18.5t-20.5 -46.5zM183 627q0 41 30 68t82 27t83.5 -27.5t31.5 -67.5 q0 -39 -31 -65.5t-84 -26.5q-52 0 -82 26t-30 66z"/><glyph glyph-name="ae" unicode="æ" horiz-adv-x="973" d="M249 42q69 0 122.5 28t86.5 62q-12 25 -16 57q-55 62 -169 62q-78 0 -117.5 -29t-39.5 -75q0 -45 35.5 -75t97.5 -30zM681 -13q-134 0 -201 102q-41 -44 -106 -73t-137 -29q-84 0 -133.5 45.5t-49.5 114.5q0 66 55.5 109.5t154.5 43.5q126 0 179 -58v78q0 50 -42.5 75 t-103.5 25q-99 0 -181 -57l-23 50q92 59 206 59q71 0 124.5 -24.5t61.5 -80.5l1 -20q23 57 77.5 91t117.5 34q62 0 114.5 -24t87.5 -81t31 -139h-410q0 -12 3 -39q9 -64 56.5 -105.5t117.5 -41.5q112 0 179 72l42 -40q-87 -87 -221 -87zM506 277h341q-1 68 -51.5 106 t-114.5 38q-66 0 -113 -40t-62 -104z"/><glyph glyph-name="ccedilla" unicode="ç" horiz-adv-x="564" d="M508 397l-42 -42q-66 63 -157 63q-76 0 -128 -52t-52 -135q0 -84 54 -136.5t132 -52.5q94 0 162 73l42 -39q-13 -16 -35.5 -33.5t-69.5 -36t-99 -19.5l-19 -54q28 8 48 8q38 0 66.5 -19t28.5 -57q0 -42 -43 -66.5t-112 -24.5q-51 0 -147 24l11 36q86 -21 134 -21 q45 0 72.5 13.5t27.5 38.5q0 43 -59 43q-17 0 -55 -9l-20 22l25 69q-91 12 -151.5 77.5t-60.5 163.5q0 107 72 174t176 67q117 0 199 -75z"/><glyph glyph-name="egrave" unicode="è" horiz-adv-x="594" d="M481 114l42 -40q-89 -87 -223 -87q-109 0 -174 68t-65 169q0 105 70 176.5t174 71.5q42 0 81.5 -13.5t73.5 -39.5t54.5 -70.5t21.5 -100.5q0 -13 -1 -20h-412v-2q0 -79 49.5 -131.5t133.5 -52.5q108 0 175 72zM302 421q-65 0 -111.5 -40.5t-61.5 -103.5h339 q-2 68 -52 106t-114 38zM193 688l70 2l89 -146l-55 -2z"/><glyph glyph-name="eacute" unicode="é" horiz-adv-x="594" d="M481 114l42 -40q-89 -87 -223 -87q-109 0 -174 68t-65 169q0 105 70 176.5t174 71.5q42 0 81.5 -13.5t73.5 -39.5t54.5 -70.5t21.5 -100.5q0 -13 -1 -20h-412v-2q0 -79 49.5 -131.5t133.5 -52.5q108 0 175 72zM302 421q-65 0 -111.5 -40.5t-61.5 -103.5h339 q-2 68 -52 106t-114 38zM344 690l70 -2l-103 -146l-56 2z"/><glyph glyph-name="ecircumflex" unicode="ê" horiz-adv-x="594" d="M481 114l42 -40q-89 -87 -223 -87q-109 0 -174 68t-65 169q0 105 70 176.5t174 71.5q42 0 81.5 -13.5t73.5 -39.5t54.5 -70.5t21.5 -100.5q0 -13 -1 -20h-412v-2q0 -79 49.5 -131.5t133.5 -52.5q108 0 175 72zM302 421q-65 0 -111.5 -40.5t-61.5 -103.5h339 q-2 68 -52 106t-114 38zM160 547l110 125h68l109 -125l-49 -4l-94 92l-95 -92z"/><glyph glyph-name="edieresis" unicode="ë" horiz-adv-x="594" d="M481 114l42 -40q-89 -87 -223 -87q-109 0 -174 68t-65 169q0 105 70 176.5t174 71.5q42 0 81.5 -13.5t73.5 -39.5t54.5 -70.5t21.5 -100.5q0 -13 -1 -20h-412v-2q0 -79 49.5 -131.5t133.5 -52.5q108 0 175 72zM302 421q-65 0 -111.5 -40.5t-61.5 -103.5h339 q-2 68 -52 106t-114 38zM360 596q0 16 11.5 27t28.5 11t29 -11t12 -27t-12 -26.5t-29 -10.5t-28.5 10.5t-11.5 26.5zM167 596q0 16 11.5 27t28.5 11t29 -11t12 -27t-12 -26.5t-29 -10.5t-28.5 10.5t-11.5 26.5z"/><glyph glyph-name="igrave" unicode="ì" horiz-adv-x="257" d="M160 0h-62v459h62v-459zM18 688l70 2l89 -146l-55 -2z"/><glyph glyph-name="iacute" unicode="í" horiz-adv-x="257" d="M160 0h-62v459h62v-459zM169 690l70 -2l-103 -146l-56 2z"/><glyph glyph-name="icircumflex" unicode="î" horiz-adv-x="257" d="M160 0h-62v459h62v-459zM-15 547l110 125h68l109 -125l-49 -4l-94 92l-95 -92z"/><glyph glyph-name="idieresis" unicode="ï" horiz-adv-x="257" d="M160 0h-62v459h62v-459zM185 596q0 16 11.5 27t28.5 11t29 -11t12 -27t-12 -26.5t-29 -10.5t-28.5 10.5t-11.5 26.5zM-8 596q0 16 11.5 27t28.5 11t29 -11t12 -27t-12 -26.5t-29 -10.5t-28.5 10.5t-11.5 26.5z"/><glyph glyph-name="eth" unicode="ð" horiz-adv-x="626" d="M183 518l-15 42l144 52q-49 38 -127 76l66 15q76 -38 118 -71l121 44l15 -42l-98 -35l14 -14q126 -132 126 -333q0 -124 -67 -194q-68 -71 -175 -71q-99 0 -171 69.5t-72 167.5q0 100 67.5 168.5t161.5 68.5q61 0 111 -28.5t70 -76.5q-23 120 -106 207l-15 15zM127 225 q0 -77 51 -130t126 -53q79 0 130 54q49 52 49 133q0 78 -51.5 128t-128.5 50q-75 0 -125.5 -53t-50.5 -129z"/><glyph glyph-name="ntilde" unicode="ñ" horiz-adv-x="606" d="M161 0h-62v350q0 56 -14 109h57q11 -32 13 -73q80 86 183 86q77 0 127 -45t50 -115v-312h-63v312q0 45 -34.5 75.5t-89.5 30.5q-89 0 -167 -82v-336zM183 547l-41 23q44 72 93 72q26 0 68 -30q36 -28 58 -28q11 0 22.5 8t17.5 16l17 23l39 -22q-44 -72 -93 -72 q-34 0 -71 27q-39 30 -55 30q-23 0 -55 -47z"/><glyph glyph-name="ograve" unicode="ò" horiz-adv-x="617" d="M61 231q0 101 71 171t176 70t176.5 -70t71.5 -171q0 -103 -71.5 -173.5t-176.5 -70.5t-176 70.5t-71 173.5zM126 231q0 -80 52 -136t130 -56q79 0 131.5 56t52.5 136q0 78 -53 134t-131 56t-130 -56t-52 -134zM197 688l70 2l89 -146l-55 -2z"/><glyph glyph-name="oacute" unicode="ó" horiz-adv-x="617" d="M61 231q0 101 71 171t176 70t176.5 -70t71.5 -171q0 -103 -71.5 -173.5t-176.5 -70.5t-176 70.5t-71 173.5zM126 231q0 -80 52 -136t130 -56q79 0 131.5 56t52.5 136q0 78 -53 134t-131 56t-130 -56t-52 -134zM348 690l70 -2l-103 -146l-56 2z"/><glyph glyph-name="ocircumflex" unicode="ô" horiz-adv-x="617" d="M61 231q0 101 71 171t176 70t176.5 -70t71.5 -171q0 -103 -71.5 -173.5t-176.5 -70.5t-176 70.5t-71 173.5zM126 231q0 -80 52 -136t130 -56q79 0 131.5 56t52.5 136q0 78 -53 134t-131 56t-130 -56t-52 -134zM164 547l110 125h68l109 -125l-49 -4l-94 92l-95 -92z"/><glyph glyph-name="otilde" unicode="õ" horiz-adv-x="617" d="M61 231q0 101 71 171t176 70t176.5 -70t71.5 -171q0 -103 -71.5 -173.5t-176.5 -70.5t-176 70.5t-71 173.5zM126 231q0 -80 52 -136t130 -56q79 0 131.5 56t52.5 136q0 78 -53 134t-131 56t-130 -56t-52 -134zM189 547l-41 23q44 72 93 72q26 0 68 -30q36 -28 58 -28 q11 0 22.5 8t17.5 16l17 23l39 -22q-44 -72 -93 -72q-34 0 -71 27q-39 30 -55 30q-23 0 -55 -47z"/><glyph glyph-name="odieresis" unicode="ö" horiz-adv-x="617" d="M61 231q0 101 71 171t176 70t176.5 -70t71.5 -171q0 -103 -71.5 -173.5t-176.5 -70.5t-176 70.5t-71 173.5zM126 231q0 -80 52 -136t130 -56q79 0 131.5 56t52.5 136q0 78 -53 134t-131 56t-130 -56t-52 -134zM364 596q0 16 11.5 27t28.5 11t29 -11t12 -27t-12 -26.5 t-29 -10.5t-28.5 10.5t-11.5 26.5zM171 596q0 16 11.5 27t28.5 11t29 -11t12 -27t-12 -26.5t-29 -10.5t-28.5 10.5t-11.5 26.5z"/><glyph glyph-name="divide" unicode="÷" horiz-adv-x="707" d="M84 225v55h537v-55h-537zM302 43q0 20 15 34t37 14t36.5 -14t14.5 -34t-14.5 -33.5t-36.5 -13.5t-37 13.5t-15 33.5zM302 462q0 20 15 33.5t37 13.5t36.5 -13.5t14.5 -33.5t-14.5 -33.5t-36.5 -13.5t-37 13.5t-15 33.5z"/><glyph glyph-name="oslash" unicode="ø" horiz-adv-x="617" d="M136 -52l-35 24l48 69q-88 72 -88 190q0 101 71 171t176 70q66 0 122 -31l50 71l35 -25l-49 -69q90 -72 90 -187q0 -103 -71.5 -173.5t-176.5 -70.5q-64 0 -123 31zM492 231q0 84 -59 140l-216 -308q42 -24 91 -24q79 0 131.5 56t52.5 136zM126 231q0 -85 57 -142 l216 307q-42 25 -91 25q-78 0 -130 -56t-52 -134z"/><glyph glyph-name="ugrave" unicode="ù" horiz-adv-x="605" d="M444 459h62v-349q0 -67 8 -110h-57q-7 32 -7 73q-82 -86 -182 -86q-77 0 -127.5 45t-50.5 115v312h63v-312q0 -45 35 -75.5t89 -30.5q89 0 167 82v336zM191 688l70 2l89 -146l-55 -2z"/><glyph glyph-name="uacute" unicode="ú" horiz-adv-x="605" d="M444 459h62v-349q0 -67 8 -110h-57q-7 32 -7 73q-82 -86 -182 -86q-77 0 -127.5 45t-50.5 115v312h63v-312q0 -45 35 -75.5t89 -30.5q89 0 167 82v336zM342 690l70 -2l-103 -146l-56 2z"/><glyph glyph-name="ucircumflex" unicode="û" horiz-adv-x="605" d="M444 459h62v-349q0 -67 8 -110h-57q-7 32 -7 73q-82 -86 -182 -86q-77 0 -127.5 45t-50.5 115v312h63v-312q0 -45 35 -75.5t89 -30.5q89 0 167 82v336zM158 547l110 125h68l109 -125l-49 -4l-94 92l-95 -92z"/><glyph glyph-name="udieresis" unicode="ü" horiz-adv-x="605" d="M444 459h62v-349q0 -67 8 -110h-57q-7 32 -7 73q-82 -86 -182 -86q-77 0 -127.5 45t-50.5 115v312h63v-312q0 -45 35 -75.5t89 -30.5q89 0 167 82v336zM358 596q0 16 11.5 27t28.5 11t29 -11t12 -27t-12 -26.5t-29 -10.5t-28.5 10.5t-11.5 26.5zM165 596q0 16 11.5 27 t28.5 11t29 -11t12 -27t-12 -26.5t-29 -10.5t-28.5 10.5t-11.5 26.5z"/><glyph glyph-name="yacute" unicode="ý" horiz-adv-x="550" d="M451 459h63l-327 -671h-64l113 225l-200 446h70l162 -378h3zM314 690l70 -2l-103 -146l-56 2z"/><glyph glyph-name="thorn" unicode="þ" horiz-adv-x="626" d="M152 341v-223q72 -77 158 -77q74 0 125 52t51 136t-48.5 136.5t-119.5 52.5q-89 0 -166 -77zM152 700v-306q74 78 172 78q97 0 163.5 -67.5t66.5 -175.5q0 -107 -69.5 -174.5t-169.5 -67.5q-96 0 -163 79v-278h-62v912h62z"/><glyph glyph-name="ydieresis" unicode="ÿ" horiz-adv-x="550" d="M451 459h63l-327 -671h-64l113 225l-200 446h70l162 -378h3zM330 596q0 16 11.5 27t28.5 11t29 -11t12 -27t-12 -26.5t-29 -10.5t-28.5 10.5t-11.5 26.5zM137 596q0 16 11.5 27t28.5 11t29 -11t12 -27t-12 -26.5t-29 -10.5t-28.5 10.5t-11.5 26.5z"/><glyph glyph-name="Amacron" unicode="Ā" horiz-adv-x="751" d="M109 0h-69l303 653h66l303 -653h-73l-97 212h-337zM371 575l-141 -309h288l-141 309h-6zM251 818h250v-49h-250v49z"/><glyph glyph-name="amacron" unicode="ā" horiz-adv-x="596" d="M116 363l-23 50q92 59 206 59q54 0 97.5 -12t75 -44t31.5 -80v-253q0 -52 16 -83h-63q-13 21 -15 71q-86 -81 -204 -81q-84 0 -133.5 44t-49.5 113q0 66 55.5 109.5t154.5 43.5q124 0 177 -58v78q0 50 -41.5 75t-102.5 25q-99 0 -181 -57zM249 42q47 0 93 18.5t69.5 36 t29.5 27.5v66q-22 30 -68 45.5t-100 15.5q-78 0 -117.5 -29t-39.5 -75q0 -45 35.5 -75t97.5 -30zM173 625h250v-49h-250v49z"/><glyph glyph-name="Abreve" unicode="Ă" horiz-adv-x="751" d="M109 0h-69l303 653h66l303 -653h-73l-97 212h-337zM371 575l-141 -309h288l-141 309h-6zM243 856h47q0 -85 86 -85t86 85h46q0 -52 -29.5 -90t-102.5 -38q-74 0 -103.5 38t-29.5 90z"/><glyph glyph-name="abreve" unicode="ă" horiz-adv-x="596" d="M116 363l-23 50q92 59 206 59q54 0 97.5 -12t75 -44t31.5 -80v-253q0 -52 16 -83h-63q-13 21 -15 71q-86 -81 -204 -81q-84 0 -133.5 44t-49.5 113q0 66 55.5 109.5t154.5 43.5q124 0 177 -58v78q0 50 -41.5 75t-102.5 25q-99 0 -181 -57zM249 42q47 0 93 18.5t69.5 36 t29.5 27.5v66q-22 30 -68 45.5t-100 15.5q-78 0 -117.5 -29t-39.5 -75q0 -45 35.5 -75t97.5 -30zM165 668h47q0 -90 86 -90t86 90h46q0 -24 -6 -45.5t-19.5 -42t-41 -33t-65.5 -12.5q-73 0 -103 39.5t-30 93.5z"/><glyph glyph-name="Aogonek" unicode="Ą" horiz-adv-x="751" d="M109 0h-69l303 653h66l303 -653h-21q-18 -7 -36.5 -17t-41.5 -25.5t-37.5 -36t-14.5 -41.5q0 -30 25 -47t68 -17q21 0 67 8l6 -40q-47 -10 -83 -10q-63 0 -100.5 26t-37.5 69q0 78 129 139l-93 204h-337zM371 575l-141 -309h288l-141 309h-6z"/><glyph glyph-name="aogonek" unicode="ą" horiz-adv-x="596" d="M116 363l-23 50q92 59 206 59q54 0 97.5 -12t75 -44t31.5 -80v-253q0 -52 16 -83q-27 -11 -52 -24.5t-52 -40.5t-27 -55q0 -30 25 -47t68 -17q21 0 67 8l6 -40q-47 -10 -83 -10q-63 0 -100.5 26t-37.5 69q0 77 121 134q-11 19 -13 68q-86 -81 -204 -81q-84 0 -133.5 44 t-49.5 113q0 66 55.5 109.5t154.5 43.5q124 0 177 -58v78q0 50 -41.5 75t-102.5 25q-99 0 -181 -57zM249 42q47 0 93 18.5t69.5 36t29.5 27.5v66q-22 30 -68 45.5t-100 15.5q-78 0 -117.5 -29t-39.5 -75q0 -45 35.5 -75t97.5 -30z"/><glyph glyph-name="Cacute" unicode="Ć" horiz-adv-x="784" d="M689 155l45 -44q-131 -127 -306 -127q-155 0 -257.5 99.5t-102.5 243.5q0 142 102.5 241.5t254.5 99.5q84 0 161.5 -29.5t131.5 -80.5l-45 -44q-48 44 -113.5 69.5t-133.5 25.5q-123 0 -205.5 -82.5t-82.5 -200.5t83 -200t208 -82q151 0 260 111zM362 740l131 118l82 -3 l-156 -119z"/><glyph glyph-name="cacute" unicode="ć" horiz-adv-x="564" d="M508 397l-42 -42q-66 63 -157 63q-76 0 -128 -52t-52 -135q0 -84 54 -136.5t132 -52.5q94 0 162 73l42 -39q-24 -29 -78.5 -59t-131.5 -30q-103 0 -175.5 68t-72.5 176q0 107 72 174t176 67q117 0 199 -75zM349 690l70 -2l-103 -146l-56 2z"/><glyph glyph-name="Ccircumflex" unicode="Ĉ" horiz-adv-x="784" d="M689 155l45 -44q-131 -127 -306 -127q-155 0 -257.5 99.5t-102.5 243.5q0 142 102.5 241.5t254.5 99.5q84 0 161.5 -29.5t131.5 -80.5l-45 -44q-48 44 -113.5 69.5t-133.5 25.5q-123 0 -205.5 -82.5t-82.5 -200.5t83 -200t208 -82q151 0 260 111zM283 740l110 119h68 l109 -119l-49 -4l-94 86l-95 -86z"/><glyph glyph-name="ccircumflex" unicode="ĉ" horiz-adv-x="564" d="M508 397l-42 -42q-66 63 -157 63q-76 0 -128 -52t-52 -135q0 -84 54 -136.5t132 -52.5q94 0 162 73l42 -39q-24 -29 -78.5 -59t-131.5 -30q-103 0 -175.5 68t-72.5 176q0 107 72 174t176 67q117 0 199 -75zM165 547l110 125h68l109 -125l-49 -4l-94 92l-95 -92z"/><glyph glyph-name="Cdotaccent" unicode="Ċ" horiz-adv-x="784" d="M689 155l45 -44q-131 -127 -306 -127q-155 0 -257.5 99.5t-102.5 243.5q0 142 102.5 241.5t254.5 99.5q84 0 161.5 -29.5t131.5 -80.5l-45 -44q-48 44 -113.5 69.5t-133.5 25.5q-123 0 -205.5 -82.5t-82.5 -200.5t83 -200t208 -82q151 0 260 111zM427 828q17 0 29 -11.5 t12 -26.5q0 -16 -12 -27t-29 -11t-28.5 11t-11.5 27q0 15 11.5 26.5t28.5 11.5z"/><glyph glyph-name="cdotaccent" unicode="ċ" horiz-adv-x="564" d="M508 397l-42 -42q-66 63 -157 63q-76 0 -128 -52t-52 -135q0 -84 54 -136.5t132 -52.5q94 0 162 73l42 -39q-24 -29 -78.5 -59t-131.5 -30q-103 0 -175.5 68t-72.5 176q0 107 72 174t176 67q117 0 199 -75zM269 596q0 16 11.5 27t28.5 11t29 -11t12 -27t-12 -26.5 t-29 -10.5t-28.5 10.5t-11.5 26.5z"/><glyph glyph-name="Ccaron" unicode="Č" horiz-adv-x="784" d="M689 155l45 -44q-131 -127 -306 -127q-155 0 -257.5 99.5t-102.5 243.5q0 142 102.5 241.5t254.5 99.5q84 0 161.5 -29.5t131.5 -80.5l-45 -44q-48 44 -113.5 69.5t-133.5 25.5q-123 0 -205.5 -82.5t-82.5 -200.5t83 -200t208 -82q151 0 260 111zM332 860l95 -85l94 85 l49 -4l-109 -119h-68l-110 119z"/><glyph glyph-name="ccaron" unicode="č" horiz-adv-x="564" d="M508 397l-42 -42q-66 63 -157 63q-76 0 -128 -52t-52 -135q0 -84 54 -136.5t132 -52.5q94 0 162 73l42 -39q-24 -29 -78.5 -59t-131.5 -30q-103 0 -175.5 68t-72.5 176q0 107 72 174t176 67q117 0 199 -75zM165 670l49 3l95 -92l94 92l49 -3l-109 -126h-68z"/><glyph glyph-name="Dcaron" unicode="Ď" horiz-adv-x="819" d="M400 0h-272v653h272q88 0 146.5 -23.5t109.5 -70.5q91 -93 91 -232q0 -144 -96 -237q-51 -46 -107 -68t-144 -22zM195 60h203q72 0 114.5 17t86.5 55q79 79 79 195q0 115 -77 192q-41 38 -86 56t-117 18h-203v-533zM304 860l95 -85l94 85l49 -4l-109 -119h-68l-110 119z"/><glyph glyph-name="dcaron" unicode="ď" horiz-adv-x="626" d="M465 119v222q-77 77 -162 77q-73 0 -122.5 -52t-49.5 -135q0 -85 49.5 -137.5t122.5 -52.5q39 0 75.5 16t55.5 31.5t31 30.5zM536 0h-58q-7 32 -7 71q-24 -31 -70.5 -57.5t-103.5 -26.5q-99 0 -167 68t-68 176q0 106 68.5 173.5t167.5 67.5q91 0 167 -74v302h62v-590 q0 -67 9 -110zM621 487l-36 1q19 75 19 212h62q0 -126 -45 -213z"/><glyph glyph-name="Dcroat" unicode="Đ" horiz-adv-x="845" d="M53 316v54h100v283h273q88 0 146.5 -23.5t108.5 -70.5q92 -92 92 -232q0 -143 -96 -237q-51 -46 -107 -68t-144 -22h-273v316h-100zM220 60h203q72 0 115 17t86 55q79 79 79 195q0 114 -76 192q-42 38 -87 56t-117 18h-203v-223h219v-54h-219v-256z"/><glyph glyph-name="dcroat" unicode="đ" horiz-adv-x="626" d="M303 559v43h162v98h62v-98h85v-43h-85v-449q0 -67 9 -110h-58q-7 32 -7 71q-24 -31 -70.5 -57.5t-103.5 -26.5q-99 0 -167 68t-68 176q0 106 68.5 173.5t167.5 67.5q91 0 167 -74v161h-162zM303 418q-73 0 -122.5 -52t-49.5 -135q0 -85 49.5 -137.5t122.5 -52.5 q39 0 75.5 16t55.5 31.5t31 30.5v222q-77 77 -162 77z"/><glyph glyph-name="Emacron" unicode="Ē" horiz-adv-x="718" d="M470 375v-59h-275v-256h476v-60h-543v653h521v-60h-454v-218h275zM265 818h250v-49h-250v49z"/><glyph glyph-name="emacron" unicode="ē" horiz-adv-x="594" d="M481 114l42 -40q-89 -87 -223 -87q-109 0 -174 68t-65 169q0 105 70 176.5t174 71.5q42 0 81.5 -13.5t73.5 -39.5t54.5 -70.5t21.5 -100.5q0 -13 -1 -20h-412v-2q0 -79 49.5 -131.5t133.5 -52.5q108 0 175 72zM302 421q-65 0 -111.5 -40.5t-61.5 -103.5h339 q-2 68 -52 106t-114 38zM179 625h250v-49h-250v49z"/><glyph glyph-name="Ebreve" unicode="Ĕ" horiz-adv-x="718" d="M470 375v-59h-275v-256h476v-60h-543v653h521v-60h-454v-218h275zM257 856h47q0 -85 86 -85t86 85h46q0 -52 -29.5 -90t-102.5 -38q-74 0 -103.5 38t-29.5 90z"/><glyph glyph-name="ebreve" unicode="ĕ" horiz-adv-x="594" d="M481 114l42 -40q-89 -87 -223 -87q-109 0 -174 68t-65 169q0 105 70 176.5t174 71.5q42 0 81.5 -13.5t73.5 -39.5t54.5 -70.5t21.5 -100.5q0 -13 -1 -20h-412v-2q0 -79 49.5 -131.5t133.5 -52.5q108 0 175 72zM302 421q-65 0 -111.5 -40.5t-61.5 -103.5h339 q-2 68 -52 106t-114 38zM171 668h47q0 -90 86 -90t86 90h46q0 -24 -6 -45.5t-19.5 -42t-41 -33t-65.5 -12.5q-73 0 -103 39.5t-30 93.5z"/><glyph glyph-name="Edotaccent" unicode="Ė" horiz-adv-x="718" d="M470 375v-59h-275v-256h476v-60h-543v653h521v-60h-454v-218h275zM390 828q17 0 29 -11.5t12 -26.5q0 -16 -12 -27t-29 -11t-28.5 11t-11.5 27q0 15 11.5 26.5t28.5 11.5z"/><glyph glyph-name="edotaccent" unicode="ė" horiz-adv-x="594" d="M481 114l42 -40q-89 -87 -223 -87q-109 0 -174 68t-65 169q0 105 70 176.5t174 71.5q42 0 81.5 -13.5t73.5 -39.5t54.5 -70.5t21.5 -100.5q0 -13 -1 -20h-412v-2q0 -79 49.5 -131.5t133.5 -52.5q108 0 175 72zM302 421q-65 0 -111.5 -40.5t-61.5 -103.5h339 q-2 68 -52 106t-114 38zM264 596q0 16 11.5 27t28.5 11t29 -11t12 -27t-12 -26.5t-29 -10.5t-28.5 10.5t-11.5 26.5z"/><glyph glyph-name="Eogonek" unicode="Ę" horiz-adv-x="718" d="M470 375v-59h-275v-256h476v-60h-71q-18 -7 -36.5 -17t-41.5 -25.5t-37.5 -36t-14.5 -41.5q0 -30 25 -47t68 -17q21 0 67 8l6 -40q-47 -10 -83 -10q-63 0 -100.5 26t-37.5 69q0 74 114 131h-401v653h521v-60h-454v-218h275z"/><glyph glyph-name="eogonek" unicode="ę" horiz-adv-x="594" d="M481 114l42 -40q-54 -53 -130 -74q-18 -7 -36.5 -17t-41.5 -25.5t-37.5 -36t-14.5 -41.5q0 -30 25 -47t68 -17q21 0 67 8l6 -40q-47 -10 -83 -10q-63 0 -100.5 26t-37.5 69q0 66 90 118q-108 1 -172.5 68.5t-64.5 168.5q0 105 70 176.5t174 71.5q42 0 81.5 -13.5 t73.5 -39.5t54.5 -70.5t21.5 -100.5q0 -13 -1 -20h-412v-2q0 -79 49.5 -131.5t133.5 -52.5q108 0 175 72zM302 421q-65 0 -111.5 -40.5t-61.5 -103.5h339q-2 68 -52 106t-114 38z"/><glyph glyph-name="Ecaron" unicode="Ě" horiz-adv-x="718" d="M470 375v-59h-275v-256h476v-60h-543v653h521v-60h-454v-218h275zM295 860l95 -85l94 85l49 -4l-109 -119h-68l-110 119z"/><glyph glyph-name="ecaron" unicode="ě" horiz-adv-x="594" d="M481 114l42 -40q-89 -87 -223 -87q-109 0 -174 68t-65 169q0 105 70 176.5t174 71.5q42 0 81.5 -13.5t73.5 -39.5t54.5 -70.5t21.5 -100.5q0 -13 -1 -20h-412v-2q0 -79 49.5 -131.5t133.5 -52.5q108 0 175 72zM302 421q-65 0 -111.5 -40.5t-61.5 -103.5h339 q-2 68 -52 106t-114 38zM160 670l49 3l95 -92l94 92l49 -3l-109 -126h-68z"/><glyph glyph-name="Gcircumflex" unicode="Ĝ" horiz-adv-x="817" d="M711 564l-47 -42q-45 40 -108.5 63.5t-128.5 23.5q-122 0 -205.5 -82.5t-83.5 -200.5q0 -116 83 -199t212 -83q63 0 124 20t103 54v172h-219v59h280v-263q-59 -47 -136 -74.5t-156 -27.5q-152 0 -256.5 100.5t-104.5 242.5t104.5 241.5t254.5 99.5q160 0 284 -104z M284 740l110 119h68l109 -119l-49 -4l-94 86l-95 -86z"/><glyph glyph-name="gcircumflex" unicode="ĝ" horiz-adv-x="626" d="M465 -33v100q-78 -80 -172 -80q-96 0 -163.5 67.5t-67.5 173.5q0 108 69.5 176t170.5 68q55 0 100 -27t69 -59q0 40 11 74h58q-13 -45 -13 -110v-383q0 -84 -59.5 -139t-168.5 -55q-134 0 -208 81l38 37q61 -66 170 -66q79 0 122.5 40t43.5 102zM299 41q87 0 166 77v222 q-13 16 -30.5 31t-53.5 31t-74 16q-74 0 -125 -53t-51 -137q0 -83 48.5 -135t119.5 -52zM169 547l110 125h68l109 -125l-49 -4l-94 92l-95 -92z"/><glyph glyph-name="Gbreve" unicode="Ğ" horiz-adv-x="817" d="M711 564l-47 -42q-45 40 -108.5 63.5t-128.5 23.5q-122 0 -205.5 -82.5t-83.5 -200.5q0 -116 83 -199t212 -83q63 0 124 20t103 54v172h-219v59h280v-263q-59 -47 -136 -74.5t-156 -27.5q-152 0 -256.5 100.5t-104.5 242.5t104.5 241.5t254.5 99.5q160 0 284 -104z M295 856h47q0 -85 86 -85t86 85h46q0 -52 -29.5 -90t-102.5 -38q-74 0 -103.5 38t-29.5 90z"/><glyph glyph-name="gbreve" unicode="ğ" horiz-adv-x="626" d="M465 -33v100q-78 -80 -172 -80q-96 0 -163.5 67.5t-67.5 173.5q0 108 69.5 176t170.5 68q55 0 100 -27t69 -59q0 40 11 74h58q-13 -45 -13 -110v-383q0 -84 -59.5 -139t-168.5 -55q-134 0 -208 81l38 37q61 -66 170 -66q79 0 122.5 40t43.5 102zM299 41q87 0 166 77v222 q-13 16 -30.5 31t-53.5 31t-74 16q-74 0 -125 -53t-51 -137q0 -83 48.5 -135t119.5 -52zM180 668h47q0 -90 86 -90t86 90h46q0 -24 -6 -45.5t-19.5 -42t-41 -33t-65.5 -12.5q-73 0 -103 39.5t-30 93.5z"/><glyph glyph-name="Gdotaccent" unicode="Ġ" horiz-adv-x="817" d="M711 564l-47 -42q-45 40 -108.5 63.5t-128.5 23.5q-122 0 -205.5 -82.5t-83.5 -200.5q0 -116 83 -199t212 -83q63 0 124 20t103 54v172h-219v59h280v-263q-59 -47 -136 -74.5t-156 -27.5q-152 0 -256.5 100.5t-104.5 242.5t104.5 241.5t254.5 99.5q160 0 284 -104z M428 828q17 0 29 -11.5t12 -26.5q0 -16 -12 -27t-29 -11t-28.5 11t-11.5 27q0 15 11.5 26.5t28.5 11.5z"/><glyph glyph-name="gdotaccent" unicode="ġ" horiz-adv-x="626" d="M465 -33v100q-78 -80 -172 -80q-96 0 -163.5 67.5t-67.5 173.5q0 108 69.5 176t170.5 68q55 0 100 -27t69 -59q0 40 11 74h58q-13 -45 -13 -110v-383q0 -84 -59.5 -139t-168.5 -55q-134 0 -208 81l38 37q61 -66 170 -66q79 0 122.5 40t43.5 102zM299 41q87 0 166 77v222 q-13 16 -30.5 31t-53.5 31t-74 16q-74 0 -125 -53t-51 -137q0 -83 48.5 -135t119.5 -52zM273 596q0 16 11.5 27t28.5 11t29 -11t12 -27t-12 -26.5t-29 -10.5t-28.5 10.5t-11.5 26.5z"/><glyph glyph-name="uni0122" unicode="Ģ" horiz-adv-x="817" d="M711 564l-47 -42q-45 40 -108.5 63.5t-128.5 23.5q-122 0 -205.5 -82.5t-83.5 -200.5q0 -116 83 -199t212 -83q63 0 124 20t103 54v172h-219v59h280v-263q-59 -47 -136 -74.5t-156 -27.5q-152 0 -256.5 100.5t-104.5 242.5t104.5 241.5t254.5 99.5q160 0 284 -104z M420 -58l49 15q53 -41 53 -93q0 -46 -40 -73.5t-108 -27.5q-36 0 -75 9l6 39q33 -5 59 -5q47 0 73 16.5t26 46.5q0 40 -43 73z"/><glyph glyph-name="uni0123" unicode="ģ" horiz-adv-x="626" d="M333 552l-49 -13q-57 41 -57 93q0 46 39 73.5t106 27.5q29 0 59 -6v-39q-24 4 -53 4q-43 0 -67.5 -16.5t-24.5 -47.5q0 -40 47 -76zM465 -33v100q-78 -80 -172 -80q-96 0 -163.5 67.5t-67.5 173.5q0 108 69.5 176t170.5 68q55 0 100 -27t69 -59q0 40 11 74h58 q-13 -45 -13 -110v-383q0 -84 -59.5 -139t-168.5 -55q-134 0 -208 81l38 37q61 -66 170 -66q79 0 122.5 40t43.5 102zM299 41q87 0 166 77v222q-13 16 -30.5 31t-53.5 31t-74 16q-74 0 -125 -53t-51 -137q0 -83 48.5 -135t119.5 -52z"/><glyph glyph-name="Hcircumflex" unicode="Ĥ" horiz-adv-x="826" d="M195 0h-67v653h67v-270h436v270h67v-653h-67v324h-436v-324zM268 740l110 119h68l109 -119l-49 -4l-94 86l-95 -86z"/><glyph glyph-name="hcircumflex" unicode="ĥ" horiz-adv-x="604" d="M37 758l-49 3l110 119h67l110 -119l-49 -3l-94 85zM160 0h-62v700h62v-308q74 80 172 80q81 0 131.5 -45t50.5 -115v-312h-63v312q0 45 -35 75.5t-90 30.5q-88 0 -166 -82v-336z"/><glyph glyph-name="Hbar" unicode="Ħ" horiz-adv-x="834" d="M32 474v54h100v125h67v-125h436v125h67v-125h100v-54h-100v-474h-67v296h-436v-296h-67v474h-100zM199 356h436v118h-436v-118z"/><glyph glyph-name="hbar" unicode="ħ" horiz-adv-x="604" d="M13 559v43h85v98h62v-98h162v-43h-162v-167q74 80 172 80q81 0 131.5 -45t50.5 -115v-312h-63v312q0 45 -35 75.5t-90 30.5q-88 0 -166 -82v-336h-62v559h-85z"/><glyph glyph-name="Itilde" unicode="Ĩ" horiz-adv-x="323" d="M195 0h-67v653h67v-653zM42 741l-41 22q44 72 93 72q28 0 68 -30q37 -27 59 -27q25 0 57 46l38 -21q-43 -73 -93 -73q-35 0 -70 27q-40 31 -55 31q-4 0 -7.5 -1t-6 -2t-6 -3.5t-6 -4t-6 -5t-5 -5.5l-5 -6.5t-4.5 -6t-5 -7t-5 -6.5z"/><glyph glyph-name="itilde" unicode="ĩ" horiz-adv-x="257" d="M160 0h-62v459h62v-459zM10 547l-41 23q44 72 93 72q26 0 68 -30q36 -28 58 -28q11 0 22.5 8t17.5 16l17 23l39 -22q-44 -72 -93 -72q-34 0 -71 27q-39 30 -55 30q-11 0 -22 -9t-15.5 -14.5t-17.5 -23.5z"/><glyph glyph-name="Imacron" unicode="Ī" horiz-adv-x="323" d="M195 0h-67v653h67v-653zM36 818h250v-49h-250v49z"/><glyph glyph-name="imacron" unicode="ī" horiz-adv-x="257" d="M160 0h-62v459h62v-459zM4 625h250v-49h-250v49z"/><glyph glyph-name="Ibreve" unicode="Ĭ" horiz-adv-x="323" d="M195 0h-67v653h67v-653zM28 856h47q0 -85 86 -85q48 0 67.5 25t19.5 60h46q0 -52 -29.5 -90t-103.5 -38q-73 0 -103 38t-30 90z"/><glyph glyph-name="ibreve" unicode="ĭ" horiz-adv-x="257" d="M160 0h-62v459h62v-459zM-4 668h47q0 -90 86 -90t86 90h46q0 -24 -6 -45.5t-19.5 -42t-41 -33t-65.5 -12.5q-73 0 -103 39.5t-30 93.5z"/><glyph glyph-name="Iogonek" unicode="Į" horiz-adv-x="323" d="M195 0q-129 -54 -129 -120q0 -30 24.5 -47t67.5 -17q21 0 67 8l6 -40q-45 -10 -82 -10q-64 0 -101 25.5t-37 69.5q0 75 117 132v652h67v-653z"/><glyph glyph-name="iogonek" unicode="į" horiz-adv-x="257" d="M160 0q-18 -7 -36.5 -17t-41.5 -25.5t-37.5 -36t-14.5 -41.5q0 -30 25 -47t68 -17q21 0 67 8l6 -40q-47 -10 -83 -10q-63 0 -100.5 26t-37.5 69q0 77 123 135v455h62v-459zM86 641q0 17 12 28.5t30 11.5q19 0 31 -11.5t12 -28.5t-12 -28t-31 -11q-18 0 -30 11.5t-12 27.5 z"/><glyph glyph-name="Idotaccent" unicode="İ" horiz-adv-x="323" d="M195 0h-67v653h67v-653zM161 828q18 0 29.5 -11.5t11.5 -26.5q0 -17 -11.5 -27.5t-29.5 -10.5q-17 0 -28.5 11t-11.5 27q0 15 11.5 26.5t28.5 11.5z"/><glyph glyph-name="dotlessi" unicode="ı" horiz-adv-x="257" d="M160 0h-62v459h62v-459z"/><glyph glyph-name="IJ" unicode="Ĳ" horiz-adv-x="996" d="M195 0h-67v653h67v-653zM815 653h67v-421q0 -116 -76.5 -182t-198.5 -66q-58 0 -104 15t-75.5 42t-46.5 51t-32 55l55 29q60 -132 202 -132q93 0 151 49.5t58 138.5v421z"/><glyph glyph-name="ij" unicode="ĳ" horiz-adv-x="515" d="M160 0h-62v459h62v-459zM86 641q0 17 12 28.5t30 11.5q19 0 31 -11.5t12 -28.5t-12 -28t-31 -11q-18 0 -30 11.5t-12 27.5zM262 -227l-17 49q110 13 110 124v513h62v-513q0 -88 -47.5 -130.5t-107.5 -42.5zM343 641q0 17 12 28.5t30 11.5q19 0 31 -11.5t12 -28.5t-12 -28 t-31 -11q-18 0 -30 11.5t-12 27.5z"/><glyph glyph-name="Jcircumflex" unicode="Ĵ" horiz-adv-x="673" d="M492 653h67v-421q0 -116 -76.5 -182t-198.5 -66q-58 0 -104 15t-75.5 42t-46.5 51t-32 55l55 29q60 -132 202 -132q93 0 151 49.5t58 138.5v421zM383 740l111 119h67l110 -119l-50 -4l-94 86l-94 -86z"/><glyph glyph-name="jcircumflex" unicode="ĵ" horiz-adv-x="257" d="M5 -227l-17 49q110 13 110 124v513h62v-513q0 -88 -47.5 -130.5t-107.5 -42.5zM-15 547l110 125h68l109 -125l-49 -4l-94 92l-95 -92z"/><glyph glyph-name="uni0136" unicode="Ķ" horiz-adv-x="747" d="M592 653h82l-254 -248l307 -405h-86l-269 359l-177 -175v-184h-67v653h67v-394zM376 -58l49 15q53 -41 53 -93q0 -46 -40 -73.5t-108 -27.5q-36 0 -75 9l6 39q33 -5 59 -5q47 0 73 16.5t26 46.5q0 40 -43 73z"/><glyph glyph-name="uni0137" unicode="ķ" horiz-adv-x="556" d="M426 459h84l-187 -161l216 -298h-77l-185 258l-117 -102v-156h-62v700h62v-477zM263 -56l49 13q57 -43 57 -93q0 -46 -39 -73.5t-106 -27.5q-35 0 -59 6v39q24 -4 53 -4q43 0 67.5 16.5t24.5 46.5q0 39 -47 77z"/><glyph glyph-name="kgreenlandic" unicode="ĸ" horiz-adv-x="556" d="M426 460h84l-187 -162l216 -298h-77l-185 258l-117 -101v-157h-62v460h62v-237z"/><glyph glyph-name="Lacute" unicode="Ĺ" horiz-adv-x="637" d="M128 653h67v-593h420v-60h-487v653zM96 740l131 118l82 -3l-156 -119z"/><glyph glyph-name="lacute" unicode="ĺ" horiz-adv-x="274" d="M106 0v700h62v-700h-62zM72 761l136 119l77 -4l-156 -118z"/><glyph glyph-name="uni013B" unicode="Ļ" horiz-adv-x="637" d="M128 653h67v-593h420v-60h-487v653zM321 -58l49 15q53 -41 53 -93q0 -46 -40 -73.5t-108 -27.5q-36 0 -75 9l6 39q33 -5 59 -5q47 0 73 16.5t26 46.5q0 40 -43 73z"/><glyph glyph-name="uni013C" unicode="ļ" horiz-adv-x="274" d="M168 0h-62v700h62v-700zM136 -56l49 13q57 -43 57 -93q0 -46 -39 -73.5t-106 -27.5q-35 0 -59 6v39q24 -4 53 -4q43 0 67.5 16.5t24.5 46.5q0 39 -47 77z"/><glyph glyph-name="Lcaron" unicode="Ľ" horiz-adv-x="637" d="M128 0v653h67v-593h420v-60h-487zM361 487l-37 1q20 73 20 212h62q0 -126 -45 -213z"/><glyph glyph-name="lcaron" unicode="ľ" horiz-adv-x="274" d="M168 0h-62v700h62v-700zM261 487l-36 1q20 79 20 212h62q0 -126 -46 -213z"/><glyph glyph-name="Ldot" unicode="Ŀ" horiz-adv-x="657" d="M128 653h67v-593h420v-60h-487v653zM469 429q17 0 29 -11.5t12 -26.5q0 -16 -12 -27t-29 -11t-28.5 11t-11.5 27q0 15 11.5 26.5t28.5 11.5z"/><glyph glyph-name="ldot" unicode="ŀ" horiz-adv-x="297" d="M231 364q0 16 11.5 27t28.5 11t29 -11.5t12 -26.5q0 -16 -12 -27t-29 -11t-28.5 11t-11.5 27zM168 0h-62v700h62v-700z"/><glyph glyph-name="Lslash" unicode="Ł" horiz-adv-x="655" d="M146 653h67v-279l200 116l3 -53l-203 -118v-259h420v-60h-487v281l-100 -58l-3 53l103 59v318z"/><glyph glyph-name="lslash" unicode="ł" horiz-adv-x="307" d="M185 0h-62v330l-76 -44l-22 37l98 57v320h62v-284l91 53l22 -37l-113 -66v-366z"/><glyph glyph-name="Nacute" unicode="Ń" horiz-adv-x="831" d="M636 653h67v-653h-63l-444 538h-1v-538h-67v653h63l444 -538h1v538zM350 740l131 118l82 -3l-156 -119z"/><glyph glyph-name="nacute" unicode="ń" horiz-adv-x="606" d="M161 0h-62v350q0 56 -14 109h57q11 -32 13 -73q80 86 183 86q77 0 127 -45t50 -115v-312h-63v312q0 45 -34.5 75.5t-89.5 30.5q-89 0 -167 -82v-336zM342 690l70 -2l-103 -146l-56 2z"/><glyph glyph-name="uni0145" unicode="Ņ" horiz-adv-x="831" d="M636 653h67v-653h-63l-444 538h-1v-538h-67v653h63l444 -538h1v538zM406 -58l49 15q53 -41 53 -93q0 -46 -40 -73.5t-108 -27.5q-36 0 -75 9l6 39q33 -5 59 -5q47 0 73 16.5t26 46.5q0 40 -43 73z"/><glyph glyph-name="uni0146" unicode="ņ" horiz-adv-x="606" d="M161 0h-62v350q0 56 -14 109h57q11 -32 13 -73q80 86 183 86q77 0 127 -45t50 -115v-312h-63v312q0 45 -34.5 75.5t-89.5 30.5q-89 0 -167 -82v-336zM289 -56l49 13q57 -43 57 -93q0 -46 -39 -73.5t-106 -27.5q-35 0 -59 6v39q24 -4 53 -4q43 0 67.5 16.5t24.5 46.5 q0 39 -47 77z"/><glyph glyph-name="Ncaron" unicode="Ň" horiz-adv-x="831" d="M636 653h67v-653h-63l-444 538h-1v-538h-67v653h63l444 -538h1v538zM320 860l95 -85l94 85l49 -4l-109 -119h-68l-110 119z"/><glyph glyph-name="ncaron" unicode="ň" horiz-adv-x="606" d="M161 0h-62v350q0 56 -14 109h57q11 -32 13 -73q80 86 183 86q77 0 127 -45t50 -115v-312h-63v312q0 45 -34.5 75.5t-89.5 30.5q-89 0 -167 -82v-336zM158 670l49 3l95 -92l94 92l49 -3l-109 -126h-68z"/><glyph glyph-name="napostrophe" unicode="ŉ" horiz-adv-x="606" d="M-4 519l-21 32q33 11 60.5 35.5t27.5 58.5q0 23 -20 30q-14 -4 -21 -4q-14 0 -24 9.5t-10 23.5q0 16 11 25.5t28 9.5q33 0 57 -23.5t24 -58.5q0 -94 -112 -138zM161 0h-62v350q0 56 -14 109h57q11 -32 13 -73q80 86 183 86q77 0 127 -45t50 -115v-312h-63v312 q0 45 -34.5 75.5t-89.5 30.5q-89 0 -167 -82v-336z"/><glyph glyph-name="Eng" unicode="Ŋ" horiz-adv-x="831" d="M636 115v538h67v-633q0 -116 -76.5 -181.5t-198.5 -65.5v59q89 0 146.5 47t61.5 130h-3l-437 529h-1v-538h-67v653h63l444 -538h1z"/><glyph glyph-name="eng" unicode="ŋ" horiz-adv-x="606" d="M515 312v-366q0 -88 -47.5 -130.5t-108.5 -42.5l-16 49q109 13 109 124v366q0 45 -34.5 75.5t-89.5 30.5q-89 0 -167 -82v-336h-62v350q0 56 -14 109h57q11 -32 13 -73q80 86 183 86q77 0 127 -45t50 -115z"/><glyph glyph-name="Omacron" unicode="Ō" horiz-adv-x="855" d="M68 328q0 141 104 240.5t254 99.5q151 0 256 -99.5t105 -240.5q0 -143 -105 -243.5t-256 -100.5q-150 0 -254 100.5t-104 243.5zM139 328q0 -118 83.5 -201t203.5 -83q122 0 206.5 83t84.5 201q0 117 -84.5 199t-206.5 82q-120 0 -203.5 -82t-83.5 -199zM302 818h250v-49 h-250v49z"/><glyph glyph-name="omacron" unicode="ō" horiz-adv-x="617" d="M61 231q0 101 71 171t176 70t176.5 -70t71.5 -171q0 -103 -71.5 -173.5t-176.5 -70.5t-176 70.5t-71 173.5zM126 231q0 -80 52 -136t130 -56q79 0 131.5 56t52.5 136q0 78 -53 134t-131 56t-130 -56t-52 -134zM183 625h250v-49h-250v49z"/><glyph glyph-name="Obreve" unicode="Ŏ" horiz-adv-x="855" d="M68 328q0 141 104 240.5t254 99.5q151 0 256 -99.5t105 -240.5q0 -143 -105 -243.5t-256 -100.5q-150 0 -254 100.5t-104 243.5zM139 328q0 -118 83.5 -201t203.5 -83q122 0 206.5 83t84.5 201q0 117 -84.5 199t-206.5 82q-120 0 -203.5 -82t-83.5 -199zM294 856h47 q0 -85 86 -85t86 85h46q0 -52 -29.5 -90t-102.5 -38q-74 0 -103.5 38t-29.5 90z"/><glyph glyph-name="obreve" unicode="ŏ" horiz-adv-x="617" d="M61 231q0 101 71 171t176 70t176.5 -70t71.5 -171q0 -103 -71.5 -173.5t-176.5 -70.5t-176 70.5t-71 173.5zM126 231q0 -80 52 -136t130 -56q79 0 131.5 56t52.5 136q0 78 -53 134t-131 56t-130 -56t-52 -134zM175 668h47q0 -90 86 -90t86 90h46q0 -24 -6 -45.5 t-19.5 -42t-41 -33t-65.5 -12.5q-73 0 -103 39.5t-30 93.5z"/><glyph glyph-name="Ohungarumlaut" unicode="Ő" horiz-adv-x="855" d="M68 328q0 141 104 240.5t254 99.5q151 0 256 -99.5t105 -240.5q0 -143 -105 -243.5t-256 -100.5q-150 0 -254 100.5t-104 243.5zM139 328q0 -118 83.5 -201t203.5 -83q122 0 206.5 83t84.5 201q0 117 -84.5 199t-206.5 82q-120 0 -203.5 -82t-83.5 -199zM350 731l-41 2 l58 136l57 -2zM517 731l-40 2l58 136l57 -2z"/><glyph glyph-name="ohungarumlaut" unicode="ő" horiz-adv-x="617" d="M61 231q0 101 71 171t176 70t176.5 -70t71.5 -171q0 -103 -71.5 -173.5t-176.5 -70.5t-176 70.5t-71 173.5zM126 231q0 -80 52 -136t130 -56q79 0 131.5 56t52.5 136q0 78 -53 134t-131 56t-130 -56t-52 -134zM231 537l-41 3l58 136l57 -3zM398 537l-40 3l58 136l57 -3z"/><glyph glyph-name="OE" unicode="Œ" horiz-adv-x="1308" d="M1260 60v-60h-543v164q-37 -85 -117 -132.5t-179 -47.5q-148 0 -250.5 100.5t-102.5 243.5q0 141 103 240.5t250 99.5q99 0 179 -46.5t117 -131.5v163h521v-60h-454v-220h275v-60h-275v-253h476zM139 328q0 -118 82 -201t200 -83q124 0 210 83t86 201q0 117 -86.5 199 t-209.5 82q-118 0 -200 -82t-82 -199z"/><glyph glyph-name="oe" unicode="œ" horiz-adv-x="1024" d="M912 114l41 -40q-87 -87 -220 -87q-77 0 -135 39t-78 101q-23 -61 -83.5 -100.5t-129.5 -39.5q-101 0 -173.5 71t-72.5 173q0 100 73 170.5t173 70.5q71 0 132.5 -41t83.5 -104q21 64 79.5 104.5t130.5 40.5q45 0 86.5 -14.5t76 -42.5t54 -76.5t16.5 -110.5h-411 q0 -14 3 -35q8 -65 55.5 -108t119.5 -43q110 0 179 72zM125 231q0 -80 52 -136t130 -56t131 55.5t53 136.5q0 78 -52.5 134t-131.5 56q-78 0 -130 -56t-52 -134zM733 421q-65 0 -111.5 -40t-61.5 -104h338q-1 68 -51 106t-114 38z"/><glyph glyph-name="Racute" unicode="Ŕ" horiz-adv-x="794" d="M195 0h-67v653h359q119 0 178 -64q49 -52 49 -125q0 -67 -43 -116t-115 -62l164 -286h-76l-156 278h-293v-278zM487 593h-292v-256h316q60 0 98 37.5t38 90.5q0 49 -34 85q-42 43 -126 43zM332 740l131 118l82 -3l-156 -119z"/><glyph glyph-name="racute" unicode="ŕ" horiz-adv-x="392" d="M161 0h-62v350q0 57 -15 109h58q11 -34 13 -81q64 94 144 94q52 0 73 -27l-21 -55q-21 22 -65 22q-61 0 -125 -88v-324zM236 690l70 -2l-103 -146l-56 2z"/><glyph glyph-name="uni0156" unicode="Ŗ" horiz-adv-x="794" d="M195 0h-67v653h359q119 0 178 -64q49 -52 49 -125q0 -67 -43 -116t-115 -62l164 -286h-76l-156 278h-293v-278zM487 593h-292v-256h316q60 0 98 37.5t38 90.5q0 49 -34 85q-42 43 -126 43zM399 -58l49 15q53 -41 53 -93q0 -46 -40 -73.5t-108 -27.5q-36 0 -75 9l6 39 q33 -5 59 -5q47 0 73 16.5t26 46.5q0 40 -43 73z"/><glyph glyph-name="uni0157" unicode="ŗ" horiz-adv-x="392" d="M161 0h-62v350q0 57 -15 109h58q11 -34 13 -81q64 94 144 94q52 0 73 -27l-21 -55q-21 22 -65 22q-61 0 -125 -88v-324zM148 -56l49 13q57 -43 57 -93q0 -46 -39 -73.5t-106 -27.5q-35 0 -59 6v39q24 -4 53 -4q43 0 67.5 16.5t24.5 46.5q0 39 -47 77z"/><glyph glyph-name="Rcaron" unicode="Ř" horiz-adv-x="794" d="M195 0h-67v653h359q119 0 178 -64q49 -52 49 -125q0 -67 -43 -116t-115 -62l164 -286h-76l-156 278h-293v-278zM487 593h-292v-256h316q60 0 98 37.5t38 90.5q0 49 -34 85q-42 43 -126 43zM302 860l95 -85l94 85l49 -4l-109 -119h-68l-110 119z"/><glyph glyph-name="rcaron" unicode="ř" horiz-adv-x="392" d="M161 0h-62v350q0 57 -15 109h58q11 -34 13 -81q64 94 144 94q52 0 73 -27l-21 -55q-21 22 -65 22q-61 0 -125 -88v-324zM52 670l49 3l95 -92l94 92l49 -3l-109 -126h-68z"/><glyph glyph-name="Sacute" unicode="Ś" horiz-adv-x="744" d="M635 573l-41 -46q-36 34 -100 59t-146 25q-76 0 -132 -31t-56 -95q0 -23 8 -39.5t27.5 -27.5t35.5 -17.5t49.5 -10.5t51 -5.5t56.5 -3.5q34 -2 53 -3.5t54.5 -7t57 -13t49.5 -21.5t44 -32.5t27 -46.5t11 -63q0 -104 -83.5 -157t-210.5 -53q-190 0 -333 133l41 46 q130 -121 293 -121q98 0 162 36.5t64 107.5q0 32 -14 55t-34 36t-54 21.5t-60 11.5t-67 6q-39 2 -60.5 4t-57.5 6.5t-57 11t-47 19t-39.5 28.5t-23.5 40.5t-10 54.5q0 51 23.5 89t63 59t82.5 30.5t89 9.5q90 0 164.5 -29t119.5 -66zM307 740l131 118l82 -3l-156 -119z"/><glyph glyph-name="sacute" unicode="ś" horiz-adv-x="547" d="M458 415l-25 -47q-28 20 -76 37t-98 17t-87 -20t-37 -59q0 -22 12.5 -36.5t38 -21t43.5 -8.5t50 -4q28 -1 44 -2.5t45.5 -6.5t48 -14t38 -23t29 -36.5t9.5 -52.5q0 -74 -61 -113t-155 -39q-121 0 -222 72l25 47q97 -68 196 -68q67 0 111 25t44 71q0 25 -14 42t-41 24.5 t-46.5 10t-50.5 4.5l-41.5 3t-40 4.5t-40 8.5t-32.5 14t-28.5 21t-16.5 30t-7 41q0 72 55.5 105t129.5 33q60 0 114.5 -18.5t85.5 -40.5zM313 690l70 -2l-103 -146l-56 2z"/><glyph glyph-name="Scircumflex" unicode="Ŝ" horiz-adv-x="744" d="M635 573l-41 -46q-36 34 -100 59t-146 25q-76 0 -132 -31t-56 -95q0 -23 8 -39.5t27.5 -27.5t35.5 -17.5t49.5 -10.5t51 -5.5t56.5 -3.5q34 -2 53 -3.5t54.5 -7t57 -13t49.5 -21.5t44 -32.5t27 -46.5t11 -63q0 -104 -83.5 -157t-210.5 -53q-190 0 -333 133l41 46 q130 -121 293 -121q98 0 162 36.5t64 107.5q0 32 -14 55t-34 36t-54 21.5t-60 11.5t-67 6q-39 2 -60.5 4t-57.5 6.5t-57 11t-47 19t-39.5 28.5t-23.5 40.5t-10 54.5q0 51 23.5 89t63 59t82.5 30.5t89 9.5q90 0 164.5 -29t119.5 -66zM228 740l110 119h68l109 -119l-49 -4 l-94 86l-95 -86z"/><glyph glyph-name="scircumflex" unicode="ŝ" horiz-adv-x="547" d="M458 415l-25 -47q-28 20 -76 37t-98 17t-87 -20t-37 -59q0 -22 12.5 -36.5t38 -21t43.5 -8.5t50 -4q28 -1 44 -2.5t45.5 -6.5t48 -14t38 -23t29 -36.5t9.5 -52.5q0 -74 -61 -113t-155 -39q-121 0 -222 72l25 47q97 -68 196 -68q67 0 111 25t44 71q0 25 -14 42t-41 24.5 t-46.5 10t-50.5 4.5l-41.5 3t-40 4.5t-40 8.5t-32.5 14t-28.5 21t-16.5 30t-7 41q0 72 55.5 105t129.5 33q60 0 114.5 -18.5t85.5 -40.5zM129 547l110 125h68l109 -125l-49 -4l-94 92l-95 -92z"/><glyph glyph-name="Scedilla" unicode="Ş" horiz-adv-x="744" d="M636 573l-41 -46q-36 34 -100 59t-146 25q-76 0 -132 -31t-56 -95q0 -23 8 -39.5t27.5 -27.5t35.5 -17.5t49.5 -10.5t51 -5.5t56.5 -3.5q34 -2 53 -3.5t54.5 -7t57 -13t49.5 -21.5t44 -32.5t27 -46.5t11 -63q0 -103 -81.5 -155.5t-207.5 -54.5l-18 -51q28 8 48 8 q38 0 66.5 -19t28.5 -57q0 -42 -43 -66.5t-112 -24.5q-51 0 -147 24l11 36q86 -21 134 -21q45 0 72.5 13.5t27.5 38.5q0 43 -59 43q-17 0 -55 -9l-20 22l24 64q-168 12 -296 132l41 46q130 -121 293 -121q98 0 162 36.5t64 107.5q0 32 -14 55t-34 36t-54 21.5t-60 11.5 t-67 6q-39 2 -60.5 4t-57.5 6.5t-57 11t-47 19t-39.5 28.5t-23.5 40.5t-10 54.5q0 51 23.5 89t63 59t82.5 30.5t89 9.5q90 0 164.5 -29t119.5 -66z"/><glyph glyph-name="scedilla" unicode="ş" horiz-adv-x="547" d="M458 415l-25 -47q-28 20 -76 37t-98 17t-87 -20t-37 -59q0 -22 12.5 -36.5t38 -21t43.5 -8.5t50 -4q28 -1 44 -2.5t45.5 -6.5t48 -14t38 -23t29 -36.5t9.5 -52.5q0 -71 -56 -109.5t-144 -41.5l-18 -54q28 8 48 8q38 0 66.5 -19t28.5 -57q0 -42 -43 -66.5t-112 -24.5 q-51 0 -147 24l11 36q86 -21 134 -21q45 0 72.5 13.5t27.5 38.5q0 43 -59 43q-17 0 -55 -9l-20 22l24 66q-107 6 -196 71l25 47q97 -68 196 -68q67 0 111 25t44 71q0 25 -14 42t-41 24.5t-46.5 10t-50.5 4.5l-41.5 3t-40 4.5t-40 8.5t-32.5 14t-28.5 21t-16.5 30t-7 41 q0 72 55.5 105t129.5 33q60 0 114.5 -18.5t85.5 -40.5z"/><glyph glyph-name="Scaron" unicode="Š" horiz-adv-x="744" d="M635 573l-41 -46q-36 34 -100 59t-146 25q-76 0 -132 -31t-56 -95q0 -23 8 -39.5t27.5 -27.5t35.5 -17.5t49.5 -10.5t51 -5.5t56.5 -3.5q34 -2 53 -3.5t54.5 -7t57 -13t49.5 -21.5t44 -32.5t27 -46.5t11 -63q0 -104 -83.5 -157t-210.5 -53q-190 0 -333 133l41 46 q130 -121 293 -121q98 0 162 36.5t64 107.5q0 32 -14 55t-34 36t-54 21.5t-60 11.5t-67 6q-39 2 -60.5 4t-57.5 6.5t-57 11t-47 19t-39.5 28.5t-23.5 40.5t-10 54.5q0 51 23.5 89t63 59t82.5 30.5t89 9.5q90 0 164.5 -29t119.5 -66zM277 860l95 -85l94 85l49 -4l-109 -119 h-68l-110 119z"/><glyph glyph-name="scaron" unicode="š" horiz-adv-x="547" d="M458 415l-25 -47q-28 20 -76 37t-98 17t-87 -20t-37 -59q0 -22 12.5 -36.5t38 -21t43.5 -8.5t50 -4q28 -1 44 -2.5t45.5 -6.5t48 -14t38 -23t29 -36.5t9.5 -52.5q0 -74 -61 -113t-155 -39q-121 0 -222 72l25 47q97 -68 196 -68q67 0 111 25t44 71q0 25 -14 42t-41 24.5 t-46.5 10t-50.5 4.5l-41.5 3t-40 4.5t-40 8.5t-32.5 14t-28.5 21t-16.5 30t-7 41q0 72 55.5 105t129.5 33q60 0 114.5 -18.5t85.5 -40.5zM129 670l49 3l95 -92l94 92l49 -3l-109 -126h-68z"/><glyph glyph-name="uni0162" unicode="Ţ" horiz-adv-x="635" d="M32 593v60h571v-60h-252v-593l-24 -67q28 8 48 8q38 0 66.5 -19t28.5 -57q0 -42 -43 -66.5t-112 -24.5q-51 0 -147 24l11 36q86 -21 134 -21q45 0 72.5 13.5t27.5 38.5q0 43 -59 43q-17 0 -55 -9l-20 22l29 79h-24v593h-252z"/><glyph glyph-name="uni0163" unicode="ţ" horiz-adv-x="386" d="M31 410v49h95v141h62v-141h152v-49h-152v-297q0 -37 20.5 -55.5t51.5 -18.5q52 0 84 21l9 -48q-15 -11 -45.5 -19.5t-58.5 -8.5q-7 0 -21 2l-18 -53q28 8 48 8q38 0 66.5 -19t28.5 -57q0 -42 -43 -66.5t-112 -24.5q-51 0 -147 24l11 36q86 -21 134 -21q45 0 72.5 13.5 t27.5 38.5q0 43 -59 43q-17 0 -55 -9l-20 22l28 76q-64 28 -64 116v297h-95z"/><glyph glyph-name="Tcaron" unicode="Ť" horiz-adv-x="635" d="M32 593v60h571v-60h-252v-593h-67v593h-252zM222 860l95 -85l94 85l49 -4l-109 -119h-68l-110 119z"/><glyph glyph-name="tcaron" unicode="ť" horiz-adv-x="386" d="M31 410v49h95v141h62v-141h152v-49h-152v-297q0 -37 20.5 -55.5t51.5 -18.5q52 0 84 21l9 -48q-15 -11 -45.5 -19.5t-58.5 -8.5q-49 0 -86 31t-37 98v297h-95zM314 528q-36 0 -36 2q20 77 20 211h62q0 -125 -46 -213z"/><glyph glyph-name="Tbar" unicode="Ŧ" horiz-adv-x="635" d="M32 593v60h571v-60h-252v-223h150v-54h-150v-316h-67v316h-150v54h150v223h-252z"/><glyph glyph-name="tbar" unicode="ŧ" horiz-adv-x="386" d="M31 410v49h95v141h62v-141h152v-49h-152v-146h152v-43h-152v-108q0 -37 20.5 -55.5t51.5 -18.5q52 0 84 21l9 -48q-15 -11 -45.5 -19.5t-58.5 -8.5q-49 0 -86 31t-37 98v108h-95v43h95v146h-95z"/><glyph glyph-name="Utilde" unicode="Ũ" horiz-adv-x="798" d="M617 653h67v-421q0 -116 -80 -182t-206 -66q-125 0 -204.5 66t-79.5 182v421h67v-421q0 -88 61 -138t156 -50q97 0 158 50t61 138v421zM279 741l-41 22q44 72 93 72q26 0 68 -30q35 -27 58 -27q25 0 57 46l39 -21q-43 -73 -93 -73q-34 0 -71 27q-38 31 -55 31 q-23 0 -55 -47z"/><glyph glyph-name="utilde" unicode="ũ" horiz-adv-x="605" d="M444 459h62v-349q0 -67 8 -110h-57q-7 32 -7 73q-82 -86 -182 -86q-77 0 -127.5 45t-50.5 115v312h63v-312q0 -45 35 -75.5t89 -30.5q89 0 167 82v336zM183 547l-41 23q44 72 93 72q26 0 68 -30q36 -28 58 -28q11 0 22.5 8t17.5 16l17 23l39 -22q-44 -72 -93 -72 q-34 0 -71 27q-39 30 -55 30q-23 0 -55 -47z"/><glyph glyph-name="Umacron" unicode="Ū" horiz-adv-x="798" d="M617 653h67v-421q0 -116 -80 -182t-206 -66q-125 0 -204.5 66t-79.5 182v421h67v-421q0 -88 61 -138t156 -50q97 0 158 50t61 138v421zM273 818h250v-49h-250v49z"/><glyph glyph-name="umacron" unicode="ū" horiz-adv-x="605" d="M444 459h62v-349q0 -67 8 -110h-57q-7 32 -7 73q-82 -86 -182 -86q-77 0 -127.5 45t-50.5 115v312h63v-312q0 -45 35 -75.5t89 -30.5q89 0 167 82v336zM177 625h250v-49h-250v49z"/><glyph glyph-name="Ubreve" unicode="Ŭ" horiz-adv-x="798" d="M617 653h67v-421q0 -116 -80 -182t-206 -66q-125 0 -204.5 66t-79.5 182v421h67v-421q0 -88 61 -138t156 -50q97 0 158 50t61 138v421zM265 856h47q0 -85 86 -85t86 85h46q0 -52 -29.5 -90t-102.5 -38q-74 0 -103.5 38t-29.5 90z"/><glyph glyph-name="ubreve" unicode="ŭ" horiz-adv-x="605" d="M444 459h62v-349q0 -67 8 -110h-57q-7 32 -7 73q-82 -86 -182 -86q-77 0 -127.5 45t-50.5 115v312h63v-312q0 -45 35 -75.5t89 -30.5q89 0 167 82v336zM169 668h47q0 -90 86 -90t86 90h46q0 -24 -6 -45.5t-19.5 -42t-41 -33t-65.5 -12.5q-73 0 -103 39.5t-30 93.5z"/><glyph glyph-name="Uring" unicode="Ů" horiz-adv-x="798" d="M617 653h67v-421q0 -116 -80 -182t-206 -66q-125 0 -204.5 66t-79.5 182v421h67v-421q0 -88 61 -138t156 -50q97 0 158 50t61 138v421zM322 788q0 -26 20.5 -43.5t52.5 -17.5q33 0 54 17t21 44q0 28 -21 46.5t-54 18.5q-32 0 -52.5 -18.5t-20.5 -46.5zM395 696 q-52 0 -82 26t-30 66q0 41 30 68t82 27t83.5 -27.5t31.5 -67.5q0 -39 -31 -65.5t-84 -26.5z"/><glyph glyph-name="uring" unicode="ů" horiz-adv-x="605" d="M444 459h62v-349q0 -67 8 -110h-57q-7 32 -7 73q-82 -86 -182 -86q-77 0 -127.5 45t-50.5 115v312h63v-312q0 -45 35 -75.5t89 -30.5q89 0 167 82v336zM226 627q0 -27 20.5 -44.5t52.5 -17.5q33 0 54 17.5t21 44.5q0 28 -21 46.5t-54 18.5q-32 0 -52.5 -18.5t-20.5 -46.5 zM187 627q0 41 30 68t82 27t83.5 -27.5t31.5 -67.5q0 -39 -31 -65.5t-84 -26.5q-52 0 -82 26t-30 66z"/><glyph glyph-name="Uhungarumlaut" unicode="Ű" horiz-adv-x="798" d="M617 653h67v-421q0 -116 -80 -182t-206 -66q-125 0 -204.5 66t-79.5 182v421h67v-421q0 -88 61 -138t156 -50q97 0 158 50t61 138v421zM321 731l-41 2l58 136l57 -2zM488 731l-40 2l58 136l57 -2z"/><glyph glyph-name="uhungarumlaut" unicode="ű" horiz-adv-x="605" d="M444 459h62v-349q0 -67 8 -110h-57q-7 32 -7 73q-82 -86 -182 -86q-77 0 -127.5 45t-50.5 115v312h63v-312q0 -45 35 -75.5t89 -30.5q89 0 167 82v336zM225 537l-41 3l58 136l57 -3zM392 537l-40 3l58 136l57 -3z"/><glyph glyph-name="Uogonek" unicode="Ų" horiz-adv-x="798" d="M617 653h67v-421q0 -106 -67.5 -170.5t-177.5 -75.5q-99 -48 -99 -106q0 -30 25 -47t68 -17q21 0 67 8l6 -40q-47 -10 -83 -10q-63 0 -100.5 26t-37.5 69q0 62 86 116q-114 7 -185.5 72t-71.5 175v421h67v-421q0 -88 61 -138t156 -50q97 0 158 50t61 138v421z"/><glyph glyph-name="uogonek" unicode="ų" horiz-adv-x="605" d="M444 459h62v-349q0 -67 8 -110q-129 -54 -129 -120q0 -30 25 -47t68 -17q21 0 67 8l6 -40q-47 -10 -83 -10q-63 0 -100.5 26t-37.5 69q0 44 37.5 79t87.5 58q-5 26 -5 67q-82 -86 -182 -86q-77 0 -127.5 45t-50.5 115v312h63v-312q0 -45 35 -75.5t89 -30.5q89 0 167 82 v336z"/><glyph glyph-name="Wcircumflex" unicode="Ŵ" horiz-adv-x="1008" d="M49 653h74l174 -553h5l176 553h55l177 -553h4l175 553h70l-211 -653h-71l-170 530h-6l-170 -530h-72zM360 740l110 119h68l109 -119l-49 -4l-94 86l-95 -86z"/><glyph glyph-name="wcircumflex" unicode="ŵ" horiz-adv-x="771" d="M661 459h68l-153 -459h-68l-120 371h-5l-119 -371h-68l-153 459h67l118 -379h5l122 379h65l122 -379h5zM242 547l110 125h68l109 -125l-49 -4l-94 92l-95 -92z"/><glyph glyph-name="Ycircumflex" unicode="Ŷ" horiz-adv-x="667" d="M556 653h79l-268 -343v-310h-67v310l-268 343h85l219 -283zM190 740l110 119h68l109 -119l-49 -4l-94 86l-95 -86z"/><glyph glyph-name="ycircumflex" unicode="ŷ" horiz-adv-x="550" d="M451 459h63l-327 -671h-64l113 225l-200 446h70l162 -378h3zM130 547l110 125h68l109 -125l-49 -4l-94 92l-95 -92z"/><glyph glyph-name="Ydieresis" unicode="Ÿ" horiz-adv-x="667" d="M556 653h79l-268 -343v-310h-67v310l-268 343h85l219 -283zM430 828q17 0 29 -11.5t12 -26.5q0 -16 -12 -27t-29 -11t-28.5 11t-11.5 27q0 15 11.5 26.5t28.5 11.5zM237 828q17 0 29 -11.5t12 -26.5q0 -16 -12 -27t-29 -11t-28.5 11t-11.5 27q0 15 11.5 26.5t28.5 11.5z"/><glyph glyph-name="Zacute" unicode="Ź" horiz-adv-x="685" d="M622 60v-60h-574v43l472 550h-437v60h533v-43l-473 -550h479zM277 740l131 118l82 -3l-156 -119z"/><glyph glyph-name="zacute" unicode="ź" horiz-adv-x="519" d="M463 49v-49h-417v38l325 372h-295v49h380v-38l-325 -372h332zM300 690l70 -2l-103 -146l-56 2z"/><glyph glyph-name="Zdotaccent" unicode="Ż" horiz-adv-x="685" d="M622 60v-60h-574v43l472 550h-437v60h533v-43l-473 -550h479zM342 828q17 0 29 -11.5t12 -26.5q0 -16 -12 -27t-29 -11t-28.5 11t-11.5 27q0 15 11.5 26.5t28.5 11.5z"/><glyph glyph-name="zdotaccent" unicode="ż" horiz-adv-x="519" d="M463 49v-49h-417v38l325 372h-295v49h380v-38l-325 -372h332zM220 596q0 16 11.5 27t28.5 11t29 -11t12 -27t-12 -26.5t-29 -10.5t-28.5 10.5t-11.5 26.5z"/><glyph glyph-name="Zcaron" unicode="Ž" horiz-adv-x="685" d="M622 60v-60h-574v43l472 550h-437v60h533v-43l-473 -550h479zM247 860l95 -85l94 85l49 -4l-109 -119h-68l-110 119z"/><glyph glyph-name="zcaron" unicode="ž" horiz-adv-x="519" d="M463 49v-49h-417v38l325 372h-295v49h380v-38l-325 -372h332zM116 670l49 3l95 -92l94 92l49 -3l-109 -126h-68z"/><glyph glyph-name="Schwa" unicode="Ə" horiz-adv-x="809" d="M390 -16q-61 0 -118 19.5t-104 58t-74 103.5t-24 148h597q2 28 -1 50q-9 107 -84 176.5t-192 69.5q-78 0 -146 -29t-113 -74l-45 44q52 53 132 85.5t172 32.5q159 0 254.5 -96.5t95.5 -240.5q0 -147 -101.5 -247t-248.5 -100zM392 45q99 0 172.5 58.5t95.5 152.5h-519 q1 -68 39.5 -117.5t93.5 -71.5t118 -22z"/><glyph glyph-name="florin" unicode="ƒ" horiz-adv-x="484" d="M57 316h107l25 111q15 68 63.5 100.5t102.5 32.5q29 0 59 -9t44 -20l-24 -50q-10 9 -33.5 17t-45.5 8q-36 0 -65 -19.5t-38 -58.5l-25 -112h127v-49h-138l-59 -267q-18 -79 -71.5 -117t-115.5 -38v49q103 11 125 106l59 267h-97v49z"/><glyph glyph-name="Aringacute" unicode="Ǻ" horiz-adv-x="751" d="M109 0h-69l303 653h66l303 -653h-73l-97 212h-337zM371 575l-141 -309h288l-141 309h-6zM300 788q0 -26 20.5 -43.5t52.5 -17.5q33 0 54 17t21 44q0 28 -21 46.5t-54 18.5q-32 0 -52.5 -18.5t-20.5 -46.5zM373 696q-52 0 -82 26t-30 66q0 41 30 68t82 27t83.5 -27.5 t31.5 -67.5q0 -39 -31 -65.5t-84 -26.5zM311 921l131 118l82 -3l-156 -119z"/><glyph glyph-name="aringacute" unicode="ǻ" horiz-adv-x="596" d="M116 363l-23 50q92 59 206 59q54 0 97.5 -12t75 -44t31.5 -80v-253q0 -52 16 -83h-63q-13 21 -15 71q-86 -81 -204 -81q-84 0 -133.5 44t-49.5 113q0 66 55.5 109.5t154.5 43.5q124 0 177 -58v78q0 50 -41.5 75t-102.5 25q-99 0 -181 -57zM249 42q47 0 93 18.5t69.5 36 t29.5 27.5v66q-22 30 -68 45.5t-100 15.5q-78 0 -117.5 -29t-39.5 -75q0 -45 35.5 -75t97.5 -30zM222 627q0 -27 20.5 -44.5t52.5 -17.5q33 0 54 17.5t21 44.5q0 28 -21 46.5t-54 18.5q-32 0 -52.5 -18.5t-20.5 -46.5zM183 627q0 41 30 68t82 27t83.5 -27.5t31.5 -67.5 q0 -39 -31 -65.5t-84 -26.5q-52 0 -82 26t-30 66zM233 769l131 118l82 -3l-156 -119z"/><glyph glyph-name="AEacute" unicode="Ǽ" horiz-adv-x="1089" d="M79 0h-75l478 653h537v-60h-454v-220h275v-60h-275v-253h476v-60h-542v212h-267zM495 575l-224 -309h228v309h-4zM536 740l131 118l82 -3l-156 -119z"/><glyph glyph-name="aeacute" unicode="ǽ" horiz-adv-x="973" d="M249 42q69 0 122.5 28t86.5 62q-12 25 -16 57q-55 62 -169 62q-78 0 -117.5 -29t-39.5 -75q0 -45 35.5 -75t97.5 -30zM681 -13q-134 0 -201 102q-41 -44 -106 -73t-137 -29q-84 0 -133.5 45.5t-49.5 114.5q0 66 55.5 109.5t154.5 43.5q126 0 179 -58v78q0 50 -42.5 75 t-103.5 25q-99 0 -181 -57l-23 50q92 59 206 59q71 0 124.5 -24.5t61.5 -80.5l1 -20q23 57 77.5 91t117.5 34q62 0 114.5 -24t87.5 -81t31 -139h-410q0 -12 3 -39q9 -64 56.5 -105.5t117.5 -41.5q112 0 179 72l42 -40q-87 -87 -221 -87zM506 277h341q-1 68 -51.5 106 t-114.5 38q-66 0 -113 -40t-62 -104zM526 690l70 -2l-103 -146l-56 2z"/><glyph glyph-name="Oslashacute" unicode="Ǿ" horiz-adv-x="855" d="M68 328q0 141 104 240.5t254 99.5q92 0 175 -43l61 87l45 -31l-59 -85q65 -47 102 -117.5t37 -150.5q0 -143 -105 -243.5t-256 -100.5q-94 0 -175 43l-59 -85l-46 30l59 84q-64 48 -100.5 119t-36.5 153zM717 328q0 64 -28 120.5t-77 96.5l-325 -466q65 -35 139 -35 q122 0 206.5 83t84.5 201zM139 328q0 -135 103 -219l324 465q-67 35 -140 35q-120 0 -203.5 -82t-83.5 -199zM362 740l131 118l82 -3l-156 -119z"/><glyph glyph-name="oslashacute" unicode="ǿ" horiz-adv-x="617" d="M348 690l70 -2l-103 -146l-56 2zM136 -52l-35 24l48 69q-88 72 -88 190q0 101 71 171t176 70q66 0 122 -31l50 71l35 -25l-49 -69q90 -72 90 -187q0 -103 -71.5 -173.5t-176.5 -70.5q-64 0 -123 31zM492 231q0 84 -59 140l-216 -308q42 -24 91 -24q79 0 131.5 56 t52.5 136zM126 231q0 -85 57 -142l216 307q-42 25 -91 25q-78 0 -130 -56t-52 -134z"/><glyph glyph-name="uni0218" unicode="Ș" horiz-adv-x="744" d="M635 573l-41 -46q-36 34 -100 59t-146 25q-76 0 -132 -31t-56 -95q0 -23 8 -39.5t27.5 -27.5t35.5 -17.5t49.5 -10.5t51 -5.5t56.5 -3.5q34 -2 53 -3.5t54.5 -7t57 -13t49.5 -21.5t44 -32.5t27 -46.5t11 -63q0 -104 -83.5 -157t-210.5 -53q-190 0 -333 133l41 46 q130 -121 293 -121q98 0 162 36.5t64 107.5q0 32 -14 55t-34 36t-54 21.5t-60 11.5t-67 6q-39 2 -60.5 4t-57.5 6.5t-57 11t-47 19t-39.5 28.5t-23.5 40.5t-10 54.5q0 51 23.5 89t63 59t82.5 30.5t89 9.5q90 0 164.5 -29t119.5 -66zM374 -58l49 15q53 -41 53 -93 q0 -46 -40 -73.5t-108 -27.5q-36 0 -75 9l6 39q33 -5 59 -5q47 0 73 16.5t26 46.5q0 40 -43 73z"/><glyph glyph-name="uni0219" unicode="ș" horiz-adv-x="547" d="M458 415l-25 -47q-28 20 -76 37t-98 17t-87 -20t-37 -59q0 -22 12.5 -36.5t38 -21t43.5 -8.5t50 -4q28 -1 44 -2.5t45.5 -6.5t48 -14t38 -23t29 -36.5t9.5 -52.5q0 -74 -61 -113t-155 -39q-121 0 -222 72l25 47q97 -68 196 -68q67 0 111 25t44 71q0 25 -14 42t-41 24.5 t-46.5 10t-50.5 4.5l-41.5 3t-40 4.5t-40 8.5t-32.5 14t-28.5 21t-16.5 30t-7 41q0 72 55.5 105t129.5 33q60 0 114.5 -18.5t85.5 -40.5zM235 -56l49 13q57 -43 57 -93q0 -46 -39 -73.5t-106 -27.5q-35 0 -59 6v39q24 -4 53 -4q43 0 67.5 16.5t24.5 46.5q0 39 -47 77z"/><glyph glyph-name="uni021A" unicode="Ț" horiz-adv-x="635" d="M32 593v60h571v-60h-252v-593h-67v593h-252zM319 -58l49 15q53 -41 53 -93q0 -46 -40 -73.5t-108 -27.5q-36 0 -75 9l6 39q33 -5 59 -5q47 0 73 16.5t26 46.5q0 40 -43 73z"/><glyph glyph-name="uni021B" unicode="ț" horiz-adv-x="386" d="M31 410v49h95v141h62v-141h152v-49h-152v-297q0 -37 20.5 -55.5t51.5 -18.5q52 0 84 21l9 -48q-15 -11 -45.5 -19.5t-58.5 -8.5q-49 0 -86 31t-37 98v297h-95zM201 -56l49 13q57 -43 57 -93q0 -46 -39 -73.5t-106 -27.5q-35 0 -59 6v39q24 -4 53 -4q43 0 67.5 16.5 t24.5 46.5q0 39 -47 77z"/><glyph glyph-name="dotlessj" unicode="ȷ" horiz-adv-x="257" d="M5 -227l-17 49q110 13 110 124v513h62v-513q0 -88 -47.5 -130.5t-107.5 -42.5z"/><glyph glyph-name="schwa" unicode="ə" horiz-adv-x="595" d="M115 346l-42 40q86 86 221 86q108 0 174 -68t66 -167q0 -105 -69.5 -177.5t-170.5 -72.5q-62 0 -114.5 24t-87.5 81t-31 139h411v6q0 76 -49.5 128.5t-128.5 52.5q-111 0 -179 -72zM294 39q64 0 110 39.5t61 103.5h-337q1 -67 51.5 -105t114.5 -38z"/><glyph glyph-name="circumflex" unicode="ˆ" d="M106 547l110 125h68l109 -125l-49 -4l-94 92l-95 -92z"/><glyph glyph-name="caron" unicode="ˇ" d="M106 670l49 3l95 -92l94 92l49 -3l-109 -126h-68z"/><glyph glyph-name="breve" unicode="˘" d="M117 668h47q0 -90 86 -90t86 90h46q0 -24 -6 -45.5t-19.5 -42t-41 -33t-65.5 -12.5q-73 0 -103 39.5t-30 93.5z"/><glyph glyph-name="dotaccent" unicode="˙" d="M210 596q0 16 11.5 27t28.5 11t29 -11t12 -27t-12 -26.5t-29 -10.5t-28.5 10.5t-11.5 26.5z"/><glyph glyph-name="ring" unicode="˚" d="M174 627q0 -27 20.5 -44.5t52.5 -17.5q33 0 54 17.5t21 44.5q0 28 -21 46.5t-54 18.5q-32 0 -52.5 -18.5t-20.5 -46.5zM135 627q0 41 30 68t82 27t83.5 -27.5t31.5 -67.5q0 -39 -31 -65.5t-84 -26.5q-52 0 -82 26t-30 66z"/><glyph glyph-name="ogonek" unicode="˛" d="M266 19l29 -19q-18 -7 -36.5 -17t-41.5 -25.5t-37.5 -36t-14.5 -41.5q0 -30 25 -47t68 -17q21 0 67 8l6 -40q-47 -10 -83 -10q-63 0 -100.5 26t-37.5 69q0 28 17.5 54t45 45t49.5 31t44 20z"/><glyph glyph-name="tilde" unicode="˜" d="M131 547l-41 23q44 72 93 72q26 0 68 -30q36 -28 58 -28q11 0 22.5 8t17.5 16l17 23l39 -22q-44 -72 -93 -72q-34 0 -71 27q-39 30 -55 30q-23 0 -55 -47z"/><glyph glyph-name="hungarumlaut" unicode="˝" d="M173 537l-41 3l58 136l57 -3zM340 537l-40 3l58 136l57 -3z"/><glyph glyph-name="Delta" unicode="Δ" horiz-adv-x="730" d="M676 0h-621v54l277 599h66l278 -599v-54zM361 575l-238 -521h481l-237 521h-6z"/><glyph glyph-name="Delta" unicode="∆" horiz-adv-x="730" d="M676 0h-621v54l277 599h66l278 -599v-54zM361 575l-238 -521h481l-237 521h-6z"/><glyph glyph-name="Omega" unicode="Ω" horiz-adv-x="860" d="M77 0v54h193q-94 32 -149 109t-55 176q0 137 105.5 233t257.5 96q153 0 260 -96t107 -233q0 -96 -57.5 -174t-150.5 -111h192v-54h-273v54q97 24 157.5 102.5t60.5 182.5q0 112 -86 191t-210 79q-123 0 -208 -79t-85 -191q0 -103 60 -181t155 -104v-54h-274z"/><glyph glyph-name="Omega" unicode="Ω" horiz-adv-x="860" d="M77 0v54h193q-94 32 -149 109t-55 176q0 137 105.5 233t257.5 96q153 0 260 -96t107 -233q0 -96 -57.5 -174t-150.5 -111h192v-54h-273v54q97 24 157.5 102.5t60.5 182.5q0 112 -86 191t-210 79q-123 0 -208 -79t-85 -191q0 -103 60 -181t155 -104v-54h-274z"/><glyph glyph-name="pi" unicode="π" horiz-adv-x="693" d="M42 405v49h609v-49h-115l-34 -324q-4 -36 -1 -81h-61q-3 43 1 81l34 324h-238l-42 -405h-62l42 405h-133z"/><glyph glyph-name="Wgrave" unicode="Ẁ" horiz-adv-x="1008" d="M49 653h74l174 -553h5l176 553h55l177 -553h4l175 553h70l-211 -653h-71l-170 530h-6l-170 -530h-72zM511 736l-156 119l83 3l131 -118z"/><glyph glyph-name="wgrave" unicode="ẁ" horiz-adv-x="771" d="M661 459h68l-153 -459h-68l-120 371h-5l-119 -371h-68l-153 459h67l118 -379h5l122 379h65l122 -379h5zM275 688l70 2l89 -146l-55 -2z"/><glyph glyph-name="Wacute" unicode="Ẃ" horiz-adv-x="1008" d="M49 653h74l174 -553h5l176 553h55l177 -553h4l175 553h70l-211 -653h-71l-170 530h-6l-170 -530h-72zM439 740l131 118l82 -3l-156 -119z"/><glyph glyph-name="wacute" unicode="ẃ" horiz-adv-x="771" d="M661 459h68l-153 -459h-68l-120 371h-5l-119 -371h-68l-153 459h67l118 -379h5l122 379h65l122 -379h5zM426 690l70 -2l-103 -146l-56 2z"/><glyph glyph-name="Wdieresis" unicode="Ẅ" horiz-adv-x="1008" d="M49 653h74l174 -553h5l176 553h55l177 -553h4l175 553h70l-211 -653h-71l-170 530h-6l-170 -530h-72zM600 828q17 0 29 -11.5t12 -26.5q0 -16 -12 -27t-29 -11t-28.5 11t-11.5 27q0 15 11.5 26.5t28.5 11.5zM407 828q17 0 29 -11.5t12 -26.5q0 -16 -12 -27t-29 -11 t-28.5 11t-11.5 27q0 15 11.5 26.5t28.5 11.5z"/><glyph glyph-name="wdieresis" unicode="ẅ" horiz-adv-x="771" d="M661 459h68l-153 -459h-68l-120 371h-5l-119 -371h-68l-153 459h67l118 -379h5l122 379h65l122 -379h5zM442 596q0 16 11.5 27t28.5 11t29 -11t12 -27t-12 -26.5t-29 -10.5t-28.5 10.5t-11.5 26.5zM249 596q0 16 11.5 27t28.5 11t29 -11t12 -27t-12 -26.5t-29 -10.5 t-28.5 10.5t-11.5 26.5z"/><glyph glyph-name="Ygrave" unicode="Ỳ" horiz-adv-x="667" d="M556 653h79l-268 -343v-310h-67v310l-268 343h85l219 -283zM341 736l-156 119l83 3l131 -118z"/><glyph glyph-name="ygrave" unicode="ỳ" horiz-adv-x="550" d="M451 459h63l-327 -671h-64l113 225l-200 446h70l162 -378h3zM163 688l70 2l89 -146l-55 -2z"/><glyph glyph-name="endash" unicode="–" horiz-adv-x="638" d="M72 226v55h494v-55h-494z"/><glyph glyph-name="emdash" unicode="—" horiz-adv-x="1118" d="M72 226v55h974v-55h-974z"/><glyph glyph-name="quoteleft" unicode="‘" horiz-adv-x="269" d="M196 678l18 -38q-39 -11 -73 -39t-34 -66q0 -25 21 -31q20 5 23 5q20 0 34 -11.5t14 -29.5q0 -17 -13.5 -29t-34.5 -12q-37 0 -64 26.5t-27 66.5q0 111 136 158z"/><glyph glyph-name="quoteright" unicode="’" horiz-adv-x="271" d="M80 417l-18 38q39 11 73 39t34 66q0 24 -20 31q-20 -5 -24 -5q-20 0 -34 11.5t-14 29.5q0 17 14 29t34 12q37 0 64 -26.5t27 -66.5q0 -112 -136 -158z"/><glyph glyph-name="quotesinglbase" unicode="‚" horiz-adv-x="301" d="M92 -162l-18 38q40 13 73 40.5t33 65.5q0 23 -20 30q-16 -4 -24 -4q-20 0 -33.5 11.5t-13.5 28.5q0 18 13.5 30t33.5 12q38 0 65 -26.5t27 -66.5q0 -110 -136 -159z"/><glyph glyph-name="quotedblleft" unicode="“" horiz-adv-x="494" d="M421 678l18 -38q-39 -11 -73 -39t-34 -66q0 -24 20 -31q20 5 24 5q20 0 34 -11.5t14 -29.5q0 -17 -13.5 -29t-34.5 -12q-37 0 -64 26.5t-27 66.5q0 111 136 158zM196 678l18 -38q-39 -11 -73 -39t-34 -66q0 -25 21 -31q20 5 23 5q20 0 34 -11.5t14 -29.5q0 -17 -13.5 -29 t-34.5 -12q-37 0 -64 26.5t-27 66.5q0 111 136 158z"/><glyph glyph-name="quotedblright" unicode="”" horiz-adv-x="496" d="M80 417l-18 38q39 11 73 39t34 66q0 24 -20 31q-20 -5 -24 -5q-20 0 -34 11.5t-14 29.5q0 17 14 29t34 12q37 0 64 -26.5t27 -66.5q0 -112 -136 -158zM305 417l-18 38q39 11 73 39t34 66q0 24 -20 31q-20 -5 -24 -5q-20 0 -34 11.5t-14 29.5q0 17 13.5 29t34.5 12 q37 0 64 -26.5t27 -66.5q0 -111 -136 -158z"/><glyph glyph-name="quotedblbase" unicode="„" horiz-adv-x="526" d="M92 -162l-18 38q40 13 73 40.5t33 65.5q0 23 -20 30q-16 -4 -24 -4q-20 0 -33.5 11.5t-13.5 28.5q0 18 13.5 30t33.5 12q38 0 65 -26.5t27 -66.5q0 -110 -136 -159zM317 -162l-19 38q40 12 73.5 40t33.5 66q0 23 -20 30q-16 -4 -24 -4q-20 0 -33.5 11.5t-13.5 28.5 q0 18 13.5 30t33.5 12q38 0 65 -26.5t27 -66.5q0 -110 -136 -159z"/><glyph glyph-name="dagger" unicode="†" horiz-adv-x="506" d="M453 522v-50h-172v-392h-56v392h-172v50h172v178h56v-178h172z"/><glyph glyph-name="daggerdbl" unicode="‡" horiz-adv-x="532" d="M238 80v183h-172v50h172v159h-172v50h172v178h56v-178h172v-50h-172v-159h172v-50h-172v-183h-56z"/><glyph glyph-name="bullet" unicode="•" horiz-adv-x="441" d="M221 147q-65 0 -110.5 43.5t-45.5 104.5t45.5 104.5t110.5 43.5q64 0 109.5 -43.5t45.5 -104.5t-45.5 -104.5t-109.5 -43.5z"/><glyph glyph-name="ellipsis" unicode="…" horiz-adv-x="1000" d="M126 40q0 20 16 35t39 15t38.5 -14.5t15.5 -35.5t-15.5 -35.5t-38.5 -14.5t-39 14.5t-16 35.5zM445 40q0 21 15.5 35.5t38.5 14.5t39 -15t16 -35q0 -21 -16 -35.5t-39 -14.5t-38.5 14.5t-15.5 35.5zM764 40q0 21 15.5 35.5t38.5 14.5t39 -15t16 -35q0 -21 -16 -35.5 t-39 -14.5t-38.5 14.5t-15.5 35.5z"/><glyph glyph-name="perthousand" unicode="‰" horiz-adv-x="1442" d="M59 425q0 69 54.5 118t132.5 49q77 0 133 -49.5t56 -117.5q0 -69 -56 -118.5t-133 -49.5q-78 0 -132.5 49.5t-54.5 118.5zM709 580l-344 -580h-54l344 580h54zM117 425q0 -48 37.5 -82t91.5 -34t93 34t39 82t-39 82t-93 34t-91.5 -34t-37.5 -82zM585 156q0 68 55 117.5 t132 49.5q78 0 134 -49.5t56 -117.5q0 -70 -56 -119t-134 -49q-77 0 -132 49t-55 119zM643 156q0 -48 37.5 -82.5t91.5 -34.5t93 34.5t39 82.5q0 47 -39 81t-93 34t-91.5 -34t-37.5 -81zM1011 156q0 68 55 117.5t132 49.5q78 0 134 -49.5t56 -117.5q0 -70 -56 -119t-134 -49 q-77 0 -132 49t-55 119zM1069 156q0 -48 38 -82.5t91 -34.5q54 0 93 34.5t39 82.5q0 47 -39 81t-93 34q-53 0 -91 -34t-38 -81z"/><glyph glyph-name="guilsinglleft" unicode="‹" horiz-adv-x="320" d="M166 381h75l-121 -136v-8l121 -135h-75l-108 122v34z"/><glyph glyph-name="guilsinglright" unicode="›" horiz-adv-x="320" d="M79 381h74l108 -123v-34l-108 -122h-74l121 135v8z"/><glyph glyph-name="fraction" unicode="⁄" horiz-adv-x="220" d="M323 653l-370 -653h-54l371 653h53z"/><glyph glyph-name="zero.superior" unicode="⁰" horiz-adv-x="579" d="M42 437q0 95 72.5 161.5t173.5 66.5q102 0 175.5 -66.5t73.5 -161.5t-73 -162t-176 -67q-101 0 -173.5 67t-72.5 162zM101 437q0 -73 55 -125t132 -52q78 0 134.5 52t56.5 125t-56.5 124.5t-134.5 51.5q-77 0 -132 -51.5t-55 -124.5z"/><glyph glyph-name="four.superior" unicode="⁴" horiz-adv-x="561" d="M528 371v-48h-89v-103h-59v103h-352v43l355 287h56v-282h89zM115 373v-2h265v207h-8z"/><glyph glyph-name="five.superior" unicode="⁵" horiz-adv-x="516" d="M433 653v-52h-303v-130q70 40 151 40q82 0 140.5 -36t58.5 -106q0 -81 -66.5 -121t-160.5 -40q-122 0 -217 61l31 47q80 -56 186 -56q69 0 118.5 27t49.5 82q0 46 -41 69t-100 23q-85 0 -166 -47l-38 28v211h357z"/><glyph glyph-name="six.superior" unicode="⁶" horiz-adv-x="530" d="M467 610l-36 -41q-55 44 -137 44q-79 0 -137 -48t-60 -128q96 65 205 65q91 0 140.5 -42t49.5 -96q0 -65 -58.5 -110.5t-147.5 -45.5q-100 0 -171.5 59t-71.5 162q0 108 73.5 172t178.5 64q100 0 172 -55zM298 455q-94 0 -198 -62q13 -63 65.5 -98t121.5 -35 q62 0 104 31.5t42 73.5q0 35 -34.5 62.5t-100.5 27.5z"/><glyph glyph-name="seven.superior" unicode="⁷" horiz-adv-x="466" d="M31 601v52h405v-52l-258 -381h-77l268 381h-338z"/><glyph glyph-name="eight.superior" unicode="⁸" horiz-adv-x="530" d="M265 207q-90 0 -157.5 37t-67.5 100q0 48 38 78t92 38q-98 14 -98 91q0 55 60 85t133 30t133 -30t60 -85q0 -77 -99 -91q55 -8 93 -38t38 -78q0 -63 -68 -100t-157 -37zM265 259q63 0 112 24.5t49 65.5q0 42 -50 64.5t-111 22.5t-111 -22.5t-50 -64.5q0 -41 49 -65.5 t112 -24.5zM265 480q130 0 130 66q0 34 -40.5 53.5t-89.5 19.5t-89 -19.5t-40 -53.5q0 -66 129 -66z"/><glyph glyph-name="nine.superior" unicode="⁹" horiz-adv-x="530" d="M62 263l36 41q57 -44 138 -44q79 0 136.5 47.5t60.5 128.5q-99 -65 -206 -65q-91 0 -140 42t-49 96q0 65 58.5 110.5t147.5 45.5q100 0 171 -58.5t71 -162.5q0 -108 -73.5 -172t-177.5 -64q-97 0 -173 55zM233 418q94 0 196 62q-13 64 -65 98.5t-122 34.5 q-62 0 -103.5 -32t-41.5 -74q0 -34 34.5 -61.5t101.5 -27.5z"/><glyph glyph-name="parenleft.superior" unicode="⁽" horiz-adv-x="265" d="M252 138l-30 -36q-86 43 -134.5 125t-48.5 179q0 98 48.5 180t134.5 125l30 -36q-71 -36 -112.5 -110t-41.5 -159t41.5 -158t112.5 -110z"/><glyph glyph-name="parenright.superior" unicode="⁾" horiz-adv-x="265" d="M13 675l30 36q86 -43 134.5 -125t48.5 -180q0 -97 -48.5 -179t-134.5 -125l-30 36q71 37 112.5 110t41.5 158t-41.5 159t-112.5 110z"/><glyph glyph-name="n.superior" unicode="ⁿ" horiz-adv-x="461" d="M126 220h-54v254q0 48 -10 84h49q6 -16 10 -53q59 63 137 63q59 0 98 -33.5t39 -85.5v-229h-54v229q0 31 -26 52t-66 21q-64 0 -123 -59v-243z"/><glyph glyph-name="zero.inferior" unicode="₀" horiz-adv-x="578" d="M41 49q0 95 73 161.5t174 66.5q102 0 175.5 -66.5t73.5 -161.5t-73 -162t-176 -67q-101 0 -174 67t-73 162zM100 49q0 -73 55 -125t133 -52t134 52t56 125t-56 124.5t-134 51.5t-133 -51.5t-55 -124.5z"/><glyph glyph-name="one.inferior" unicode="₁" horiz-adv-x="301" d="M20 159l-13 47l141 59h59v-433h-59v380z"/><glyph glyph-name="two.inferior" unicode="₂" horiz-adv-x="476" d="M88 162l-34 41q33 24 54 37t59.5 25t80.5 12q75 0 128.5 -31t53.5 -89q0 -14 -4 -27t-8.5 -23t-15 -19.5l-17.5 -16t-22.5 -14l-22.5 -11t-26 -9.5l-24 -7.5t-24.5 -6.5t-21.5 -6q-66 -18 -103.5 -47.5t-37.5 -81.5v-9h320v-47h-379v51q0 135 197 186q1 0 13 3l16 4t16 5 t18 6.5l16.5 7t16 8.5t13.5 10.5t11.5 12.5t6.5 14t3 17q0 34 -36 51t-85 17q-50 0 -86 -16t-76 -47z"/><glyph glyph-name="three.inferior" unicode="₃" horiz-adv-x="542" d="M248 38v47h87q24 0 47 18t23 47q0 37 -38 56t-85 19q-92 0 -173 -72l-36 36q102 88 210 88q42 0 81 -11t69.5 -39t30.5 -68q0 -33 -18.5 -56.5t-41.5 -32.5q36 -7 66.5 -32.5t30.5 -72.5q0 -68 -66.5 -106.5t-167.5 -38.5q-143 0 -237 87l36 41q85 -76 201 -76 q75 0 125.5 26t50.5 70q0 26 -20 43t-41.5 22t-41.5 5h-92z"/><glyph glyph-name="four.inferior" unicode="₄" horiz-adv-x="559" d="M528 -17v-48h-89v-103h-59v103h-352v43l355 287h56v-282h89zM115 -15v-2h265v207h-8z"/><glyph glyph-name="five.inferior" unicode="₅" horiz-adv-x="516" d="M433 265v-52h-303v-130q70 40 151 40q82 0 140.5 -36t58.5 -106q0 -81 -66.5 -121t-160.5 -40q-122 0 -217 61l31 47q80 -56 186 -56q69 0 118.5 27t49.5 82q0 46 -41 69t-100 23q-85 0 -166 -47l-38 28v211h357z"/><glyph glyph-name="six.inferior" unicode="₆" horiz-adv-x="529" d="M467 222l-36 -41q-55 44 -138 44q-79 0 -136.5 -48t-59.5 -128q96 65 205 65q91 0 140.5 -42t49.5 -96q0 -65 -58.5 -110.5t-147.5 -45.5q-100 0 -171.5 59t-71.5 162q0 108 73.5 172t178.5 64q100 0 172 -55zM298 67q-94 0 -198 -62q13 -64 65 -98.5t122 -34.5 q62 0 104 31.5t42 73.5q0 35 -34.5 62.5t-100.5 27.5z"/><glyph glyph-name="seven.inferior" unicode="₇" horiz-adv-x="464" d="M31 213v52h405v-52l-258 -381h-77l268 381h-338z"/><glyph glyph-name="eight.inferior" unicode="₈" horiz-adv-x="530" d="M265 -181q-90 0 -157.5 37t-67.5 100q0 48 38 78t92 38q-98 14 -98 91q0 55 60 85t133 30t133 -30t60 -85q0 -77 -99 -91q55 -8 93 -38t38 -78q0 -63 -68 -100t-157 -37zM265 -129q63 0 112 24.5t49 65.5q0 42 -50 64.5t-111 22.5t-111 -22.5t-50 -64.5q0 -41 49 -65.5 t112 -24.5zM265 92q130 0 130 66q0 34 -40.5 53.5t-89.5 19.5t-89 -19.5t-40 -53.5q0 -66 129 -66z"/><glyph glyph-name="nine.inferior" unicode="₉" horiz-adv-x="529" d="M62 -125l36 41q57 -44 138 -44q79 0 136.5 48t60.5 128q-99 -65 -206 -65q-91 0 -140 42t-49 96q0 65 58.5 110.5t147.5 45.5q100 0 171 -58.5t71 -162.5q0 -108 -73.5 -172t-177.5 -64q-97 0 -173 55zM233 30q94 0 196 62q-13 64 -65 98.5t-122 34.5q-62 0 -103.5 -32 t-41.5 -74q0 -34 34.5 -61.5t101.5 -27.5z"/><glyph glyph-name="colonmonetary" unicode="₡" horiz-adv-x="715" d="M505 651h41l-26 -116q72 -25 128 -75l-43 -36q-41 35 -97 57l-98 -438q114 10 206 98l42 -37q-115 -111 -261 -117l-26 -120h-40l26 120q-48 3 -98 19l-30 -139h-41l34 154q-77 36 -122 103t-45 148q0 111 81 192.5t204 92.5l21 94h41l-21 -92q55 -2 101 -13zM122 272 q0 -60 30 -110.5t83 -81.5l92 420q-89 -15 -147 -79t-58 -149zM272 62q45 -19 97 -20l101 450q-45 12 -95 12h-6z"/><glyph glyph-name="franc" unicode="₣" horiz-adv-x="681" d="M60 130v43h97v372h460v-59h-393v-148h243v-59h-243v-106h166v-43h-166v-130h-67v130h-97z"/><glyph glyph-name="lira" unicode="₤" horiz-adv-x="719" d="M70 317v43h140v39q0 77 63.5 118.5t150.5 41.5q44 0 105.5 -19t114.5 -49l-33 -46q-107 55 -187 55q-60 0 -103.5 -26t-43.5 -75v-39h258v-43h-258v-82h258v-43h-258v-24q0 -53 -17.5 -79.5t-58.5 -35.5h442v-53h-573v53h37q59 0 81 23t22 92v24h-140v43h140v82h-140z"/><glyph glyph-name="peseta" unicode="₧" horiz-adv-x="1475" d="M156 0h-67v545h309q107 0 163 -55q15 -16 24 -31h94v141h62v-141h152v-49h-152v-297q0 -37 20.5 -55.5t51.5 -18.5q53 0 85 21l9 -48q-15 -11 -46 -19.5t-59 -8.5q-49 0 -86 31.5t-37 97.5v297h-77q2 -16 2 -25q0 -60 -44 -104q-56 -55 -163 -55h-241v-226zM1381 415 l-25 -47q-80 54 -174 54q-50 0 -87.5 -19.5t-37.5 -59.5q0 -22 12.5 -36.5t38.5 -21t43.5 -8.5t49.5 -4q28 -1 44.5 -2.5t46 -6.5t48 -14t38 -23t29 -36.5t9.5 -52.5q0 -74 -61 -113t-155 -39q-122 0 -223 72l25 47q100 -68 197 -68q67 0 111 25t44 71q0 25 -14 42 t-41.5 24.5t-47 10t-50.5 4.5l-41.5 3t-40 4.5t-40 8.5t-32.5 14t-28.5 21t-16.5 30t-7 41q0 72 55.5 105t130.5 33q59 0 114 -18.5t86 -40.5zM398 486h-242v-202h241q74 0 113 36q28 30 28 65t-25 62q-38 39 -115 39z"/><glyph glyph-name="Euro" unicode="€" horiz-adv-x="778" d="M62 317v43h93q30 87 111 143t182 56q149 0 249 -87l-41 -46q-86 74 -208 74q-73 0 -133.5 -39t-87.5 -101h300v-43h-314q-5 -25 -5 -45q0 -19 3 -37h316v-43h-304q27 -65 88 -106t137 -41q127 0 216 82l41 -47q-110 -95 -257 -95q-104 0 -185.5 58.5t-109.5 148.5h-91v43 h82q-3 18 -3 37q0 25 4 45h-83z"/><glyph glyph-name="peso" unicode="₱" horiz-adv-x="792" d="M51 343v42h97v160h299q101 0 159 -56q41 -44 47 -104h91v-42h-91q-7 -61 -51 -107q-30 -29 -64 -41.5t-91 -12.5h-232v-182h-67v343h-97zM447 486h-232v-101h372q-3 33 -27 62q-20 21 -44.5 30t-68.5 9zM555 277q25 27 31 66h-371v-101h231q43 0 65.5 8.5t43.5 26.5z"/><glyph glyph-name="Rupee" unicode="₹" horiz-adv-x="751" d="M107 343v42h414q-5 35 -27 62q-36 39 -108 39h-279v59h588v-43h-189q71 -32 81 -117h108v-42h-108q-6 -63 -51 -108q-51 -47 -155 -47l-144 4l312 -192h-122l-320 200v42h273q75 0 109 35q26 26 32 66h-414z"/><glyph glyph-name="litre" unicode="ℓ" horiz-adv-x="519" d="M71 113l-17 45l96 57v215q0 202 146 202q71 0 112.5 -43t41.5 -112q0 -137 -197 -254l-41 -25v-76q0 -81 87 -81q48 0 110 29l12 -48q-63 -35 -124 -35q-147 0 -147 135v38zM212 430v-177l35 21q68 43 105 95t37 103q0 49 -24.5 77.5t-67.5 28.5q-38 0 -61.5 -31.5 t-23.5 -116.5z"/><glyph glyph-name="soundrecordingcopyright" unicode="℗" horiz-adv-x="999" d="M942 271q0 -169 -130 -288t-313 -119t-312.5 119t-129.5 288t129.5 287.5t312.5 118.5t313 -118.5t130 -287.5zM891 272q0 150 -115.5 256t-276.5 106q-162 0 -276.5 -106.5t-114.5 -255.5q0 -150 114.5 -257t276.5 -107q161 0 276.5 107t115.5 257zM576 209h-181v-122 h-57v385h208q32 0 61 -5t58.5 -18t47.5 -40t18 -65q0 -65 -46.5 -100t-108.5 -35zM395 423v-165h181q39 0 68.5 21.5t29.5 63.5q0 44 -34.5 62t-79.5 18h-165z"/><glyph glyph-name="servicemark" unicode="℠" horiz-adv-x="907" d="M361 615l-27 -31q-39 39 -121 39q-35 0 -59 -13.5t-24 -41.5q0 -14 7.5 -23t26.5 -13.5t31 -5.5t40 -3q25 -2 39 -3.5t38 -7.5t37.5 -15.5t24.5 -28t11 -43.5q0 -55 -41 -81.5t-105 -26.5q-102 0 -173 69l27 29q61 -59 147 -59q43 0 71 16.5t28 46.5q0 32 -26.5 43.5 t-77.5 15.5q-28 2 -44 3.5t-39 7t-36 13.5t-22.5 24t-9.5 38q0 51 39 74.5t91 23.5q88 0 147 -47zM824 326h-46v247h-3l-115 -194h-9l-117 194h-2v-247h-44v327h49l119 -203h1l120 203h47v-327z"/><glyph glyph-name="trademark" unicode="™" horiz-adv-x="855" d="M763 326h-46v247h-3l-116 -194h-9l-116 194h-3v-247h-43v327h48l120 -203h1l120 203h47v-327zM55 615v38h278v-38h-116v-289h-46v289h-116z"/><glyph glyph-name="estimated" unicode="℮" horiz-adv-x="809" d="M199 447v-122q0 -6 6 -6h407q8 0 8 6v122q0 9 -6 21q-67 97 -203 97q-56 0 -117.5 -28t-87.5 -69q-7 -11 -7 -21zM703 128q-54 -73 -130.5 -109.5t-161.5 -36.5q-134 0 -239 89t-104 221q0 91 50.5 163t128.5 109t164 37q141 0 240.5 -87t99.5 -231h-546q-6 0 -6 -8v-133 q0 -19 7 -28q89 -96 205 -96q130 0 220 110h72z"/><glyph glyph-name="onethird" unicode="⅓" horiz-adv-x="1063" d="M20 547l-13 47l141 59h59v-433h-59v380zM624 653l-370 -653h-54l371 653h53zM769 206v47h87q24 0 47 18t23 47q0 37 -38 56t-85 19q-92 0 -173 -72l-36 36q102 88 210 88q42 0 81 -11t69.5 -39t30.5 -68q0 -33 -18.5 -56.5t-41.5 -32.5q36 -7 66.5 -32.5t30.5 -72.5 q0 -68 -66.5 -106.5t-167.5 -38.5q-143 0 -237 87l36 41q85 -76 201 -76q75 0 125.5 26t50.5 70q0 26 -20 43t-41.5 22t-41.5 5h-92z"/><glyph glyph-name="twothirds" unicode="⅔" horiz-adv-x="1238" d="M88 550l-34 41q33 24 54 37t59.5 25t80.5 12q75 0 128.5 -31t53.5 -89q0 -14 -4 -27t-8.5 -23t-15 -19.5l-17.5 -16t-22.5 -14l-22.5 -11t-26 -9.5l-24 -7.5t-24.5 -6.5t-21.5 -6q-66 -18 -103.5 -47.5t-37.5 -81.5v-9h320v-47h-379v51q0 135 197 186q1 0 13 3l16 4t16 5 t18 6.5l16.5 7t16 8.5t13.5 10.5t11.5 12.5t6.5 14t3 17q0 34 -36 51t-85 17q-50 0 -86 -16t-76 -47zM799 653l-370 -653h-54l371 653h53zM944 206v47h87q24 0 47 18t23 47q0 37 -38 56t-85 19q-92 0 -173 -72l-36 36q102 88 210 88q42 0 81 -11t69.5 -39t30.5 -68 q0 -33 -18.5 -56.5t-41.5 -32.5q36 -7 66.5 -32.5t30.5 -72.5q0 -68 -66.5 -106.5t-167.5 -38.5q-143 0 -237 87l36 41q85 -76 201 -76q75 0 125.5 26t50.5 70q0 26 -20 43t-41.5 22t-41.5 5h-92z"/><glyph glyph-name="oneeighth" unicode="⅛" horiz-adv-x="1051" d="M20 547l-13 47l141 59h59v-433h-59v380zM624 653l-370 -653h-54l371 653h53zM786 -13q-90 0 -157.5 37t-67.5 100q0 48 38 78t92 38q-98 14 -98 91q0 55 60 85t133 30t133 -30t60 -85q0 -77 -99 -91q55 -8 93 -38t38 -78q0 -63 -68 -100t-157 -37zM786 39q63 0 112 24.5 t49 65.5q0 42 -50 64.5t-111 22.5t-111 -22.5t-50 -64.5q0 -41 49 -65.5t112 -24.5zM786 260q130 0 130 66q0 34 -40.5 53.5t-89.5 19.5t-89 -19.5t-40 -53.5q0 -66 129 -66z"/><glyph glyph-name="threeeighths" unicode="⅜" horiz-adv-x="1293" d="M249 426v47h87q24 0 47 18t23 47q0 37 -38 56t-85 19q-91 0 -174 -72l-35 36q100 88 210 88q42 0 81 -11t69.5 -39t30.5 -68q0 -33 -18.5 -56.5t-41.5 -32.5q36 -7 66.5 -32.5t30.5 -72.5q0 -68 -66.5 -106.5t-168.5 -38.5q-142 0 -236 87l36 41q83 -76 200 -76 q76 0 126 26t50 70q0 26 -20 43t-41 22t-42 5h-91zM866 653l-370 -653h-54l371 653h53zM1028 -13q-90 0 -157.5 37t-67.5 100q0 48 38 78t92 38q-98 14 -98 91q0 55 60 85t133 30t133 -30t60 -85q0 -77 -99 -91q55 -8 93 -38t38 -78q0 -63 -68 -100t-157 -37zM1028 39 q63 0 112 24.5t49 65.5q0 42 -50 64.5t-111 22.5t-111 -22.5t-50 -64.5q0 -41 49 -65.5t112 -24.5zM1028 260q130 0 130 66q0 34 -40.5 53.5t-89.5 19.5t-89 -19.5t-40 -53.5q0 -66 129 -66z"/><glyph glyph-name="fiveeighths" unicode="⅝" horiz-adv-x="1266" d="M433 653v-52h-303v-130q70 40 151 40q82 0 140.5 -36t58.5 -106q0 -81 -66.5 -121t-160.5 -40q-122 0 -217 61l31 47q80 -56 186 -56q69 0 118.5 27t49.5 82q0 46 -41 69t-100 23q-85 0 -166 -47l-38 28v211h357zM839 653l-370 -653h-54l371 653h53zM1001 -13 q-90 0 -157.5 37t-67.5 100q0 48 38 78t92 38q-98 14 -98 91q0 55 60 85t133 30t133 -30t60 -85q0 -77 -99 -91q55 -8 93 -38t38 -78q0 -63 -68 -100t-157 -37zM1001 39q63 0 112 24.5t49 65.5q0 42 -50 64.5t-111 22.5t-111 -22.5t-50 -64.5q0 -41 49 -65.5t112 -24.5z M1001 260q130 0 130 66q0 34 -40.5 53.5t-89.5 19.5t-89 -19.5t-40 -53.5q0 -66 129 -66z"/><glyph glyph-name="seveneighths" unicode="⅞" horiz-adv-x="1149" d="M31 601v52h405v-52l-258 -381h-77l268 381h-338zM722 653l-370 -653h-54l371 653h53zM884 -13q-90 0 -157.5 37t-67.5 100q0 48 38 78t92 38q-98 14 -98 91q0 55 60 85t133 30t133 -30t60 -85q0 -77 -99 -91q55 -8 93 -38t38 -78q0 -63 -68 -100t-157 -37zM884 39 q63 0 112 24.5t49 65.5q0 42 -50 64.5t-111 22.5t-111 -22.5t-50 -64.5q0 -41 49 -65.5t112 -24.5zM884 260q130 0 130 66q0 34 -40.5 53.5t-89.5 19.5t-89 -19.5t-40 -53.5q0 -66 129 -66z"/><glyph glyph-name="arrowleft" unicode="←" horiz-adv-x="826" d="M591 285l142 1v-60l-142 2l-415 1l-42 1v-3l56 -46l228 -228l-40 -41l-336 335v17l336 336l40 -42l-228 -226l-56 -47v-3l42 2z"/><glyph glyph-name="arrowup" unicode="↑" horiz-adv-x="827" d="M441 57l2 -141h-60l1 141l1 416l2 41l-3 2l-46 -57l-235 -235l-42 39l343 344h17l343 -344l-41 -39l-235 235l-47 57l-3 -2l2 -42z"/><glyph glyph-name="arrowright" unicode="→" horiz-adv-x="826" d="M93 286l142 -1l415 -1l41 -2l1 3l-56 47l-228 226l40 42l336 -336v-17l-336 -335l-40 41l228 228l56 46l-1 3l-41 -1l-415 -1l-142 -2v60z"/><glyph glyph-name="arrowdown" unicode="↓" horiz-adv-x="827" d="M443 595l-2 -141l-1 -415l-2 -42l3 -2l47 57l235 235l41 -39l-343 -344h-17l-343 344l42 39l235 -235l46 -57l3 2l-2 41l-1 416l-1 141h60z"/><glyph glyph-name="arrowupleft" unicode="↖" horiz-adv-x="826" d="M620 74l102 -98l-44 -43l-107 110l-334 334l-28 32l-4 -2l9 -73v-334h-57v485l12 12h484v-58l-333 1l-74 8l-1 -3l31 -28z"/><glyph glyph-name="arrowupright" unicode="↗" horiz-adv-x="826" d="M105 -24l102 98l344 343l31 28l-2 3l-74 -8l-332 -1v58h484l12 -12v-485h-57v334l9 73l-4 2l-29 -32l-333 -334l-107 -110z"/><glyph glyph-name="arrowdownright" unicode="↘" horiz-adv-x="826" d="M207 423l-102 99l44 42l107 -109l333 -336l29 -31l4 2l-9 73v334h57v-485l-12 -12h-484v58h332l74 -9l2 3l-31 29z"/><glyph glyph-name="arrowdownleft" unicode="↙" horiz-adv-x="826" d="M722 522l-102 -99l-344 -342l-31 -29l1 -3l74 9h333v-58h-484l-12 12v485h57v-334l-9 -73l4 -2l28 31l334 336l107 109z"/><glyph glyph-name="partialdiff" unicode="∂" horiz-adv-x="628" d="M287 455q125 0 200 -119v14q0 43 -12 82.5t-40.5 79t-86 63.5t-138.5 24v55q343 0 343 -348q0 -162 -69 -241.5t-183 -79.5q-102 0 -172.5 61t-70.5 173t68.5 174t160.5 62zM298 35q82 0 134 56.5t59 170.5q-78 143 -199 143q-72 0 -122.5 -48.5t-50.5 -137.5t51 -136.5 t128 -47.5z"/><glyph glyph-name="product" unicode="∏" horiz-adv-x="787" d="M51 593v60h686v-60h-119v-700h-67v700h-316v-700h-67v700h-117z"/><glyph glyph-name="summation" unicode="∑" horiz-adv-x="687" d="M630 653v-60h-468l357 -298v-42l-357 -301h468v-59h-581v43l400 335v6l-400 333v43h581z"/><glyph glyph-name="minus" unicode="−" horiz-adv-x="707" d="M84 225v55h537v-55h-537z"/><glyph glyph-name="radical" unicode="√" horiz-adv-x="692" d="M36 460h169l142 -371l246 665h63l-288 -754h-45l-161 410h-126v50z"/><glyph glyph-name="infinity" unicode="∞" horiz-adv-x="1032" d="M261 446h12q81 0 161 -75l82 -79l82 79q81 75 160 75h12q81 0 136.5 -53.5t55.5 -124.5v-30q0 -71 -55.5 -124t-136.5 -53h-12q-78 0 -160 74l-82 77l-82 -78q-81 -73 -161 -73h-12q-81 0 -135.5 53t-54.5 124v30q0 71 54.5 124.5t135.5 53.5zM640 335l-87 -82l87 -81 q59 -58 118 -58h12q56 0 94.5 37.5t38.5 86.5v30q0 50 -38 87t-95 37h-12q-58 0 -118 -57zM129 268v-30q0 -49 38 -86.5t94 -37.5h12q59 0 119 58l85 81l-85 82q-61 57 -119 57h-12q-56 0 -94 -37t-38 -87z"/><glyph glyph-name="integral" unicode="∫" horiz-adv-x="396" d="M345 723v-55h-54q-29 0 -44.5 -19.5t-15.5 -48.5v-679q0 -46 -33 -77t-94 -31h-49v55h54q29 0 44.5 19.5t15.5 48.5v679q0 45 26.5 76.5t75.5 31.5h74z"/><glyph glyph-name="approxequal" unicode="≈" horiz-adv-x="707" d="M84 90v57q75 56 147 56q58 0 120 -37q63 -38 115 -38q78 0 155 60v-58q-74 -58 -155 -58q-60 0 -120 37q-62 39 -116 39q-74 0 -146 -58zM84 333v57q74 55 147 55q58 0 120 -37q63 -38 115 -38q79 0 155 61v-58q-74 -58 -155 -58q-60 0 -120 37q-64 38 -116 38 q-73 0 -146 -57z"/><glyph glyph-name="notequal" unicode="≠" horiz-adv-x="707" d="M84 346v56h321l67 109h62l-67 -109h154v-56h-188l-114 -186h302v-56h-337l-67 -110h-62l67 110h-138v56h173l114 186h-287z"/><glyph glyph-name="lessequal" unicode="≤" horiz-adv-x="707" d="M84 0v56h537v-56h-537zM621 547v-63l-460 -157v-8l460 -156v-63l-537 191v64z"/><glyph glyph-name="greaterequal" unicode="≥" horiz-adv-x="707" d="M621 56v-56h-537v56h537zM84 484v63l537 -192v-64l-537 -191v63l461 156v8z"/><glyph glyph-name="squarecrossed" unicode="⊠" horiz-adv-x="842" d="M95 653h652v-653h-652v653zM192 74l-26 -25l2 -2l55 2h396l55 -2l2 2l-26 25l-220 221l-10 11l-9 -11zM166 604l26 -25l219 -219l9 -12l10 12l220 219l25 25l-2 2l-54 -2h-396l-55 2zM144 582l-2 -2l2 -51v-401l-2 -54l2 -1l23 25l220 219l11 9l-231 231zM699 580l-2 2 l-22 -25l-231 -231l11 -9l220 -219l22 -25l2 1l-1 54v401z"/><glyph glyph-name="blacksquare" unicode="■" horiz-adv-x="714" d="M85 545h544v-545h-544v545z"/><glyph glyph-name="whitesquare" unicode="□" horiz-adv-x="842" d="M95 653h652v-653h-652v653zM147 604v-555h548v555h-548z"/><glyph glyph-name="blacksmallsquare" unicode="▪" horiz-adv-x="460" d="M89 438h282v-281h-282v281z"/><glyph glyph-name="blackuppointingtriangle" unicode="▲" horiz-adv-x="661" d="M324 589h9l281 -580v-9h-572v9z"/><glyph glyph-name="blackrightpointingtriangle" unicode="▶" horiz-adv-x="754" d="M93 539h9l580 -283v-9l-580 -282h-9v574z"/><glyph glyph-name="blackdownpointingtriangle" unicode="▼" horiz-adv-x="661" d="M42 498h572v-9l-281 -580h-9l-282 580v9z"/><glyph glyph-name="blackleftpointingtriangle" unicode="◀" horiz-adv-x="754" d="M72 256l579 283h9v-574h-9l-579 282v9z"/><glyph glyph-name="lozenge" unicode="◊" horiz-adv-x="651" d="M306 653h39l255 -305v-41l-255 -307h-39l-255 307v41zM325 585l-212 -256v-3l212 -258h1l212 257v4l-212 256h-1z"/><glyph glyph-name="whitecircle" unicode="○" horiz-adv-x="838" d="M55 323q0 150 107 256t257 106q151 0 257 -106t106 -256q0 -151 -106 -257.5t-257 -106.5q-150 0 -257 107t-107 257zM110 323q0 -130 90.5 -222.5t218.5 -92.5t218.5 92t90.5 223q0 130 -90.5 221.5t-218.5 91.5t-218.5 -91.5t-90.5 -221.5z"/><glyph glyph-name="blackcircle" unicode="●" horiz-adv-x="709" d="M61 272q0 122 86 208t207 86q122 0 208 -86t86 -208q0 -121 -86 -207t-208 -86t-207.5 85.5t-85.5 207.5z"/><glyph glyph-name="blackmediumsquare" unicode="◼" horiz-adv-x="548" d="M86 460h375v-375h-375v375z"/><glyph glyph-name="blackmediumcircle" unicode="⚫" horiz-adv-x="549" d="M275 482q88 0 148 -59t60 -147q0 -87 -60 -146.5t-148 -59.5t-148.5 59.5t-60.5 146.5q0 88 60 147t149 59z"/><glyph glyph-name="circlecrossed" unicode="⨂" horiz-adv-x="838" d="M55 323q0 150 107 256t257 106q151 0 257 -106t106 -256q0 -151 -106 -257.5t-257 -106.5q-150 0 -257 107t-107 257zM419 7q122 0 211 84l-202 203l-9 11l-10 -11l-201 -203q89 -84 211 -84zM653 117q77 88 77 206t-82 210l-196 -195l-10 -10zM386 338l-197 195 q-81 -91 -81 -210q0 -117 76 -206l202 201l10 10zM419 638q-116 0 -206 -80l196 -197l10 -11l9 11l196 197q-88 80 -205 80z"/><glyph glyph-name="blacklargesquare" unicode="⬛" horiz-adv-x="842" d="M95 653h652v-653h-652v653z"/><glyph glyph-name="blacklargecircle" unicode="⬤" horiz-adv-x="838" d="M55 323q0 150 107 256t257 106q151 0 257 -106t106 -256q0 -151 -106 -257.5t-257 -106.5q-150 0 -257 107t-107 257z"/><glyph glyph-name="commaaccent" unicode="" d="M241 -56l49 13q57 -43 57 -93q0 -46 -39 -73.5t-106 -27.5q-35 0 -59 6v39q24 -4 53 -4q43 0 67.5 16.5t24.5 46.5q0 39 -47 77z"/><glyph glyph-name="rupiah" unicode="" horiz-adv-x="1278" d="M826 -212h-63v558q0 66 -12 114h58q11 -39 11 -72q31 35 78 59.5t99 24.5q97 0 164 -67.5t67 -175.5q0 -107 -69.5 -174.5t-169.5 -67.5q-96 0 -163 79v-278zM826 341v-223q72 -77 157 -77q75 0 126 52t51 136t-48.5 136.5t-119.5 52.5q-91 0 -166 -77zM159 0h-66v545 h318q107 0 164 -57q43 -45 43 -103q0 -57 -37.5 -98t-101.5 -52l144 -235h-76l-137 226h-251v-226zM411 486h-252v-201h273q52 0 86 29t34 71q0 36 -27 63q-38 38 -114 38z"/><glyph glyph-name="sweetfonts.com" unicode="" horiz-adv-x="1000" d="M343 424q0 65 46 111t111 46t111 -46t46 -111t-46 -111t-111 -46t-111 46t-46 111zM706 428l237 137q8 6 8 -4v-274q0 -10 -8 -4l-237 137q-6 4 0 8zM49 287v274q0 10 8 4l237 -137q8 -4 0 -8l-237 -137q-8 -6 -8 4zM878 0v116h-57v20h138v-20h-57v-116h-24zM659 0v136 h117v-20h-93v-32h62v-20h-62v-44h99v-20h-123zM472 0v136h117v-20h-93v-32h62v-20h-62v-44h99v-20h-123zM268 0l-47 136h25l30 -99h2l34 99h15l33 -99h2l32 99h23l-49 -136h-16l-33 97h-2l-33 -97h-16zM37 22l12 15q31 -21 61 -21q49 0 49 24q0 6 -3.5 10.5t-10 6t-14 2.5 t-16.5 1h-3q-69 2 -69 37q0 17 15.5 29t44.5 12q37 0 69 -18l-12 -16q-24 15 -57 15q-38 0 -38 -21q0 -14 47 -16q33 -1 51 -9.5t18 -31.5q0 -21 -20 -32.5t-51 -11.5q-41 0 -73 25z"/><glyph glyph-name="one.alt" horiz-adv-x="307" d="M187 0h-67v545h67v-545z"/><glyph glyph-name="dollar.superior" horiz-adv-x="504" d="M234 738h40v-75q101 -12 170 -64l-34 -39q-50 44 -136 53v-136q36 -2 64 -7t60.5 -17.5t50.5 -38.5t18 -65q0 -70 -54.5 -105t-138.5 -36v-94h-40v95q-115 10 -201 88l34 38q73 -67 167 -76v167q-39 3 -66 7.5t-55 16t-42 33.5t-14 54q0 67 53 97.5t124 30.5v73zM411 342 q0 30 -20.5 47.5t-47 23.5t-69.5 10v-166q60 1 98.5 22.5t38.5 62.5zM113 542q0 -56 121 -63v137h-1q-51 0 -85.5 -17.5t-34.5 -56.5z"/><glyph glyph-name="cent.superior" horiz-adv-x="419" d="M250 631h41l-17 -77q57 -10 102 -48l-36 -36q-33 26 -76 37l-53 -249h12q67 0 119 50l37 -34q-17 -21 -58 -42.5t-98 -21.5q-15 0 -22 1l-20 -97h-40l22 104q-57 17 -92 61.5t-35 107.5q0 77 52.5 125t129.5 48q11 0 17 -1zM95 387q0 -89 78 -120l52 246h-7 q-52 0 -87.5 -35t-35.5 -91z"/><glyph glyph-name="Euro.superior" horiz-adv-x="569" d="M38 471v37h71q24 69 85 113t137 44q114 0 189 -69l-36 -41q-63 58 -153 58q-52 0 -95 -29t-64 -76h219v-37h-231q-3 -17 -3 -34q0 -10 2 -30h232v-37h-221q20 -49 63.5 -79.5t97.5 -30.5q93 0 160 65l36 -41q-82 -76 -196 -76q-78 0 -139.5 45.5t-83.5 116.5h-70v37h62 q-2 10 -2 30q0 12 2 34h-62z"/><glyph glyph-name="sterling.superior" horiz-adv-x="522" d="M42 430v43h103v64q0 62 49 95t115 33q76 0 169 -54l-29 -41q-81 43 -140 43q-43 0 -74 -19.5t-31 -56.5v-64h191v-43h-191v-74q0 -41 -13.5 -61t-45.5 -28h332v-47h-435v47h28q43 0 59 18t16 71v74h-103z"/><glyph glyph-name="yen.superior" horiz-adv-x="550" d="M44 471v37h134l-116 145h74l141 -178l141 178h69l-115 -145h135v-37h-164l-38 -48v-16h202v-37h-202v-150h-59v150h-202v37h202v16l-39 48h-163z"/><glyph glyph-name="numbersign.superior" horiz-adv-x="645" d="M439 690h44l-25 -141h151v-42h-158l-27 -156h144v-42h-152l-28 -162h-45l28 162h-141l-28 -162h-45l28 162h-150v42h158l27 156h-143v42h151l25 141h44l-25 -141h142zM265 507l-27 -156h141l27 156h-141z"/><glyph glyph-name="percent.superior" horiz-adv-x="762" d="M35 559q0 54 41.5 93.5t100.5 39.5q58 0 101 -39.5t43 -93.5q0 -55 -42.5 -94.5t-101.5 -39.5t-100.5 39t-41.5 95zM536 681l-262 -461h-47l261 461h48zM86 559q0 -36 27 -62.5t64 -26.5q38 0 66 26.5t28 62.5q0 35 -28 61t-66 26q-37 0 -64 -26t-27 -61zM441 343 q0 54 41.5 93.5t100.5 39.5t101.5 -39.5t42.5 -93.5q0 -55 -42 -94t-102 -39q-59 0 -100.5 39t-41.5 94zM492 343q0 -36 27 -62t64 -26q38 0 66 26t28 62t-28 61.5t-66 25.5t-64.5 -25.5t-26.5 -61.5z"/><glyph glyph-name="period.superior" horiz-adv-x="227" d="M68 252q0 17 13.5 29.5t32.5 12.5t32 -12.5t13 -29.5t-13 -29t-32 -12t-32.5 12t-13.5 29z"/><glyph glyph-name="comma.superior" horiz-adv-x="244" d="M71 92l-16 35q57 17 73 56q8 25 -3 39q-4 -2 -13 -2q-17 0 -29.5 10.5t-12.5 26.5q0 15 12 26t30 11q29 0 50 -21.5t21 -53.5q0 -89 -112 -127z"/><glyph glyph-name="hyphen.superior" horiz-adv-x="301" d="M59 367v53h182v-53h-182z"/><glyph glyph-name="zero.tos" horiz-adv-x="664" d="M55 272q0 120 81 204t195 84t196 -84.5t82 -203.5t-82 -203t-196 -84t-195 84t-81 203zM122 272q0 -95 61.5 -162t147.5 -67t148.5 67.5t62.5 161.5t-62.5 161.5t-148.5 67.5t-147.5 -67t-61.5 -162z"/><glyph glyph-name="one.tos" horiz-adv-x="664" d="M123 0v53h222v431l-215 -62l-17 54l232 69h66v-492h176v-53h-464z"/><glyph glyph-name="two.tos" horiz-adv-x="664" d="M129 421l-38 46q43 30 71.5 46.5t78.5 31.5t106 15q63 0 116 -15.5t88.5 -50.5t35.5 -84q0 -18 -5 -34t-11 -28.5t-20 -24.5l-23.5 -20t-29.5 -17.5l-30 -14t-34 -11.5t-32 -9l-33 -8.5l-29 -7.5q-93 -25 -146 -63t-53 -106v-13h438v-53h-504v60q0 168 262 234 q104 23 141 47q43 28 43 67q0 46 -51 69.5t-121 23.5q-68 0 -116.5 -20.5t-103.5 -59.5z"/><glyph glyph-name="three.tos" horiz-adv-x="664" d="M305 262v54h92q33 0 64 23t31 62q0 49 -46 74.5t-102 25.5q-104 0 -206 -92l-41 41q122 110 248 110q50 0 96.5 -14t82 -49t35.5 -85q0 -42 -24 -72.5t-54 -40.5q28 -6 53 -18.5t47.5 -42.5t22.5 -72q0 -84 -79 -133t-199 -49q-167 0 -280 109l41 47q98 -96 239 -96 q91 0 151.5 34t60.5 92q0 49 -43 70.5t-87 21.5h-103z"/><glyph glyph-name="four.tos" horiz-adv-x="664" d="M619 185v-53h-108v-132h-67v132h-413v49l416 364h64v-360h108zM130 188v-3h314v275h-8z"/><glyph glyph-name="five.tos" horiz-adv-x="664" d="M545 545v-59h-379v-177q32 17 54 26t58.5 17t76.5 8q103 0 175 -45t72 -133q0 -51 -24 -90.5t-65 -62.5t-89.5 -34t-101.5 -11q-144 0 -266 87l35 47q103 -74 232 -74q87 0 149.5 34.5t62.5 103.5q0 60 -52 90.5t-129 30.5q-101 0 -207 -52l-42 31v263h440z"/><glyph glyph-name="six.tos" horiz-adv-x="664" d="M569 504l-36 -47q-66 44 -167 44q-96 0 -166 -62.5t-73 -167.5q121 84 250 84q109 0 168.5 -53t59.5 -121q0 -82 -70.5 -139t-176.5 -57q-121 0 -206.5 74t-85.5 204q0 134 88.5 215.5t213.5 81.5q110 0 201 -56zM371 301q-117 0 -241 -81q14 -83 78.5 -129.5 t150.5 -46.5q76 0 128 42t52 96q0 46 -43 82.5t-125 36.5z"/><glyph glyph-name="seven.tos" horiz-adv-x="664" d="M64 486v59h536v-60l-348 -485h-87l359 486h-460z"/><glyph glyph-name="eight.tos" horiz-adv-x="664" d="M332 -16q-107 0 -187.5 47t-80.5 125q0 60 46 98t112 48q-58 9 -89 38t-31 76t37 81t88 49t105 15q55 0 105.5 -15t87.5 -49t37 -81q0 -96 -120 -114q67 -10 113 -47.5t46 -98.5q0 -78 -81 -125t-188 -47zM332 42q77 0 137 32.5t60 87.5q0 54 -60.5 83.5t-136.5 29.5 q-75 0 -136 -29.5t-61 -83.5q0 -55 60.5 -87.5t136.5 -32.5zM332 325q157 0 157 86q0 46 -48.5 71.5t-108.5 25.5q-59 0 -108 -25.5t-49 -71.5q0 -86 157 -86z"/><glyph glyph-name="nine.tos" horiz-adv-x="664" d="M92 41l35 46q68 -43 168 -43q97 0 167.5 62t73.5 167q-122 -83 -251 -83q-110 0 -170 53t-60 120q0 82 71 139.5t178 57.5q121 0 207 -74t86 -204q0 -135 -89 -216t-214 -81q-114 0 -202 56zM291 244q116 0 241 79q-14 84 -78.5 131t-150.5 47q-77 0 -129 -42t-52 -97 q0 -45 43 -81.5t126 -36.5z"/><glyph glyph-name="dollar.tos" horiz-adv-x="664" d="M310 651h46v-95q126 -12 216 -80l-39 -44q-65 57 -177 69v-181q38 -2 65 -5.5t64 -13.5t60.5 -26t40.5 -45t17 -68q0 -86 -69.5 -130t-177.5 -46v-119h-46v121q-147 11 -257 109l39 43q95 -86 218 -98v220q-40 3 -67.5 7t-60 13.5t-52 23t-33 38t-13.5 56.5 q0 57 36.5 94.5t85 51t104.5 13.5v92zM540 154q0 24 -10.5 42t-26.5 29t-42 18t-49.5 10.5t-55.5 5.5v-218q81 1 132.5 29.5t51.5 83.5zM148 405q0 -74 162 -83v182h-3q-66 0 -112.5 -24t-46.5 -75z"/><glyph glyph-name="cent.tos" horiz-adv-x="664" d="M393 513h47l-25 -96q88 -14 154 -61l-41 -41q-57 37 -127 49l-83 -321q9 -1 28 -1q112 0 188 64l43 -39q-15 -15 -40 -30.5t-78.5 -32t-112.5 -16.5q-15 0 -41 2l-32 -123h-47l34 131q-86 20 -139.5 75.5t-53.5 133.5q0 96 78.5 156.5t193.5 60.5q5 0 15.5 -0.5 t15.5 -0.5zM135 207q0 -57 38 -98.5t100 -57.5l83 318q-6 1 -17 1q-86 0 -145 -45.5t-59 -117.5z"/><glyph glyph-name="Euro.tos" horiz-adv-x="664" d="M46 317v43h80q27 87 97 143t158 56q130 0 217 -87l-41 -46q-72 74 -176 74q-61 0 -111 -38.5t-73 -101.5h253v-43h-265q-4 -20 -4 -45t2 -37h267v-43h-256q21 -65 72.5 -106t114.5 -41q109 0 183 82l41 -47q-95 -95 -224 -95q-90 0 -161 58.5t-96 148.5h-78v43h70 q-2 24 -2 37q0 22 3 45h-71z"/><glyph glyph-name="sterling.tos" horiz-adv-x="664" d="M56 267v49h129v83q0 77 59 118.5t141 41.5q42 0 100 -19t108 -49l-33 -46q-101 55 -175 55q-54 0 -94 -26t-40 -75v-83h240v-49h-240v-99q0 -53 -16 -79.5t-55 -35.5h412v-53h-536v53h35q54 0 74 23t20 92v99h-129z"/><glyph glyph-name="yen.tos" horiz-adv-x="664" d="M60 317v43h160l-138 185h85l167 -229l168 229h79l-139 -185h162v-43h-194l-45 -61v-21h239v-43h-239v-192h-67v192h-238v43h238v21l-46 61h-192z"/><glyph glyph-name="florin.tos" horiz-adv-x="664" d="M189 316h107l25 111q15 68 63.5 100.5t102.5 32.5q29 0 59 -9t43 -20l-24 -50q-9 9 -33 17t-46 8q-36 0 -65 -19.5t-37 -58.5l-25 -112h127v-49h-138l-60 -267q-17 -79 -70.5 -117t-115.5 -38v49q104 11 124 106l59 267h-96v49z"/><glyph glyph-name="colonmonetary.tos" horiz-adv-x="664" d="M469 651h40l-24 -116q67 -25 118 -75l-42 -36q-39 36 -88 55l-90 -436q105 11 188 98l41 -37q-46 -49 -109 -81t-132 -36l-24 -120h-39l24 120q-41 3 -89 18l-28 -138h-41l31 155q-70 37 -111 103.5t-41 146.5q0 112 74 193t188 92l19 94h41l-19 -92q49 -2 91 -13z M120 272q0 -59 26 -108.5t72 -80.5l85 417q-80 -16 -131.5 -80t-51.5 -148zM255 62q46 -19 89 -20l92 450q-42 12 -88 12h-3z"/><glyph glyph-name="franc.tos" horiz-adv-x="664" d="M57 130v43h95v372h451v-59h-384v-148h237v-59h-237v-106h163v-43h-163v-130h-67v130h-95z"/><glyph glyph-name="lira.tos" horiz-adv-x="664" d="M62 317v43h129v39q0 77 59 118.5t141 41.5q41 0 98.5 -19t107.5 -49l-33 -46q-100 55 -173 55q-54 0 -94 -26t-40 -75v-39h239v-43h-239v-82h239v-43h-239v-24q0 -53 -16.5 -79.5t-54.5 -35.5h410v-53h-534v53h35q54 0 74 23t20 92v24h-129v43h129v82h-129z"/><glyph glyph-name="peso.tos" horiz-adv-x="664" d="M36 343v42h84v160h237q102 0 160 -56q40 -45 47 -104h77v-42h-77q-7 -60 -52 -107q-29 -29 -63 -41.5t-91 -12.5h-171v-182h-67v343h-84zM357 486h-170v-101h310q-3 33 -27 62q-20 21 -44 30t-69 9zM465 277q27 29 31 66h-309v-101h169q43 0 65.5 8t43.5 27z"/><glyph glyph-name="Rupee.tos" horiz-adv-x="664" d="M49 343v42h414q-5 36 -28 62q-34 39 -107 39h-279v59h588v-43h-189q71 -32 81 -117h108v-42h-108q-7 -62 -51 -108q-28 -25 -63 -36t-92 -11l-145 4l313 -192h-122l-320 200v42h273q75 0 109 35q26 26 32 66h-414z"/><glyph glyph-name="section.tos" horiz-adv-x="664" d="M560 92q-29 -29 -76 -46q14 -8 22 -21q14 -19 14 -50q0 -45 -31.5 -75t-72.5 -41t-87 -11q-110 0 -189 54l29 46q71 -47 161 -47q28 0 53.5 5.5t47.5 23t22 44.5q0 21 -11 31q-7 7 -16.5 12t-26.5 8.5t-26 5t-35.5 4t-33.5 3.5q-149 17 -207 74q-41 39 -41 99t43 103 q27 31 74 48q-13 10 -19 17q-15 25 -15 54q0 65 58 96.5t133 31.5q106 0 189 -55l-29 -46q-68 47 -160 47q-46 0 -85 -16.5t-39 -55.5q0 -21 12 -32q7 -7 16.5 -12t26.5 -8.5t26 -5t34.5 -4t32.5 -3.5q152 -17 210 -75q39 -41 39 -98q0 -60 -43 -105zM353 312 q-109 13 -140 24q-36 -13 -56 -35q-34 -36 -34 -82q0 -42 28 -70q43 -41 154 -53q104 -11 139 -24q38 14 57 34q36 36 36 83q0 40 -28 68q-41 44 -156 55z"/><glyph glyph-name="numbersign.tos" horiz-adv-x="664" d="M448 592h50l-26 -180h154v-48h-161l-29 -202h147v-48h-154l-29 -206h-50l29 206h-141l-29 -206h-50l29 206h-152v48h159l29 202h-145v48h152l26 180h50l-26 -180h141zM274 364l-29 -202h141l29 202h-141z"/><glyph glyph-name="percent.tos" horiz-adv-x="664" d="M27 425q0 69 36.5 118t89.5 49q52 0 90 -49.5t38 -117.5q0 -69 -37.5 -118.5t-90.5 -49.5t-89.5 49.5t-36.5 118.5zM476 580l-232 -580h-54l234 580h52zM78 425q0 -48 22 -82t53 -34t53.5 34t22.5 82t-22.5 82t-53.5 34t-53 -34t-22 -82zM385 156q0 68 37.5 117.5 t89.5 49.5t90 -49.5t38 -117.5q0 -70 -37.5 -119t-90.5 -49t-90 49t-37 119zM438 156q0 -48 21.5 -82.5t52.5 -34.5t53.5 34.5t22.5 82.5q0 47 -22.5 81t-53.5 34t-52.5 -33.5t-21.5 -81.5z"/><glyph glyph-name="zero.pl" horiz-adv-x="838" d="M70 307q0 133 102.5 227t245.5 94q144 0 247 -94t103 -227q0 -134 -103 -228.5t-247 -94.5q-143 0 -245.5 94.5t-102.5 228.5zM137 307q0 -109 82.5 -186t198.5 -77q117 0 200 77t83 186q0 108 -83.5 185t-199.5 77t-198.5 -77t-82.5 -185z"/><glyph glyph-name="one.pl" horiz-adv-x="429" d="M34 474l-15 54l205 85h67v-613h-67v552z"/><glyph glyph-name="one.pl.alt" horiz-adv-x="344" d="M138 0v613h67v-613h-67z"/><glyph glyph-name="two.pl" horiz-adv-x="691" d="M129 480l-39 46q45 33 75.5 51t83 34.5t111.5 16.5q105 0 180.5 -43t75.5 -124q0 -22 -5 -41t-17 -34.5t-23 -27.5t-32 -23.5l-34 -18.5t-39.5 -15.5l-37.5 -12t-39.5 -11t-34.5 -9.5q-100 -28 -158 -73.5t-58 -125.5v-15h469v-54h-536v63q0 191 279 263q2 1 30.5 8 t38.5 10.5l35.5 12.5t37.5 18l28 21.5t22.5 28.5t6.5 35q0 54 -55 81.5t-132 27.5q-72 0 -124.5 -23t-108.5 -66z"/><glyph glyph-name="three.pl" horiz-adv-x="787" d="M364 299v54h123q36 0 73.5 27t37.5 73q0 39 -31 66.5t-72 38.5t-85 11q-131 0 -253 -103l-41 41q143 121 295 121q59 0 114 -15.5t97.5 -54t42.5 -94.5q0 -49 -29 -82.5t-65 -45.5q24 -4 46.5 -13.5t47 -26.5t39.5 -45.5t15 -64.5q0 -94 -94 -148t-238 -54 q-197 0 -333 120l41 47q121 -107 293 -107q114 0 189 39t75 107q0 31 -17.5 54t-44 34t-50.5 16t-44 5h-132z"/><glyph glyph-name="four.pl" horiz-adv-x="793" d="M742 204v-54h-127v-150h-67v150h-507v51l506 412h68v-409h127zM138 208v-4h410v325h-11z"/><glyph glyph-name="five.pl" horiz-adv-x="746" d="M621 613v-60h-442v-200q101 57 221 57q75 0 137 -19.5t104 -66t42 -113.5q0 -78 -48.5 -131t-117.5 -74.5t-152 -21.5q-172 0 -308 107l41 47q115 -94 267 -94q65 0 119.5 15.5t93 54.5t38.5 96q0 72 -63 108t-155 36q-118 0 -237 -65l-43 32v292h503z"/><glyph glyph-name="six.pl" horiz-adv-x="766" d="M662 549l-41 -47q-79 67 -198 67q-118 0 -202.5 -72.5t-86.5 -194.5q140 96 299 96q128 0 198 -59.5t70 -135.5q0 -91 -83 -155t-207 -64q-140 0 -239.5 83t-99.5 229q0 101 50 178t129.5 115.5t172.5 38.5q136 0 238 -79zM427 344q-140 0 -290 -92q16 -99 93.5 -153.5 t181.5 -54.5q94 0 158 48.5t64 111.5q0 54 -52.5 97t-154.5 43z"/><glyph glyph-name="seven.pl" horiz-adv-x="672" d="M48 553v60h568v-60l-372 -553h-87l382 553h-491z"/><glyph glyph-name="eight.pl" horiz-adv-x="764" d="M382 -18q-79 0 -150 22t-118 67.5t-47 104.5q0 68 57 110.5t139 54.5q-72 10 -110 42.5t-38 85.5q0 76 83 118.5t184 42.5t184 -42.5t83 -118.5q0 -108 -148 -128q82 -12 139 -54.5t57 -110.5q0 -59 -47.5 -104.5t-118 -67.5t-149.5 -22zM382 42q60 0 114.5 15.5t91.5 48 t37 75.5q0 63 -75 98t-168 35q-92 0 -167 -35t-75 -98q0 -43 37 -75.5t91 -48t114 -15.5zM382 365q93 0 144 25.5t51 73.5q0 53 -60.5 82.5t-134.5 29.5t-134 -29.5t-60 -82.5q0 -48 50.5 -73.5t143.5 -25.5z"/><glyph glyph-name="nine.pl" horiz-adv-x="764" d="M102 64l41 46q80 -66 198 -66q117 0 202 72t87 194q-144 -96 -298 -96q-129 0 -199 60t-70 136q0 91 83 154.5t207 63.5q140 0 239.5 -82.5t99.5 -228.5q0 -101 -50 -178t-129.5 -116t-172.5 -39q-131 0 -238 80zM337 268q140 0 289 93q-15 98 -92.5 153t-181.5 55 q-94 0 -158 -48.5t-64 -111.5q0 -54 53 -97.5t154 -43.5z"/><glyph glyph-name="dollar.pl" horiz-adv-x="698" d="M329 733h47v-108q140 -13 238 -89l-39 -45q-71 65 -199 78v-212q40 -2 71.5 -5.5t72 -15t67 -29t45.5 -50t19 -75.5q0 -96 -77.5 -145.5t-197.5 -51.5v-135h-47v137q-163 11 -286 122l39 44q108 -99 247 -111v256q-44 3 -75 7t-67 14.5t-57.5 26t-36.5 42.5t-15 63 q0 48 22.5 84t60.5 55.5t79.5 28.5t86.5 9h2v105zM588 174q0 35 -17.5 59t-50.5 36.5t-65.5 17.5t-78.5 8v-254q92 2 152 35.5t60 97.5zM141 457q0 -28 16.5 -48t48 -29.5t58.5 -14t65 -6.5v213h-4q-76 0 -130 -27.5t-54 -87.5z"/><glyph glyph-name="cent.pl" horiz-adv-x="588" d="M351 574h46l-23 -109q82 -17 143 -68l-41 -42q-49 42 -114 56l-78 -369q8 -1 24 -1q97 0 173 74l42 -39q-13 -16 -36.5 -34t-73.5 -36.5t-105 -18.5q-12 0 -36 2l-29 -139h-46l31 148q-79 23 -129 84.5t-50 148.5q0 107 73 174t180 67q4 0 13 -0.5t14 -0.5zM117 231 q0 -65 33.5 -112.5t89.5 -66.5l77 365q-5 1 -15 1q-78 0 -131.5 -52t-53.5 -135z"/><glyph glyph-name="Euro.pl" horiz-adv-x="817" d="M59 359v43h100q31 99 118 162.5t197 63.5q160 0 268 -98l-41 -46q-92 85 -227 85q-82 0 -148.5 -46.5t-96.5 -120.5h330v-43h-343q-5 -28 -5 -52q0 -26 4 -45h344v-43h-333q28 -77 96 -126t152 -49q137 0 236 94l41 -47q-117 -107 -277 -107q-112 0 -200 66t-118 169h-97 v43h88q-3 21 -3 45q0 29 4 52h-89z"/><glyph glyph-name="sterling.pl" horiz-adv-x="757" d="M67 304v49h152v96q0 87 68 133t161 46q47 0 112.5 -20.5t123.5 -54.5l-34 -47q-50 28 -106.5 45.5t-95.5 17.5q-66 0 -114 -31t-48 -89v-96h281v-49h-281v-118q0 -61 -18.5 -91t-61.5 -41h477v-54h-616v54h40q64 0 88 26t24 106v118h-152z"/><glyph glyph-name="yen.pl" horiz-adv-x="786" d="M72 359v43h198l-170 211h84l212 -263l211 263h79l-169 -211h198v-43h-233l-55 -69v-28h288v-43h-288v-219h-67v219h-288v43h288v28l-56 69h-232z"/><glyph glyph-name="florin.pl" horiz-adv-x="411" d="M53 353h114l27 125q17 77 69 114t110 37q31 0 63.5 -10.5t46.5 -23.5l-25 -50q-10 11 -36 20t-50 9q-40 0 -72 -24t-43 -72l-27 -125h138v-49h-148l-65 -304q-13 -61 -47 -101.5t-71.5 -56t-79.5 -15.5v49q112 13 136 124l64 304h-104v49z"/><glyph glyph-name="colonmonetary.pl" horiz-adv-x="739" d="M531 733h41l-28 -130q81 -29 139 -84l-43 -37q-50 44 -108 65l-107 -505q127 10 227 110l41 -38q-121 -122 -280 -128l-28 -136h-41l29 136q-61 5 -108 22l-33 -158h-41l37 174q-84 41 -132.5 116t-48.5 166q0 126 87.5 217.5t221.5 103.5l22 106h41l-22 -104 q61 -2 109 -14zM114 306q0 -69 33.5 -128t92.5 -94l103 485q-99 -17 -164 -91t-65 -172zM277 65q53 -23 107 -24l110 519q-52 13 -102 13h-7z"/><glyph glyph-name="franc.pl" horiz-adv-x="692" d="M51 152v43h104v418h493v-60h-426v-175h264v-59h-264v-124h179v-43h-179v-152h-67v152h-104z"/><glyph glyph-name="lira.pl" horiz-adv-x="761" d="M74 359v43h152v47q0 87 68 133t161 46q48 0 113.5 -20.5t122.5 -54.5l-33 -47q-50 28 -106.5 45.5t-96.5 17.5q-66 0 -114 -31t-48 -89v-47h281v-43h-281v-97h281v-43h-281v-33q0 -61 -18 -91t-62 -41h477v-54h-616v54h40q64 0 88 26t24 106v33h-152v43h152v97h-152z"/><glyph glyph-name="peso.pl" horiz-adv-x="844" d="M53 392v43h104v178h321q112 0 173 -62q43 -47 51 -116h94v-43h-94q-7 -71 -58 -120q-33 -31 -68.5 -44.5t-97.5 -13.5h-254v-214h-67v392h-104zM478 553h-254v-118h411q-6 44 -34 75q-43 43 -123 43zM596 315q32 31 38 77h-410v-118h254q75 0 118 41z"/><glyph glyph-name="peseta.pl" horiz-adv-x="1546" d="M176 0h-67v613h335q116 0 173 -60q40 -43 47 -94h88v141h62v-141h152v-49h-152v-297q0 -37 20.5 -55.5t52.5 -18.5q51 0 83 21l9 -48q-15 -11 -45.5 -19.5t-56.5 -8.5q-51 0 -88 31t-37 98v297h-88q-9 -56 -51 -96q-59 -56 -169 -56h-268v-258zM444 553h-268v-235h268 q80 0 120 39q35 33 35 79q0 43 -32 77q-40 40 -123 40zM1453 415l-25 -47q-28 20 -76 37t-97 17q-50 0 -87.5 -19.5t-37.5 -59.5q0 -22 12 -36.5t37 -21t44 -9t51 -3.5q28 -1 44 -2.5t45.5 -6.5t48 -14t38 -23t29 -36.5t9.5 -52.5q0 -75 -60.5 -113.5t-155.5 -38.5 q-121 0 -222 72l25 47q101 -68 197 -68q66 0 110 25t44 71q0 25 -14 42t-41 24.5t-46.5 10t-50.5 4.5l-41.5 3t-40 4.5t-40 8.5t-32.5 14t-28.5 21t-16.5 30t-7 41q0 72 55.5 105t130.5 33q59 0 114 -18.5t85 -40.5z"/><glyph glyph-name="rupiah.pl" horiz-adv-x="1339" d="M177 0h-67v613h347q115 0 176 -61q46 -49 46 -113q0 -63 -41.5 -109t-110.5 -59l157 -271h-76l-150 264h-281v-264zM457 553h-280v-229h305q57 0 93.5 33.5t36.5 81.5q0 42 -31 73q-41 41 -124 41zM881 -212h-62v558q0 62 -13 114h58q11 -39 11 -72q76 84 180 84 q94 0 161 -67.5t67 -174.5t-69 -175t-167 -68t-166 79v-278zM881 341v-223q72 -77 157 -77q76 0 126.5 52t50.5 137q0 83 -48.5 135.5t-121.5 52.5q-87 0 -164 -77z"/><glyph glyph-name="Rupee.pl" horiz-adv-x="818" d="M126 392v43h471q-6 45 -33 75q-41 43 -120 43h-317v60h632v-43h-190q85 -41 95 -135h95v-43h-95q-5 -69 -57 -121q-57 -51 -166 -51l-187 4l366 -224h-122l-371 230v44h314q78 0 119 41q32 32 37 77h-471z"/><glyph glyph-name="section.pl" horiz-adv-x="713" d="M618 103q-34 -34 -91 -53q13 -7 28 -24q16 -23 16 -56q0 -49 -35.5 -82.5t-82 -46t-98.5 -12.5q-122 0 -217 63l30 46q82 -55 187 -55q56 0 102.5 20.5t46.5 65.5q0 24 -13 37q-6 6 -14 10.5t-19 7.5l-20.5 5.5t-26 4.5t-26.5 3.5t-29.5 3.5l-29.5 3q-170 20 -237 83 q-47 47 -47 111q0 66 48 116q35 35 92 55q-16 9 -24 20q-19 23 -19 60q0 50 35.5 83t81.5 45.5t99 12.5q126 0 217 -63l-30 -45q-80 54 -187 54q-55 0 -102 -20t-47 -65q0 -25 15 -38q6 -6 14 -10.5t19 -7.5l20.5 -5.5t25.5 -4.5t25.5 -3.5t28.5 -3.5l29 -3q173 -18 240 -84 q45 -45 45 -110q0 -70 -50 -118zM382 357q-118 12 -158 26q-50 -17 -75 -43q-40 -42 -40 -94q0 -50 35 -81q49 -48 184 -63q123 -14 157 -26q47 15 75 42q41 41 41 95q1 47 -33 80q-48 49 -186 64z"/><glyph glyph-name="numbersign.pl" horiz-adv-x="910" d="M625 666h51l-36 -204h221v-49h-230l-41 -234h212v-49h-220l-41 -234h-51l41 234h-213l-41 -234h-52l41 234h-218v49h226l41 234h-208v49h217l36 204h52l-36 -204h213zM367 413l-41 -234h213l41 234h-213z"/><glyph glyph-name="percent.pl" horiz-adv-x="1068" d="M48 478q0 77 59 132.5t142 55.5t143.5 -55.5t60.5 -132.5q0 -78 -60.5 -133.5t-143.5 -55.5q-84 0 -142.5 55.5t-58.5 133.5zM746 653l-370 -653h-55l371 653h54zM107 478q0 -56 41.5 -96.5t100.5 -40.5q60 0 103 40.5t43 96.5t-43 96t-103 40q-59 0 -100.5 -40 t-41.5 -96zM614 176q0 77 59 132.5t142 55.5t143.5 -55.5t60.5 -132.5q0 -78 -60.5 -133.5t-143.5 -55.5q-84 0 -142.5 55.5t-58.5 133.5zM672 176q0 -56 42 -97t101 -41t102.5 41t43.5 97q0 55 -43.5 95.5t-102.5 40.5t-101 -40t-42 -96z"/><glyph glyph-name="perthousand.pl" horiz-adv-x="1522" d="M49 478q0 77 59 132.5t142 55.5t143.5 -55.5t60.5 -132.5q0 -78 -60.5 -133.5t-143.5 -55.5q-84 0 -142.5 55.5t-58.5 133.5zM746 653l-370 -653h-54l370 653h54zM107 478q0 -56 42 -96.5t101 -40.5t102.5 40.5t43.5 96.5t-43 96t-103 40q-59 0 -101 -40t-42 -96z M615 176q0 77 59 132.5t142 55.5t143.5 -55.5t60.5 -132.5q0 -78 -60.5 -133.5t-143.5 -55.5q-84 0 -142.5 55.5t-58.5 133.5zM673 176q0 -57 41.5 -97.5t101.5 -40.5q59 0 102 41t43 97t-43 96t-102 40q-60 0 -101.5 -40t-41.5 -96zM1074 176q0 77 59 132.5t142 55.5 t143.5 -55.5t60.5 -132.5q0 -78 -60.5 -133.5t-143.5 -55.5q-84 0 -142.5 55.5t-58.5 133.5zM1132 176q0 -57 41.5 -97.5t101.5 -40.5q59 0 102 41t43 97t-43 96t-102 40q-60 0 -101.5 -40t-41.5 -96z"/><glyph glyph-name="zero.tl" horiz-adv-x="765" d="M60 307q0 133 94.5 227t226.5 94q133 0 228.5 -94t95.5 -227q0 -134 -95.5 -228.5t-228.5 -94.5q-132 0 -226.5 94.5t-94.5 228.5zM127 307q0 -109 74.5 -186t179.5 -77t181 77t76 186q0 108 -76 185t-181 77t-179.5 -77t-74.5 -185z"/><glyph glyph-name="one.tl" horiz-adv-x="765" d="M138 0v54h267v498l-260 -72l-16 54l276 79h67v-559h214v-54h-548z"/><glyph glyph-name="two.tl" horiz-adv-x="765" d="M142 480l-39 46q48 32 82 51t91.5 35t121.5 16q74 0 135.5 -17t103 -56t41.5 -94q0 -20 -5.5 -37.5t-13 -31.5t-22.5 -27t-27.5 -22t-34 -18.5l-35 -15t-39 -13t-37.5 -10.5l-38 -9.5l-34 -8.5q-114 -28 -179 -73.5t-65 -125.5v-15h522v-54h-589v63q0 191 306 263 q6 1 27 6t32 8l32 8.5t33.5 11l30.5 13t28 16.5t20.5 19.5t15.5 23.5t5 28q0 54 -62 81.5t-149 27.5q-80 0 -138 -23t-120 -66z"/><glyph glyph-name="three.tl" horiz-adv-x="765" d="M353 299v54h121q34 0 70 27t36 73q0 39 -30 66.5t-69.5 38.5t-82.5 11q-129 0 -245 -103l-41 41q137 121 287 121q42 0 83.5 -9.5t79.5 -28t61.5 -51.5t23.5 -75q0 -49 -27.5 -82.5t-62.5 -45.5q23 -4 45 -13.5t45.5 -26.5t38 -45.5t14.5 -64.5q0 -94 -91.5 -148 t-232.5 -54q-193 0 -326 120l41 47q119 -107 285 -107q112 0 184.5 39t72.5 107q0 31 -17 54t-42.5 34t-48.5 16t-43 5h-129z"/><glyph glyph-name="four.tl" horiz-adv-x="765" d="M717 204v-54h-123v-150h-67v150h-490v51l490 412h67v-409h123zM135 208v-4h392v325h-11z"/><glyph glyph-name="five.tl" horiz-adv-x="765" d="M636 613v-60h-453v-200q104 57 226 57q77 0 140 -19.5t106 -66t43 -113.5q0 -78 -49.5 -131t-120 -74.5t-154.5 -21.5q-175 0 -314 107l41 47q115 -94 274 -94q67 0 122.5 15.5t94.5 54.5t39 96q0 72 -65 108t-159 36q-120 0 -242 -65l-43 32v292h514z"/><glyph glyph-name="six.tl" horiz-adv-x="765" d="M661 549l-41 -47q-79 67 -198 67q-117 0 -202 -72.5t-86 -194.5q142 96 298 96q128 0 198 -59.5t70 -135.5q0 -91 -82.5 -155t-206.5 -64q-90 0 -165.5 34.5t-124 106.5t-48.5 171q0 151 103 241.5t247 90.5q136 0 238 -79zM426 344q-140 0 -289 -93q16 -98 93 -152.5 t182 -54.5q94 0 157.5 48.5t63.5 111.5q0 54 -53 97t-154 43z"/><glyph glyph-name="seven.tl" horiz-adv-x="765" d="M59 553v60h638v-60l-423 -553h-87l433 553h-561z"/><glyph glyph-name="eight.tl" horiz-adv-x="765" d="M383 -18q-79 0 -150 22t-118.5 67.5t-47.5 104.5q0 68 57 110.5t139 54.5q-71 10 -109.5 42.5t-38.5 85.5q0 76 83.5 118.5t184.5 42.5t184 -42.5t83 -118.5q0 -53 -38.5 -85.5t-110.5 -42.5q83 -12 140 -54.5t57 -110.5q0 -59 -47.5 -104.5t-118 -67.5t-149.5 -22z M383 42q60 0 114 15.5t91.5 48t37.5 75.5t-39 74.5t-92.5 45t-111.5 13.5q-93 0 -168 -35t-75 -98q0 -43 37 -75.5t91.5 -48t114.5 -15.5zM383 365q93 0 144 25.5t51 73.5q0 53 -60.5 82.5t-134.5 29.5t-134.5 -29.5t-60.5 -82.5q0 -48 51 -73.5t144 -25.5z"/><glyph glyph-name="nine.tl" horiz-adv-x="765" d="M102 64l41 46q80 -66 198 -66q117 0 202.5 72t87.5 194q-144 -96 -299 -96q-129 0 -199 60t-70 136q0 91 83 154.5t207 63.5q141 0 240 -82.5t99 -228.5q0 -101 -50 -178t-129.5 -116t-172.5 -39q-135 0 -238 80zM337 268q141 0 290 93q-16 99 -93 153.5t-182 54.5 q-94 0 -158 -48.5t-64 -111.5q0 -54 53 -97.5t154 -43.5z"/><glyph glyph-name="dollar.tl" horiz-adv-x="765" d="M360 733h47v-108q150 -13 254 -89l-39 -45q-80 66 -215 79v-213q35 -2 63 -4.5t65 -9t64 -19t52 -30.5t38 -46.5t13 -65.5q0 -96 -83.5 -145.5t-211.5 -51.5v-135h-47v136q-174 11 -304 123l39 44q112 -99 265 -111v256q-47 3 -79.5 7t-71 14.5t-62 26t-39.5 42.5t-16 63 q0 48 24.5 84t64.5 55.5t84.5 28.5t92.5 9h2v105zM639 174q0 29 -14 50t-35 33.5t-54 20.5t-61.5 11.5t-67.5 5.5v-254q100 1 166 35t66 98zM156 457q0 -29 18 -48.5t51.5 -29.5t63 -14t71.5 -6v213h-5q-51 0 -93.5 -10t-74 -37t-31.5 -68z"/><glyph glyph-name="cent.tl" horiz-adv-x="765" d="M457 574h47l-29 -108q102 -15 181 -69l-41 -42q-69 45 -154 57l-99 -369q13 -2 38 -2q137 0 223 74l43 -39q-17 -16 -46 -34t-90.5 -36.5t-129.5 -18.5q-26 0 -52 3l-37 -140h-47l39 148q-100 22 -162.5 84t-62.5 149q0 107 91 174t224 67q24 0 36 -1zM146 231 q0 -66 47 -114t124 -67l98 367q-7 1 -22 1q-105 0 -176 -52t-71 -135z"/><glyph glyph-name="Euro.tl" horiz-adv-x="765" d="M55 359v43h93q30 100 110.5 163t183.5 63q149 0 250 -98l-41 -46q-87 85 -209 85q-75 0 -136 -46.5t-88 -120.5h303v-43h-314q-5 -28 -5 -52t3 -45h316v-43h-305q25 -77 87 -126t139 -49q126 0 217 94l41 -47q-109 -107 -258 -107q-104 0 -186 66t-110 169h-91v43h83 q-3 21 -3 45q0 29 4 52h-84z"/><glyph glyph-name="sterling.tl" horiz-adv-x="765" d="M71 304v49h151v96q0 87 67.5 133t160.5 46q47 0 112.5 -20.5t122.5 -54.5l-33 -47q-114 63 -202 63q-65 0 -113 -31t-48 -89v-96h280v-49h-280v-118q0 -61 -18.5 -91t-61.5 -41h475v-54h-613v54h40q64 0 87.5 26.5t23.5 105.5v118h-151z"/><glyph glyph-name="yen.tl" horiz-adv-x="765" d="M75 359v43h188l-162 211h85l199 -263l199 263h79l-161 -211h188v-43h-221l-53 -69v-28h274v-43h-274v-219h-67v219h-274v43h274v28l-53 69h-221z"/><glyph glyph-name="florin.tl" horiz-adv-x="765" d="M229 353h115l27 125q16 77 68.5 114t109.5 37q32 0 63.5 -10.5t46.5 -23.5l-24 -50q-11 11 -37 20t-50 9q-39 0 -72 -24t-43 -72l-27 -125h139v-49h-149l-65 -304q-19 -89 -75.5 -131t-122.5 -42v49q113 13 136 124l65 304h-105v49z"/><glyph glyph-name="colonmonetary.tl" horiz-adv-x="765" d="M547 733h42l-28 -130q79 -28 140 -84l-42 -37q-52 44 -110 65l-109 -505q131 11 231 110l42 -38q-126 -122 -286 -128l-29 -136h-42l29 136q-60 5 -109 22l-34 -158h-41l37 173q-85 42 -135 117.5t-50 165.5q0 126 89.5 217.5t225.5 103.5l23 106h42l-23 -104 q63 -2 111 -14zM120 306q0 -70 35 -128.5t96 -94.5l105 486q-103 -17 -169.5 -91t-66.5 -172zM288 64q55 -22 109 -23l112 519q-54 13 -104 13h-7z"/><glyph glyph-name="franc.tl" horiz-adv-x="765" d="M54 152v43h116v418h543v-60h-476v-175h297v-59h-297v-124h198v-43h-198v-152h-67v152h-116z"/><glyph glyph-name="lira.tl" horiz-adv-x="765" d="M80 359v43h150v47q0 87 67 133t159 46q46 0 110.5 -21t121.5 -54l-33 -47q-50 28 -105.5 45.5t-93.5 17.5q-65 0 -112 -31t-47 -89v-47h276v-43h-276v-97h276v-43h-276v-33q0 -61 -18 -91t-61 -41h469v-54h-607v54h39q64 0 87.5 26.5t23.5 105.5v33h-150v43h150v97h-150z"/><glyph glyph-name="peso.tl" horiz-adv-x="765" d="M41 392v43h97v178h284q112 0 173 -62q44 -49 50 -116h89v-43h-89q-7 -72 -57 -120q-33 -31 -68.5 -44.5t-97.5 -13.5h-217v-214h-67v392h-97zM422 553h-217v-118h373q-6 45 -33 75q-43 43 -123 43zM540 315q31 29 37 77h-372v-118h217q75 0 118 41z"/><glyph glyph-name="Rupee.tl" horiz-adv-x="765" d="M81 392v43h471q-6 43 -34 75q-40 43 -119 43h-318v60h633v-43h-190q85 -41 95 -135h95v-43h-95q-5 -69 -57 -121q-58 -51 -166 -51l-187 4l365 -224h-121l-372 230v44h314q79 0 119 41q32 32 37 77h-470z"/><glyph glyph-name="section.tl" horiz-adv-x="765" d="M655 103q-37 -34 -97 -53q16 -8 30 -24q17 -22 17 -56q0 -49 -36.5 -82.5t-85 -46t-103.5 -12.5q-127 0 -226 63l30 46q87 -55 197 -55q36 0 69 7t60.5 27.5t27.5 51.5q0 22 -13 37q-6 6 -14.5 10.5t-20.5 7.5l-22.5 5.5t-27.5 4.5t-27.5 3.5t-31.5 3.5l-31 3 q-177 20 -247 83q-49 46 -49 111t49 116q37 34 98 55q-17 9 -26 20q-19 25 -19 60q0 72 68 106.5t156 34.5q131 0 227 -63l-30 -45q-85 54 -197 54q-25 0 -50 -4t-50.5 -13t-41 -26.5t-15.5 -41.5q0 -25 16 -38q6 -6 14.5 -10.5t20 -7.5l21.5 -5.5t27 -4.5t27 -3.5 t30.5 -3.5l30.5 -3q180 -18 249 -84q48 -45 48 -110q0 -69 -52 -118zM409 357q-124 12 -165 26q-55 -17 -82 -43q-41 -41 -41 -94q-2 -49 36 -81q53 -48 195 -63q127 -13 163 -26q52 15 82 42q43 40 43 95q1 47 -35 80q-50 49 -196 64z"/><glyph glyph-name="numbersign.tl" horiz-adv-x="765" d="M523 666h51l-30 -204h184v-49h-192l-35 -234h177v-49h-184l-35 -234h-51l35 234h-174l-34 -234h-51l35 234h-184v49h191l35 234h-175v49h183l30 204h50l-30 -204h174zM311 413l-34 -234h173l35 234h-174z"/><glyph glyph-name="percent.tl" horiz-adv-x="765" d="M20 478q0 77 44 132.5t106 55.5t106.5 -55.5t44.5 -132.5q0 -78 -44.5 -133.5t-106.5 -55.5t-106 55.5t-44 133.5zM547 653l-276 -653h-53l276 653h53zM73 478q0 -56 28.5 -96.5t68.5 -40.5q41 0 70 40.5t29 96.5t-29 96t-70 40q-40 0 -68.5 -40t-28.5 -96zM443 176 q0 77 43.5 132.5t106.5 55.5q61 0 106 -55.5t45 -132.5q0 -78 -44.5 -133.5t-106.5 -55.5q-63 0 -106.5 55.5t-43.5 133.5zM495 176q0 -56 29 -97t69 -41t69.5 41t29.5 97q0 55 -29.5 95.5t-69.5 40.5t-69 -40t-29 -96z"/><glyph glyph-name="zero.numerator" horiz-adv-x="578" d="M41 437q0 95 73 161.5t174 66.5q102 0 175.5 -66.5t73.5 -161.5t-73 -162t-176 -67q-101 0 -174 67t-73 162zM100 437q0 -73 55 -125t133 -52t134 52t56 125t-56 124.5t-134 51.5t-133 -51.5t-55 -124.5z"/><glyph glyph-name="one.numerator" horiz-adv-x="301" d="M20 547l-13 47l141 59h59v-433h-59v380z"/><glyph glyph-name="two.numerator" horiz-adv-x="476" d="M88 550l-34 41q33 24 54 37t59.5 25t80.5 12q75 0 128.5 -31t53.5 -89q0 -14 -4 -27t-8.5 -23t-15 -19.5l-17.5 -16t-22.5 -14l-22.5 -11t-26 -9.5l-24 -7.5t-24.5 -6.5t-21.5 -6q-66 -18 -103.5 -47.5t-37.5 -81.5v-9h320v-47h-379v51q0 135 197 186q1 0 13 3l16 4t16 5 t18 6.5l16.5 7t16 8.5t13.5 10.5t11.5 12.5t6.5 14t3 17q0 34 -36 51t-85 17q-50 0 -86 -16t-76 -47z"/><glyph glyph-name="three.numerator" horiz-adv-x="543" d="M249 426v47h87q24 0 47 18t23 47q0 37 -38 56t-85 19q-91 0 -174 -72l-35 36q100 88 210 88q42 0 81 -11t69.5 -39t30.5 -68q0 -33 -18.5 -56.5t-41.5 -32.5q36 -7 66.5 -32.5t30.5 -72.5q0 -68 -66.5 -106.5t-168.5 -38.5q-142 0 -236 87l36 41q83 -76 200 -76 q76 0 126 26t50 70q0 26 -20 43t-41 22t-42 5h-91z"/><glyph glyph-name="four.numerator" horiz-adv-x="559" d="M528 371v-48h-89v-103h-59v103h-352v43l355 287h56v-282h89zM115 373v-2h265v207h-8z"/><glyph glyph-name="five.numerator" horiz-adv-x="516" d="M433 653v-52h-303v-130q70 40 151 40q82 0 140.5 -36t58.5 -106q0 -81 -66.5 -121t-160.5 -40q-122 0 -217 61l31 47q80 -56 186 -56q69 0 118.5 27t49.5 82q0 46 -41 69t-100 23q-85 0 -166 -47l-38 28v211h357z"/><glyph glyph-name="six.numerator" horiz-adv-x="529" d="M467 610l-36 -41q-55 44 -138 44q-79 0 -136.5 -48t-59.5 -128q96 65 205 65q91 0 140.5 -42t49.5 -96q0 -65 -58.5 -110.5t-147.5 -45.5q-100 0 -171.5 59t-71.5 162q0 108 73.5 172t178.5 64q100 0 172 -55zM298 455q-94 0 -198 -62q13 -64 65 -98.5t122 -34.5 q62 0 104 31.5t42 73.5q0 35 -34.5 62.5t-100.5 27.5z"/><glyph glyph-name="seven.numerator" horiz-adv-x="464" d="M31 601v52h405v-52l-258 -381h-77l268 381h-338z"/><glyph glyph-name="eight.numerator" horiz-adv-x="530" d="M265 207q-90 0 -157.5 37t-67.5 100q0 48 38 78t92 38q-98 14 -98 91q0 55 60 85t133 30t133 -30t60 -85q0 -77 -99 -91q55 -8 93 -38t38 -78q0 -63 -68 -100t-157 -37zM265 259q63 0 112 24.5t49 65.5q0 42 -50 64.5t-111 22.5t-111 -22.5t-50 -64.5q0 -41 49 -65.5 t112 -24.5zM265 480q130 0 130 66q0 34 -40.5 53.5t-89.5 19.5t-89 -19.5t-40 -53.5q0 -66 129 -66z"/><glyph glyph-name="nine.numerator" horiz-adv-x="529" d="M62 263l36 41q57 -44 138 -44q79 0 136.5 47.5t60.5 128.5q-99 -65 -206 -65q-91 0 -140 42t-49 96q0 65 58.5 110.5t147.5 45.5q100 0 171 -58.5t71 -162.5q0 -108 -73.5 -172t-177.5 -64q-97 0 -173 55zM233 418q94 0 196 62q-13 64 -65 98.5t-122 34.5 q-62 0 -103.5 -32t-41.5 -74q0 -34 34.5 -61.5t101.5 -27.5z"/><glyph glyph-name="zero.denominator" horiz-adv-x="578" d="M41 217q0 95 73 161.5t174 66.5q102 0 175.5 -66.5t73.5 -161.5t-73 -162t-176 -67q-101 0 -174 67t-73 162zM100 217q0 -73 55 -125t133 -52t134 52t56 125t-56 124.5t-134 51.5t-133 -51.5t-55 -124.5z"/><glyph glyph-name="one.denominator" horiz-adv-x="301" d="M20 327l-13 47l141 59h59v-433h-59v380z"/><glyph glyph-name="two.denominator" horiz-adv-x="476" d="M88 330l-34 41q33 24 54 37t59.5 25t80.5 12q75 0 128.5 -31t53.5 -89q0 -14 -4 -27t-8.5 -23t-15 -19.5l-17.5 -16t-22.5 -14l-22.5 -11t-26 -9.5l-24 -7.5t-24.5 -6.5t-21.5 -6q-66 -18 -103.5 -47.5t-37.5 -81.5v-9h320v-47h-379v51q0 135 197 186q1 0 13 3l16 4t16 5 t18 6.5l16.5 7t16 8.5t13.5 10.5t11.5 12.5t6.5 14t3 17q0 34 -36 51t-85 17q-50 0 -86 -16t-76 -47z"/><glyph glyph-name="three.denominator" horiz-adv-x="542" d="M248 206v47h87q24 0 47 18t23 47q0 37 -38 56t-85 19q-92 0 -173 -72l-36 36q102 88 210 88q42 0 81 -11t69.5 -39t30.5 -68q0 -33 -18.5 -56.5t-41.5 -32.5q36 -7 66.5 -32.5t30.5 -72.5q0 -68 -66.5 -106.5t-167.5 -38.5q-143 0 -237 87l36 41q85 -76 201 -76 q75 0 125.5 26t50.5 70q0 26 -20 43t-41.5 22t-41.5 5h-92z"/><glyph glyph-name="four.denominator" horiz-adv-x="559" d="M528 151v-48h-89v-103h-59v103h-352v43l355 287h56v-282h89zM115 153v-2h265v207h-8z"/><glyph glyph-name="five.denominator" horiz-adv-x="516" d="M433 433v-52h-303v-130q70 40 151 40q82 0 140.5 -36t58.5 -106q0 -81 -66.5 -121t-160.5 -40q-122 0 -217 61l31 47q80 -56 186 -56q69 0 118.5 27t49.5 82q0 46 -41 69t-100 23q-85 0 -166 -47l-38 28v211h357z"/><glyph glyph-name="six.denominator" horiz-adv-x="529" d="M467 390l-36 -41q-55 44 -138 44q-79 0 -136.5 -48t-59.5 -128q96 65 205 65q91 0 140.5 -42t49.5 -96q0 -65 -58.5 -110.5t-147.5 -45.5q-100 0 -171.5 59t-71.5 162q0 108 73.5 172t178.5 64q100 0 172 -55zM298 235q-94 0 -198 -62q13 -64 65 -98.5t122 -34.5 q62 0 104 31.5t42 73.5q0 35 -34.5 62.5t-100.5 27.5z"/><glyph glyph-name="seven.denominator" horiz-adv-x="464" d="M31 381v52h405v-52l-258 -381h-77l268 381h-338z"/><glyph glyph-name="eight.denominator" horiz-adv-x="530" d="M265 -13q-90 0 -157.5 37t-67.5 100q0 48 38 78t92 38q-98 14 -98 91q0 55 60 85t133 30t133 -30t60 -85q0 -77 -99 -91q55 -8 93 -38t38 -78q0 -63 -68 -100t-157 -37zM265 39q63 0 112 24.5t49 65.5q0 42 -50 64.5t-111 22.5t-111 -22.5t-50 -64.5q0 -41 49 -65.5 t112 -24.5zM265 260q130 0 130 66q0 34 -40.5 53.5t-89.5 19.5t-89 -19.5t-40 -53.5q0 -66 129 -66z"/><glyph glyph-name="nine.denominator" horiz-adv-x="529" d="M62 43l36 41q57 -44 138 -44q79 0 136.5 47.5t60.5 128.5q-99 -65 -206 -65q-91 0 -140 42t-49 96q0 65 58.5 110.5t147.5 45.5q100 0 171 -58.5t71 -162.5q0 -108 -73.5 -172t-177.5 -64q-97 0 -173 55zM233 198q94 0 196 62q-13 64 -65 98.5t-122 34.5 q-62 0 -103.5 -32t-41.5 -74q0 -34 34.5 -61.5t101.5 -27.5z"/><glyph glyph-name="acute.cap" d="M185 740l131 118l82 -3l-156 -119z"/><glyph glyph-name="grave.cap" d="M257 736l-156 119l83 3l131 -118z"/><glyph glyph-name="circumflex.cap" d="M106 740l110 119h68l109 -119l-49 -4l-94 86l-95 -86z"/><glyph glyph-name="dieresis.cap" d="M346 828q17 0 29 -11.5t12 -26.5q0 -16 -12 -27t-29 -11t-28.5 11t-11.5 27q0 15 11.5 26.5t28.5 11.5zM153 828q17 0 29 -11.5t12 -26.5q0 -16 -12 -27t-29 -11t-28.5 11t-11.5 27q0 15 11.5 26.5t28.5 11.5z"/><glyph glyph-name="tilde.cap" d="M131 741l-41 22q44 72 93 72q26 0 68 -30q35 -27 58 -27q25 0 57 46l39 -21q-43 -73 -93 -73q-34 0 -71 27q-38 31 -55 31q-23 0 -55 -47z"/><glyph glyph-name="ring.cap" d="M174 788q0 -26 20.5 -43.5t52.5 -17.5q33 0 54 17t21 44q0 28 -21 46.5t-54 18.5q-32 0 -52.5 -18.5t-20.5 -46.5zM247 696q-52 0 -82 26t-30 66q0 41 30 68t82 27t83.5 -27.5t31.5 -67.5q0 -39 -31 -65.5t-84 -26.5z"/><glyph glyph-name="cedilla.cap" d="M254 10h42l-27 -77q28 8 48 8q38 0 66.5 -19t28.5 -57q0 -42 -43 -66.5t-112 -24.5q-51 0 -147 24l11 36q86 -21 134 -21q45 0 72.5 13.5t27.5 38.5q0 43 -59 43q-17 0 -55 -9l-20 22z"/><glyph glyph-name="breve.cap" d="M117 856h47q0 -85 86 -85t86 85h46q0 -52 -29.5 -90t-102.5 -38q-74 0 -103.5 38t-29.5 90z"/><glyph glyph-name="caron.cap" d="M155 860l95 -85l94 85l49 -4l-109 -119h-68l-110 119z"/><glyph glyph-name="dotaccent.cap" d="M250 828q17 0 29 -11.5t12 -26.5q0 -16 -12 -27t-29 -11t-28.5 11t-11.5 27q0 15 11.5 26.5t28.5 11.5z"/><glyph glyph-name="hungarumlaut.cap" d="M173 731l-41 2l58 136l57 -2zM340 731l-40 2l58 136l57 -2z"/><glyph glyph-name="macron.cap" d="M125 818h250v-49h-250v49z"/><glyph glyph-name="ogonek.cap" d="M266 19l29 -19q-18 -7 -36.5 -17t-41.5 -25.5t-37.5 -36t-14.5 -41.5q0 -30 25 -47t68 -17q21 0 67 8l6 -40q-47 -10 -83 -10q-63 0 -100.5 26t-37.5 69q0 28 17.5 54t45 45t49.5 31t44 20z"/><glyph glyph-name="commaaccent.cap" d="M252 -58l49 15q53 -41 53 -93q0 -46 -40 -73.5t-108 -27.5q-36 0 -75 9l6 39q33 -5 59 -5q47 0 73 16.5t26 46.5q0 40 -43 73z"/><glyph glyph-name="caron.cap.alt" d="M210 488q20 79 20 212h62q0 -126 -46 -213z"/><glyph glyph-name="ampersand.cap" horiz-adv-x="769" d="M550 617l-34 -52q-68 44 -144 44q-54 0 -91 -25.5t-37 -67.5q0 -17 7 -34.5t21.5 -35.5t24.5 -29t29.5 -29.5l22.5 -21.5l196 -195q60 59 114 142l54 -28q-59 -89 -127 -155l132 -130h-89l-90 88q-127 -102 -250 -102q-36 0 -73 10t-74 31t-60.5 62.5t-23.5 96.5 q0 45 15 81t42.5 59.5t54.5 38t63 27.5q-56 63 -56 123q0 70 58 112t138 42t177 -52zM293 330l-21 20q-22 -8 -38 -15t-38.5 -21t-36 -29.5t-24 -40.5t-10.5 -54q0 -50 29 -84t65.5 -47t75.5 -13q98 0 203 82z"/><glyph glyph-name="zero.cap" horiz-adv-x="834" d="M68 327q0 141 102.5 241.5t245.5 100.5q144 0 247 -100.5t103 -241.5q0 -143 -103 -243.5t-247 -100.5q-143 0 -245.5 100.5t-102.5 243.5zM135 327q0 -118 82.5 -201t198.5 -83t199.5 83.5t83.5 200.5q0 116 -83.5 199.5t-199.5 83.5t-198.5 -83.5t-82.5 -199.5z"/><glyph glyph-name="one.cap" horiz-adv-x="423" d="M30 508l-15 54l205 91h67v-653h-67v592z"/><glyph glyph-name="one.cap.alt" horiz-adv-x="408" d="M238 0h-67v653h67v-653z"/><glyph glyph-name="two.cap" horiz-adv-x="684" d="M124 515l-39 46q44 34 75.5 53.5t84 37t111.5 17.5q67 0 123 -18t94 -59.5t38 -100.5q0 -21 -5 -39.5t-12 -33t-21 -28.5t-24.5 -23.5t-31 -20l-32 -16t-36 -13.5l-34 -11t-34.5 -10t-31 -9q-100 -30 -158 -79.5t-58 -136.5v-17h469v-54h-536v65q0 202 279 280 q1 0 30 8.5t38.5 12l35.5 13t37.5 19l27.5 23.5t22.5 31.5t6.5 37.5q0 59 -55 89.5t-132 30.5q-72 0 -124 -24.5t-109 -70.5z"/><glyph glyph-name="three.cap" horiz-adv-x="779" d="M359 321v54h123q36 0 73.5 29t37.5 80q0 62 -58.5 94t-130.5 32q-131 0 -252 -111l-41 42q142 128 295 128q43 0 85.5 -10t81.5 -29.5t63 -55t24 -80.5q0 -52 -29 -87t-65 -49q24 -5 46.5 -15t47 -28t39.5 -48.5t15 -68.5q0 -100 -94 -157.5t-238 -57.5q-198 0 -333 128 l41 47q122 -115 292 -115q115 0 190 42.5t75 116.5q0 33 -17.5 58t-44 37.5t-50.5 18t-44 5.5h-132z"/><glyph glyph-name="four.cap" horiz-adv-x="786" d="M740 215v-54h-128v-161h-67v161h-507v52l507 440h67v-438h128zM136 219v-4h409v354h-11z"/><glyph glyph-name="five.cap" horiz-adv-x="741" d="M619 653v-60h-442v-217q100 60 221 60q75 0 137 -20.5t104 -70t42 -121.5q0 -62 -27.5 -110t-74 -75.5t-101 -41.5t-115.5 -14q-173 0 -308 114l41 47q114 -101 268 -101q65 0 119.5 17.5t92.5 59.5t38 103q0 79 -63 118t-155 39q-120 0 -237 -68l-43 32v309h503z"/><glyph glyph-name="six.cap" horiz-adv-x="759" d="M659 584l-41 -47q-78 73 -197 73q-118 0 -203.5 -78.5t-86.5 -210.5q144 103 299 103q129 0 199 -64t70 -144q0 -96 -83 -164.5t-207 -68.5q-90 0 -166 36.5t-124.5 113.5t-48.5 182q0 161 103.5 257.5t248.5 96.5q136 0 237 -85zM425 370q-140 0 -291 -99 q14 -108 92 -168t184 -60q94 0 158 52.5t64 121.5q0 59 -53 106t-154 47z"/><glyph glyph-name="seven.cap" horiz-adv-x="648" d="M32 593v60h568v-60l-372 -593h-87l382 593h-491z"/><glyph glyph-name="eight.cap" horiz-adv-x="760" d="M380 -19q-79 0 -150 23.5t-118 72t-47 110.5q0 73 57 119t139 58q-148 22 -148 136q0 55 43 95.5t102 58t122 17.5t122 -17.5t102 -58t43 -95.5q0 -114 -148 -136q82 -12 139 -58t57 -119q0 -62 -47.5 -110.5t-118.5 -72t-149 -23.5zM380 41q94 0 168.5 41t74.5 110 q0 47 -38.5 81t-92.5 49t-112 15t-111.5 -15t-92 -49t-38.5 -81q0 -46 37 -81.5t91.5 -52.5t113.5 -17zM380 388q93 0 144 27.5t51 79.5q0 58 -60.5 90t-134.5 32t-134 -32t-60 -90q0 -52 50.5 -79.5t143.5 -27.5z"/><glyph glyph-name="nine.cap" horiz-adv-x="761" d="M101 69l41 46q80 -72 198 -72q117 0 201.5 77.5t87.5 209.5q-142 -102 -298 -102q-66 0 -119.5 19t-85 50t-48 67t-16.5 73q0 96 83 164t207 68q67 0 127 -21.5t108 -62t76 -104.5t28 -143q0 -161 -103.5 -258t-248.5 -97q-132 0 -238 86zM336 282q140 0 290 99 q-14 108 -92 168.5t-183 60.5q-94 0 -158 -52.5t-64 -121.5q0 -59 53 -106.5t154 -47.5z"/><glyph glyph-name="exclamdown.cap" horiz-adv-x="324" d="M197 613q0 -20 -16 -35t-39 -15t-38.5 14.5t-15.5 35.5t15.5 35.5t38.5 14.5t39 -14.5t16 -35.5zM119 457h45l14 -299v-158h-72v158z"/><glyph glyph-name="questiondown.cap" horiz-adv-x="596" d="M483 137l43 -39q-53 -55 -113 -83.5t-153 -28.5q-95 0 -155.5 36.5t-60.5 118.5q0 43 19.5 71.5t57.5 57.5q17 14 55 39.5t58 41t40 44.5t25 62h60q-3 -43 -25.5 -80t-44 -54.5t-65.5 -47.5t-58 -41q-32 -23 -47 -42t-15 -49q0 -53 45 -78t113 -25q75 0 125.5 25t95.5 72 zM371 613q0 -21 -15.5 -35.5t-38.5 -14.5t-39 15t-16 35q0 21 16 35.5t39 14.5t38.5 -14.5t15.5 -35.5z"/><glyph glyph-name="guilsinglleft.cap" horiz-adv-x="317" d="M167 484h75l-121 -136v-8l121 -135h-75l-108 122v34z"/><glyph glyph-name="guilsinglright.cap" horiz-adv-x="317" d="M75 484h74l108 -123v-34l-108 -122h-74l121 135v8z"/><glyph glyph-name="guillemotleft.cap" horiz-adv-x="536" d="M167 484h75l-121 -136v-8l121 -135h-75l-108 122v34zM387 484h74l-121 -136v-8l121 -135h-74l-118 134v10z"/><glyph glyph-name="guillemotright.cap" horiz-adv-x="536" d="M294 484h75l108 -123v-34l-108 -122h-75l121 135v8zM75 484h74l118 -135v-10l-118 -134h-74l121 135v8z"/><glyph glyph-name="hyphen.cap" horiz-adv-x="397" d="M70 323v60h257v-60h-257z"/><glyph glyph-name="endash.cap" horiz-adv-x="634" d="M70 328v55h494v-55h-494z"/><glyph glyph-name="emdash.cap" horiz-adv-x="1114" d="M70 328v55h974v-55h-974z"/><glyph glyph-name="parenleft.cap" horiz-adv-x="370" d="M344 -73l-34 -42q-120 59 -187 176.5t-67 254.5q0 138 67 256t187 177l34 -42q-102 -52 -161.5 -160t-59.5 -231t59.5 -230t161.5 -159z"/><glyph glyph-name="parenright.cap" horiz-adv-x="370" d="M26 707l33 42q120 -59 187.5 -177t67.5 -256t-67.5 -255t-187.5 -176l-33 42q102 52 161.5 159t59.5 230t-59.5 231t-161.5 160z"/><glyph glyph-name="bracketleft.cap" horiz-adv-x="343" d="M304 -48v-54h-202v843h202v-54h-141v-735h141z"/><glyph glyph-name="bracketright.cap" horiz-adv-x="343" d="M40 741h202v-843h-202v54h140v735h-140v54z"/><glyph glyph-name="braceleft.cap" horiz-adv-x="376" d="M339 -48v-54q-114 0 -152 31t-38 131v127q0 111 -117 111v61q47 0 82.5 32t35.5 83v103q1 101 39.5 133t149.5 32v-54q-75 0 -101 -21.5t-27 -89.5v-103q0 -61 -35 -100t-83 -42v-8q117 -2 117 -137v-127q0 -67 26 -87.5t103 -20.5z"/><glyph glyph-name="braceright.cap" horiz-adv-x="376" d="M37 -102v54q75 0 102 21t27 87v127q0 135 117 137v8q-48 3 -83 42.5t-35 99.5v103q-1 68 -27.5 89.5t-100.5 21.5v54q112 0 150.5 -32t39.5 -133v-103q0 -51 35 -83t83 -32v-61q-117 0 -117 -111v-127q0 -100 -38.5 -131t-152.5 -31z"/><glyph glyph-name="bullet.cap" horiz-adv-x="484" d="M242 199q-65 0 -110.5 43.5t-45.5 104.5t45.5 104.5t110.5 43.5q64 0 110 -43.5t46 -104.5t-46 -104.5t-110 -43.5z"/><glyph glyph-name="at.cap" horiz-adv-x="991" d="M665 510h57l-93 -282q-4 -11 -4 -22q0 -27 17 -42t46 -15q68 0 133 71t65 174q0 117 -93.5 195t-243.5 78q-115 0 -212.5 -46t-158 -134.5t-60.5 -199.5q0 -83 34.5 -150t90.5 -107.5t123 -62t136 -21.5q68 0 144.5 18t118.5 41l17 -41q-44 -25 -126 -45.5t-157 -20.5 q-77 0 -152.5 24.5t-140 70.5t-104.5 122.5t-40 171.5q0 126 68.5 225t179 151.5t239.5 52.5q173 0 280.5 -91.5t107.5 -228.5q0 -126 -85.5 -211t-176.5 -85q-44 0 -71.5 21t-27.5 57v8q-71 -85 -159 -85q-59 0 -100 40.5t-41 117.5q0 109 79 188.5t163 79.5q47 0 79.5 -28 t40.5 -68zM432 155q72 0 141 78l46 141q-6 40 -34 69.5t-67 29.5q-62 0 -121 -60t-59 -147q0 -55 26 -83t68 -28z"/><glyph glyph-name="copyright.cap" horiz-adv-x="999" d="M500 -98q-183 0 -313 118.5t-130 287.5t130 288t313 119q182 0 312 -119t130 -288t-130 -287.5t-312 -118.5zM500 -55q161 0 276 106.5t115 256.5t-115 257t-276 107t-276.5 -107t-115.5 -257t115.5 -256.5t276.5 -106.5zM704 453l-25 -41q-75 65 -172 65 q-82 0 -133 -48.5t-51 -119.5q0 -68 54 -111t133 -43q58 0 95.5 15t78.5 45l25 -41q-43 -34 -87 -51t-112 -17q-103 0 -173.5 56.5t-70.5 146.5q0 93 67 155t174 62q106 0 197 -73z"/><glyph glyph-name="soundrecordingcopyright.cap" horiz-adv-x="999" d="M942 309q0 -169 -130 -288t-313 -119t-312.5 119t-129.5 288t129.5 287.5t312.5 118.5t313 -118.5t130 -287.5zM891 310q0 150 -115.5 256t-276.5 106q-162 0 -276.5 -106.5t-114.5 -255.5q0 -151 114.5 -258t276.5 -107q161 0 276.5 107.5t115.5 257.5zM576 246h-181 v-121h-57v385h208q32 0 61 -5t58.5 -18t47.5 -40t18 -66q0 -64 -47 -99.5t-108 -35.5zM395 461v-166h181q38 0 68 22t30 64q0 44 -34.5 62t-79.5 18h-165z"/><glyph glyph-name="dollar.cap" horiz-adv-x="716" d="M338 781h47v-116q139 -14 239 -94l-39 -45q-72 68 -200 83v-230q33 -1 59 -4.5t60.5 -10t60 -20t48.5 -32.5t35.5 -49.5t12.5 -69.5q0 -102 -78 -154.5t-198 -54.5v-144h-47v146q-163 12 -285 130l39 44q105 -105 246 -117v277q-45 4 -75 8t-66.5 15t-58 27t-36.5 44.5 t-15 66.5q0 51 23 89t60.5 58.5t79 30t86.5 9.5h2v113zM598 186q0 38 -17.5 64t-51 39.5t-65.5 19t-79 8.5v-276q93 2 153 38.5t60 106.5zM151 487q0 -25 12 -44t29.5 -29.5t44.5 -18t49.5 -10t51.5 -4.5v231h-4q-76 0 -129.5 -30t-53.5 -95z"/><glyph glyph-name="cent.cap" horiz-adv-x="596" d="M356 610h47l-24 -118q83 -18 144 -71l-42 -42q-45 42 -112 59l-80 -397q8 -1 25 -1q93 0 173 80l42 -39q-23 -31 -79.5 -63t-135.5 -32q-12 0 -36 2l-29 -148h-47l31 158q-79 24 -128.5 89.5t-49.5 157.5q0 113 73 184t180 71q4 0 13 -0.5t13 -0.5zM122 245 q0 -69 33.5 -120t88.5 -72l79 392q-5 1 -15 1q-79 0 -132.5 -55.5t-53.5 -145.5z"/><glyph glyph-name="Euro.cap" horiz-adv-x="816" d="M58 384v43h99q32 106 119 174t197 68q160 0 268 -105l-41 -46q-92 92 -227 92q-83 0 -150 -51t-96 -132h331v-43h-343q-5 -32 -5 -57q0 -28 4 -49h344v-43h-334q27 -84 96 -138t153 -54q137 0 236 101l41 -47q-117 -114 -277 -114q-112 0 -200 71t-118 181h-97v43h88 q-3 24 -3 49q0 32 4 57h-89z"/><glyph glyph-name="sterling.cap" horiz-adv-x="746" d="M64 326v49h152v103q0 63 34.5 107.5t85 64t109.5 19.5q47 0 113 -22t123 -58l-33 -47q-50 30 -106.5 49t-96.5 19q-65 0 -113.5 -34t-48.5 -98v-103h281v-49h-281v-130q0 -66 -18 -98.5t-62 -43.5h477v-54h-616v54h40q64 0 88 28.5t24 113.5v130h-152z"/><glyph glyph-name="yen.cap" horiz-adv-x="775" d="M66 384v43h199l-171 226h84l212 -283l211 283h79l-171 -226h200v-43h-232l-56 -74v-32h288v-43h-288v-235h-67v235h-288v43h288v32l-56 74h-232z"/><glyph glyph-name="florin.cap" horiz-adv-x="408" d="M52 375h114l27 133q17 82 69 122t110 40q31 0 63.5 -12t46.5 -26l-25 -50q-10 12 -36 22.5t-50 10.5q-40 0 -72 -26.5t-43 -81.5l-27 -132h138v-49h-148l-65 -326q-19 -94 -75.5 -139t-122.5 -45v50q111 11 136 134l65 326h-105v49z"/><glyph glyph-name="colonmonetary.cap" horiz-adv-x="754" d="M540 781h41l-28 -140q79 -30 139 -88l-43 -37q-49 46 -107 69l-108 -544q125 11 227 117l41 -38q-55 -58 -127.5 -95t-152.5 -40l-28 -145h-41l29 145q-55 4 -108 23l-33 -168h-41l37 185q-83 44 -132 124t-49 177q0 133 87 230.5t221 110.5l23 114h41l-23 -112 q58 -2 110 -15zM123 326q0 -75 33.5 -138.5t92.5 -101.5l104 522q-100 -17 -165 -96.5t-65 -185.5zM286 66q49 -23 107 -26l111 559q-51 14 -103 14h-7z"/><glyph glyph-name="franc.cap" horiz-adv-x="708" d="M62 165v43h104v445h493v-60h-426v-192h265v-58h-265v-135h179v-43h-179v-165h-67v165h-104z"/><glyph glyph-name="lira.cap" horiz-adv-x="752" d="M71 384v43h152v51q0 63 34.5 107.5t85 64t109.5 19.5q48 0 113.5 -22t122.5 -58l-33 -47q-50 30 -106.5 49t-96.5 19q-65 0 -113.5 -34t-48.5 -98v-51h281v-43h-281v-106h281v-43h-281v-39q0 -66 -18 -98.5t-62 -43.5h477v-54h-616v54h40q65 0 88.5 28t23.5 114v39h-152 v43h152v106h-152z"/><glyph glyph-name="peso.cap" horiz-adv-x="835" d="M50 421v43h104v189h317q116 0 178 -65q43 -50 49 -124h96v-43h-96q-8 -79 -56 -128q-61 -59 -171 -59h-250v-234h-67v421h-104zM471 593h-250v-129h410q-7 51 -34 84q-41 45 -126 45zM593 334q32 37 38 87h-410v-128h250q81 0 122 41z"/><glyph glyph-name="peseta.cap" horiz-adv-x="1554" d="M171 0h-67v653h347q115 0 178 -65q49 -52 49 -122v-7h82v141h62v-141h151v-49h-151v-297q0 -37 20.5 -55.5t50.5 -18.5q53 0 85 21l9 -48q-15 -11 -46 -19.5t-59 -8.5q-49 0 -85.5 31.5t-36.5 97.5v297h-91q-13 -41 -46 -74q-66 -58 -172 -58h-280v-278zM451 593h-280 v-256h280q77 0 122 41q38 36 38 87q0 49 -33 84q-44 44 -127 44zM1461 415l-25 -47q-80 54 -174 54q-50 0 -87.5 -19.5t-37.5 -59.5q0 -22 12.5 -36.5t38.5 -21t44 -8.5t50 -4q28 -1 44 -2.5t45.5 -6.5t48 -14t38 -23t29 -36.5t9.5 -52.5q0 -74 -61 -113t-155 -39 q-120 0 -223 72l25 47q100 -68 197 -68q67 0 111 25t44 71q0 25 -14 42t-41 24.5t-46.5 10t-50.5 4.5l-42.5 3t-40 4.5t-40 8.5t-32.5 14t-28.5 21t-16.5 30t-7 41q0 72 55.5 105t130.5 33q59 0 114 -18.5t86 -40.5z"/><glyph glyph-name="rupiah.cap" horiz-adv-x="1353" d="M899 -212h-62v558q0 62 -13 114h58q11 -39 11 -72q31 35 78.5 59.5t99.5 24.5q96 0 163 -67.5t67 -175.5q0 -107 -69.5 -174.5t-169.5 -67.5q-96 0 -163 79v-278zM899 341v-223q72 -77 157 -77q75 0 126 52t51 136t-48.5 136.5t-119.5 52.5q-91 0 -166 -77zM177 0h-67 v653h359q119 0 178 -64q49 -52 49 -125q0 -67 -43 -116t-115 -62l164 -286h-76l-156 278h-293v-278zM469 593h-292v-256h316q60 0 98 37.5t38 90.5q0 49 -34 85q-42 43 -126 43z"/><glyph glyph-name="Rupee.cap" horiz-adv-x="812" d="M115 421v43h474q-5 52 -33 84q-39 45 -123 45h-318v60h638v-43h-191q85 -39 94 -146h97v-43h-97q-7 -81 -55 -128q-54 -54 -171 -54l-184 5l390 -244h-121l-400 250v43h315q84 0 122 40q30 33 37 88h-474z"/><glyph glyph-name="section.cap" horiz-adv-x="731" d="M629 110q-36 -38 -92 -58q17 -9 28 -25q16 -27 16 -60q0 -52 -35 -87t-81.5 -48.5t-99.5 -13.5q-121 0 -217 68l30 46q83 -60 188 -60q55 0 101.5 22.5t46.5 71.5q0 26 -13 40q-7 7 -18 13t-21 9.5t-28 6.5t-29 4.5l-34.5 4.5t-33.5 4q-174 23 -237 88q-48 48 -48 118 q0 68 48 123q38 39 92 60q-15 9 -24 21q-19 27 -19 64q0 53 35.5 88t82 48t99.5 13q124 0 216 -68l-30 -45q-80 59 -187 59q-55 0 -102 -22t-47 -71q0 -27 15 -42q8 -8 19.5 -14t32 -10.5t31 -6.5t41 -5.5t38.5 -4.5q174 -20 240 -89q45 -48 45 -117q0 -73 -49 -125z M392 383q-114 11 -158 28q-48 -19 -75 -48q-40 -45 -40 -101q0 -54 35 -88q49 -51 184 -68q117 -13 157 -28q46 16 75 47q41 44 41 102q0 52 -32 87q-48 52 -187 69z"/><glyph glyph-name="numbersign.cap" horiz-adv-x="921" d="M630 709h52l-36 -218h220v-49h-228l-42 -253h211v-49h-219l-41 -251h-52l41 251h-213l-41 -251h-51l41 251h-219v49h227l42 253h-210v49h218l36 218h51l-36 -218h213zM373 442l-42 -253h213l42 253h-213z"/><glyph glyph-name="percent.cap" horiz-adv-x="1080" d="M54 478q0 77 59 132.5t142 55.5t143.5 -55.5t60.5 -132.5q0 -78 -60.5 -133.5t-143.5 -55.5q-84 0 -142.5 55.5t-58.5 133.5zM752 653l-370 -653h-55l371 653h54zM113 478q0 -56 41.5 -96.5t100.5 -40.5q60 0 103 40.5t43 96.5t-43 96t-103 40q-59 0 -100.5 -40 t-41.5 -96zM620 176q0 77 59 132.5t142 55.5t143.5 -55.5t60.5 -132.5q0 -78 -60.5 -133.5t-143.5 -55.5q-84 0 -142.5 55.5t-58.5 133.5zM678 176q0 -56 42 -97t101 -41t102.5 41t43.5 97q0 55 -43.5 95.5t-102.5 40.5t-101 -40t-42 -96z"/><glyph glyph-name="perthousand.cap" horiz-adv-x="1539" d="M57 478q0 77 59 132.5t142 55.5t143.5 -55.5t60.5 -132.5q0 -78 -60.5 -133.5t-143.5 -55.5q-84 0 -142.5 55.5t-58.5 133.5zM754 653l-370 -653h-54l370 653h54zM115 478q0 -57 41.5 -97t101.5 -40q59 0 102 40.5t43 96.5t-43 96t-102 40q-60 0 -101.5 -40t-41.5 -96z M622 176q0 77 59 132.5t142 55.5t143.5 -55.5t60.5 -132.5q0 -78 -60.5 -133.5t-143.5 -55.5q-84 0 -142.5 55.5t-58.5 133.5zM680 176q0 -56 42 -97t101 -41q60 0 103 41t43 97t-43 96t-103 40q-59 0 -101 -40t-42 -96zM1081 176q0 77 59 132.5t142 55.5t143.5 -55.5 t60.5 -132.5q0 -78 -60.5 -133.5t-143.5 -55.5q-84 0 -142.5 55.5t-58.5 133.5zM1140 176q0 -57 41.5 -97.5t100.5 -40.5q60 0 103 41t43 97t-43 96t-103 40q-59 0 -100.5 -40t-41.5 -96z"/><glyph glyph-name="ij.alt" horiz-adv-x="515" d="M160 0h-62v459h62v-459zM86 641q0 17 12 28.5t30 11.5q19 0 31 -11.5t12 -28.5t-12 -28t-31 -11q-18 0 -30 11.5t-12 27.5zM164 -193l14 50q31 -29 85 -29q39 0 65.5 24t26.5 72v535h62v-535q0 -77 -43 -114t-100 -37q-73 0 -110 34zM343 641q0 17 12 28.5t30 11.5 q19 0 31 -11.5t12 -28.5t-12 -28t-31 -11q-18 0 -30 11.5t-12 27.5z"/><glyph glyph-name="j.alt" horiz-adv-x="257" d="M-93 -193l14 50q31 -29 85 -29q39 0 65.5 24t26.5 72v535h62v-535q0 -77 -43 -114t-100 -37q-73 0 -110 34zM86 641q0 17 12 28.5t30 11.5q19 0 31 -11.5t12 -28.5t-12 -28t-31 -11q-18 0 -30 11.5t-12 27.5z"/><glyph glyph-name="jcircumflex.alt" horiz-adv-x="257" d="M-15 547l110 125h68l109 -125l-49 -4l-94 92l-95 -92zM-93 -193l14 50q31 -29 85 -29q39 0 65.5 24t26.5 72v535h62v-535q0 -77 -43 -114t-100 -37q-73 0 -110 34z"/><glyph glyph-name="dotlessj.alt" horiz-adv-x="257" d="M-93 -193l14 50q31 -29 85 -29q39 0 65.5 24t26.5 72v535h62v-535q0 -77 -43 -114t-100 -37q-73 0 -110 34z"/><glyph glyph-name="r.alt" horiz-adv-x="488" d="M292 415q-63 0 -131 -91v-324h-62v350q0 57 -15 109h58q11 -34 13 -81q64 94 150 94q66 0 106 -44.5t37 -116.5h-60q1 47 -26 75.5t-70 28.5z"/><glyph glyph-name="racute.alt" horiz-adv-x="488" d="M292 415q-63 0 -131 -91v-324h-62v350q0 57 -15 109h58q11 -34 13 -81q64 94 150 94q66 0 106 -44.5t37 -116.5h-60q1 47 -26 75.5t-70 28.5zM302 690l70 -2l-103 -146l-56 2z"/><glyph glyph-name="rcaron.alt" horiz-adv-x="488" d="M292 415q-63 0 -131 -91v-324h-62v350q0 57 -15 109h58q11 -34 13 -81q64 94 150 94q66 0 106 -44.5t37 -116.5h-60q1 47 -26 75.5t-70 28.5zM118 670l49 3l95 -92l94 92l49 -3l-109 -126h-68z"/><glyph glyph-name="uni0157.alt" horiz-adv-x="488" d="M292 415q-63 0 -131 -91v-324h-62v350q0 57 -15 109h58q11 -34 13 -81q64 94 150 94q66 0 106 -44.5t37 -116.5h-60q1 47 -26 75.5t-70 28.5zM198 -56l49 13q57 -43 57 -93q0 -46 -39 -73.5t-106 -27.5q-35 0 -59 6v39q24 -4 53 -4q43 0 67.5 16.5t24.5 46.5q0 39 -47 77 z"/><glyph glyph-name="y.alt" horiz-adv-x="550" d="M214 -31l22 44l-200 446h70l162 -378h3l180 378h63l-252 -518q-82 -168 -211 -168q-81 0 -133 36l19 50q44 -34 116 -34q53 0 90.5 37t70.5 107z"/><glyph glyph-name="yacute.alt" horiz-adv-x="550" d="M214 -31l22 44l-200 446h70l162 -378h3l180 378h63l-252 -518q-82 -168 -211 -168q-81 0 -133 36l19 50q44 -34 116 -34q53 0 90.5 37t70.5 107zM314 690l70 -2l-103 -146l-56 2z"/><glyph glyph-name="ydieresis.alt" horiz-adv-x="550" d="M214 -31l22 44l-200 446h70l162 -378h3l180 378h63l-252 -518q-82 -168 -211 -168q-81 0 -133 36l19 50q44 -34 116 -34q53 0 90.5 37t70.5 107zM330 596q0 16 11.5 27t28.5 11t29 -11t12 -27t-12 -26.5t-29 -10.5t-28.5 10.5t-11.5 26.5zM137 596q0 16 11.5 27t28.5 11 t29 -11t12 -27t-12 -26.5t-29 -10.5t-28.5 10.5t-11.5 26.5z"/><glyph glyph-name="ycircumflex.alt" horiz-adv-x="550" d="M214 -31l22 44l-200 446h70l162 -378h3l180 378h63l-252 -518q-82 -168 -211 -168q-81 0 -133 36l19 50q44 -34 116 -34q53 0 90.5 37t70.5 107zM130 547l110 125h68l109 -125l-49 -4l-94 92l-95 -92z"/><glyph glyph-name="ygrave.alt" horiz-adv-x="550" d="M214 -31l22 44l-200 446h70l162 -378h3l180 378h63l-252 -518q-82 -168 -211 -168q-81 0 -133 36l19 50q44 -34 116 -34q53 0 90.5 37t70.5 107zM163 688l70 2l89 -146l-55 -2z"/><glyph glyph-name="caron.alt" d="M246 487l-36 1q20 79 20 212h62q0 -126 -46 -213z"/><glyph glyph-name="fi" horiz-adv-x="600" d="M41 459h94v101q0 77 41 114t95 37q48 0 82 -17l-12 -52q-25 14 -59 14q-36 0 -60.5 -24t-24.5 -72v-101h147v-49h-147v-410h-62v410h-94v49zM504 0h-62v459h62v-459zM430 641q0 17 12 28.5t30 11.5q19 0 31 -11.5t12 -28.5t-12 -28t-31 -11q-18 0 -30 11.5t-12 27.5z"/><glyph glyph-name="fl" horiz-adv-x="622" d="M41 459h94v101q0 77 41 114t95 37q48 0 82 -17l-12 -52q-25 14 -59 14q-36 0 -60.5 -24t-24.5 -72v-101h147v-49h-147v-410h-62v410h-94v49zM516 0h-62v700h62v-700z"/><glyph glyph-name="f_j.alt" horiz-adv-x="600" d="M41 459h94v101q0 77 41 114t95 37q48 0 82 -17l-12 -52q-25 14 -59 14q-36 0 -60.5 -24t-24.5 -72v-101h147v-49h-147v-410h-62v410h-94v49zM251 -193l14 50q31 -29 85 -29q39 0 65.5 24t26.5 72v535h62v-535q0 -77 -43 -114t-100 -37q-73 0 -110 34zM430 641 q0 17 12 28.5t30 11.5q19 0 31 -11.5t12 -28.5t-12 -28t-31 -11q-18 0 -30 11.5t-12 27.5z"/><glyph glyph-name="f_f_j.alt" horiz-adv-x="922" d="M457 0v410h-260v-410h-62v410h-94v49h94v101q0 77 41.5 114t97.5 37q71 0 109 -35l-14 -50q-30 30 -84 30q-38 0 -63 -24t-25 -72v-101h260v101q0 77 41 114t95 37q48 0 82 -17l-12 -52q-25 14 -59 14q-36 0 -60.5 -24t-24.5 -72v-101h147v-49h-147v-410h-62zM573 -193 l14 50q12 -11 38 -20t49 -9q37 0 63 24t26 72v535h62v-535q0 -77 -42.5 -114t-97.5 -37q-31 0 -63.5 10.5t-48.5 23.5zM794 602q-18 0 -30 11.5t-12 27.5q0 17 12 28.5t30 11.5q19 0 31 -11.5t12 -28.5t-12 -28t-31 -11z"/><glyph glyph-name="a.superior" horiz-adv-x="456" d="M88 482l-20 43q70 43 162 43q66 0 112 -24t46 -76v-187q0 -36 12 -61h-54q-7 10 -12 49q-66 -59 -153 -59q-65 0 -103.5 33.5t-38.5 84.5q0 49 43.5 80.5t120.5 31.5q90 0 131 -38v52q0 35 -30.5 52t-76.5 17q-79 0 -139 -41zM192 257q35 0 69 13t51.5 25.5t21.5 19.5v43 q-39 40 -123 40q-59 0 -88 -19t-29 -51q0 -30 26 -50.5t72 -20.5z"/><glyph glyph-name="b.superior" horiz-adv-x="475" d="M115 220h-50q7 34 7 84v396h53v-189q60 57 129 57q75 0 126.5 -49.5t51.5 -128.5q0 -80 -53 -130t-131 -50q-42 0 -76.5 19.5t-50.5 41.5q0 -27 -6 -51zM249 522q-65 0 -124 -54v-158q50 -54 119 -54q54 0 91.5 37.5t37.5 96.5t-36 95.5t-88 36.5z"/><glyph glyph-name="d.superior" horiz-adv-x="475" d="M410 220h-50q-4 15 -6 51q-16 -22 -51.5 -41.5t-78.5 -19.5q-77 0 -129 50t-52 130q0 78 53 128t128 50q69 0 126 -52v184h53v-396q0 -50 7 -84zM229 522q-54 0 -90.5 -36.5t-36.5 -95.5q0 -60 36.5 -97t90.5 -37q71 0 121 54v158q-57 54 -121 54z"/><glyph glyph-name="e.superior" horiz-adv-x="453" d="M364 308l36 -34q-68 -64 -171 -64q-83 0 -134.5 50.5t-51.5 123.5q0 77 53.5 130.5t132.5 53.5q77 0 131.5 -46.5t49.5 -137.5h-313q0 -53 37 -90t95 -37q82 0 135 51zM229 524q-48 0 -81.5 -27t-45.5 -71h248q-1 46 -37 72t-84 26z"/><glyph glyph-name="h.superior" horiz-adv-x="460" d="M125 220h-53v480h53v-189q59 57 128 57q63 0 102 -33.5t39 -85.5v-229h-54v229q0 31 -26 52t-66 21q-66 0 -123 -59v-243z"/><glyph glyph-name="i.superior" horiz-adv-x="198" d="M126 220h-54v338h54v-338zM62 673q0 13 10.5 22.5t25.5 9.5q16 0 26.5 -9t10.5 -23t-10.5 -23.5t-26.5 -9.5q-15 0 -25.5 9.5t-10.5 23.5z"/><glyph glyph-name="l.superior" horiz-adv-x="197" d="M125 220h-53v480h53v-480z"/><glyph glyph-name="m.superior" horiz-adv-x="681" d="M126 220h-54v255q0 48 -10 83h49q6 -18 10 -52q54 62 124 62q82 0 117 -68q51 68 127 68q54 0 90.5 -34t36.5 -85v-229h-55v229q0 31 -22.5 52t-57.5 21q-57 0 -110 -59v-243h-54v241q-6 26 -27 43.5t-54 17.5q-57 0 -110 -59v-243z"/><glyph glyph-name="o.superior" horiz-adv-x="466" d="M42 390q0 74 56.5 126t133.5 52q78 0 135 -52t57 -126q0 -75 -57 -127.5t-135 -52.5q-77 0 -133.5 53t-56.5 127zM98 390q0 -56 38 -94.5t96 -38.5q59 0 98 38.5t39 94.5q0 55 -39 93.5t-98 38.5q-58 0 -96 -38.5t-38 -93.5z"/><glyph glyph-name="r.superior" horiz-adv-x="306" d="M126 220h-53v255q0 41 -12 83h50q6 -18 10 -58q50 68 109 68q40 0 56 -18l-18 -48q-16 15 -49 15q-43 0 -93 -63v-234z"/><glyph glyph-name="s.superior" horiz-adv-x="420" d="M355 527l-22 -40q-62 39 -136 39q-34 0 -61.5 -14t-27.5 -38q0 -16 9 -26t27.5 -14.5t32 -6t37.5 -2.5q26 -1 42 -2.5t42.5 -8t42.5 -16.5t28 -29.5t12 -46.5q0 -55 -47 -84t-121 -29q-93 0 -173 53l22 40q79 -49 153 -49q48 0 80.5 17t32.5 47q0 54 -114 56 q-35 1 -58 4.5t-49 12.5t-39.5 28.5t-13.5 49.5q0 52 43 77t100 25q90 0 158 -43z"/><glyph glyph-name="t.superior" horiz-adv-x="321" d="M35 517v41h71v103h55v-103h112v-41h-112v-214q0 -24 14.5 -36.5t37.5 -12.5q41 0 63 13l7 -41q-27 -18 -80 -18q-38 0 -67.5 23t-29.5 72v214h-71z"/><glyph glyph-name="a.sc" horiz-adv-x="694" d="M45 0l270 545h64l270 -545h-73l-83 169h-296l-82 -169h-70zM343 466l-120 -244h244l-119 244h-5z"/><glyph glyph-name="b.sc" horiz-adv-x="754" d="M466 0h-338v545h322q106 0 156 -53q33 -35 33 -81q0 -41 -24.5 -73.5t-61.5 -42.5q50 -7 83 -46t33 -90q0 -63 -48 -109q-50 -50 -155 -50zM481 255h-287v-196h268q76 0 110 34q27 27 27 66q0 33 -26 61q-32 35 -92 35zM444 486h-250v-178h273q46 0 76 27q27 27 27 64 q0 32 -21 53q-33 34 -105 34z"/><glyph glyph-name="c.sc" horiz-adv-x="728" d="M625 137l45 -44q-120 -109 -275 -109q-138 0 -229 84t-91 204q0 119 91 203.5t226 84.5q75 0 144.5 -25.5t118.5 -68.5l-45 -45q-43 37 -101 58.5t-116 21.5q-107 0 -177.5 -67t-70.5 -162t71.5 -162t179.5 -67q130 0 229 94z"/><glyph glyph-name="d.sc" horiz-adv-x="760" d="M374 0h-246v545h246q82 0 135 -20.5t98 -62.5q75 -77 75 -190q0 -117 -78 -192q-44 -40 -96.5 -60t-133.5 -20zM194 59h178q64 0 103.5 15.5t75.5 46.5q62 60 62 151q0 89 -60 149q-35 33 -75.5 49t-105.5 16h-178v-427z"/><glyph glyph-name="e.sc" horiz-adv-x="670" d="M436 317v-59h-242v-199h418v-59h-484v545h465v-59h-399v-169h242z"/><glyph glyph-name="f.sc" horiz-adv-x="616" d="M194 0h-66v545h455v-59h-389v-175h241v-60h-241v-251z"/><glyph glyph-name="g.sc" horiz-adv-x="749" d="M649 469l-46 -42q-39 34 -95.5 54t-113.5 20q-106 0 -178 -67t-72 -162q0 -94 71.5 -161.5t184.5 -67.5q53 0 106.5 16t89.5 42v135h-192v60h253v-227q-117 -85 -261 -85q-135 0 -228 84.5t-93 203.5q0 120 93 204t226 84q140 0 255 -91z"/><glyph glyph-name="h.sc" horiz-adv-x="764" d="M194 0h-66v545h66v-220h376v220h66v-545h-66v266h-376v-266z"/><glyph glyph-name="i.sc" horiz-adv-x="322" d="M194 0h-66v545h66v-545z"/><glyph glyph-name="j.sc" horiz-adv-x="629" d="M446 545h67v-352q0 -98 -68.5 -153.5t-176.5 -55.5q-52 0 -92.5 13t-67 36t-41.5 43t-29 46l55 28q52 -107 174 -107q79 0 129 40t50 110v352z"/><glyph glyph-name="k.sc" horiz-adv-x="701" d="M539 545h82l-228 -208l275 -337h-85l-238 293l-151 -135v-158h-66v545h66v-312z"/><glyph glyph-name="l.sc" horiz-adv-x="603" d="M128 545h66v-486h371v-59h-437v545z"/><glyph glyph-name="m.sc" horiz-adv-x="846" d="M128 0v545h72l224 -349h2l223 349h69v-545h-66v430h-4l-218 -338h-16l-218 338h-4v-430h-64z"/><glyph glyph-name="n.sc" horiz-adv-x="770" d="M575 545h67v-545h-62l-385 439h-1v-439h-66v545h61l385 -440h1v440z"/><glyph glyph-name="o.sc" horiz-adv-x="782" d="M76 273q0 119 91.5 203t222.5 84q132 0 224.5 -84t92.5 -203q0 -120 -92.5 -204.5t-224.5 -84.5t-223 84.5t-91 204.5zM145 273q0 -95 71.5 -162.5t173.5 -67.5q103 0 175.5 67.5t72.5 162.5q0 94 -72.5 161t-175.5 67q-102 0 -173.5 -67t-71.5 -161z"/><glyph glyph-name="p.sc" horiz-adv-x="699" d="M194 0h-66v545h309q106 0 162 -55q44 -44 44 -105q0 -59 -45 -104q-56 -55 -162 -55h-242v-226zM437 486h-243v-202h241q74 0 113 36q28 28 28 65t-25 62q-38 39 -114 39z"/><glyph glyph-name="q.sc" horiz-adv-x="782" d="M76 273q0 119 91.5 203t222.5 84q132 0 224.5 -84t92.5 -203q0 -77 -40 -141.5t-108 -103.5l82 -110l-65 -20l-77 103q-58 -17 -109 -17q-132 0 -223 84.5t-91 204.5zM378 162l65 20l78 -105q53 31 85 83.5t32 112.5q0 94 -72.5 161t-175.5 67q-102 0 -173.5 -67 t-71.5 -161q0 -95 71.5 -162.5t173.5 -67.5q37 0 70 9z"/><glyph glyph-name="r.sc" horiz-adv-x="739" d="M194 0h-66v545h318q107 0 164 -57q43 -45 43 -103q0 -57 -38 -98t-101 -52l144 -235h-76l-137 226h-251v-226zM446 486h-252v-201h273q52 0 86 29t34 71q0 36 -27 63q-38 38 -114 38z"/><glyph glyph-name="s.sc" horiz-adv-x="694" d="M585 479l-41 -46q-32 27 -89.5 48t-130.5 21q-66 0 -113 -24t-47 -74q0 -25 13 -41t47.5 -24t53.5 -10.5t71 -5.5q8 -1 12 -1l47.5 -3t48.5 -6t51.5 -11t44.5 -18t39 -27.5t24 -39.5t10 -54q0 -89 -74 -134t-187 -45q-168 0 -300 113l41 47q116 -102 260 -102 q84 0 138.5 29t54.5 83q0 31 -16 51.5t-47.5 31t-60.5 14.5t-74 7q-37 2 -54.5 3.5t-51 6t-51 10t-41.5 16t-36 24t-21 34t-9 46.5q0 44 21 77t56 50.5t73.5 26t79.5 8.5q80 0 149 -25t109 -56z"/><glyph glyph-name="t.sc" horiz-adv-x="598" d="M41 486v59h516v-59h-224v-486h-67v486h-225z"/><glyph glyph-name="u.sc" horiz-adv-x="740" d="M558 545h66v-357q0 -95 -71 -149.5t-183 -54.5t-183 54.5t-71 149.5v357h66v-357q0 -67 53 -106t135 -39t135 39t53 106v357z"/><glyph glyph-name="v.sc" horiz-adv-x="694" d="M578 545h71l-270 -545h-64l-271 545h76l226 -467h6z"/><glyph glyph-name="w.sc" horiz-adv-x="928" d="M57 545h74l150 -456h5l153 456h53l154 -456h4l151 456h70l-187 -545h-70l-147 431h-5l-147 -431h-70z"/><glyph glyph-name="x.sc" horiz-adv-x="668" d="M523 545h80l-228 -260l245 -285h-84l-203 239l-208 -239h-81l249 282l-224 263h85l182 -216z"/><glyph glyph-name="y.sc" horiz-adv-x="621" d="M504 545h78l-238 -289v-256h-67v256l-238 289h84l190 -229z"/><glyph glyph-name="z.sc" horiz-adv-x="644" d="M570 59v-59h-509v42l409 444h-380v59h476v-43l-410 -443h414z"/><glyph glyph-name="ampersand.sc" horiz-adv-x="748" d="M524 514l-33 -51q-62 37 -130 37q-48 0 -82 -20t-34 -52q0 -9 3.5 -18.5t8 -18t13 -19t15 -17.5t17 -16.5l16 -14.5l15.5 -13.5t12 -9.5l174 -153q55 46 111 123l53 -28q-58 -78 -122 -133l126 -110h-87l-85 74q-120 -87 -235 -87q-79 0 -146 42.5t-67 126.5 q0 71 44.5 110t116.5 62q-49 51 -49 99q0 59 54.5 95.5t128.5 36.5q81 0 162 -45zM295 266l-24 21q-29 -10 -46 -17t-41.5 -22.5t-37 -38t-12.5 -52.5q0 -57 47.5 -84t104.5 -27q90 0 186 65z"/><glyph glyph-name="aacute.sc" horiz-adv-x="694" d="M45 0l270 545h64l270 -545h-73l-83 169h-296l-82 -169h-70zM343 466l-120 -244h244l-119 244h-5zM282 620l131 118l82 -4l-156 -118z"/><glyph glyph-name="agrave.sc" horiz-adv-x="694" d="M45 0l270 545h64l270 -545h-73l-83 169h-296l-82 -169h-70zM343 466l-120 -244h244l-119 244h-5zM354 616l-156 118l83 4l131 -118z"/><glyph glyph-name="acircumflex.sc" horiz-adv-x="694" d="M45 0l270 545h64l270 -545h-73l-83 169h-296l-82 -169h-70zM343 466l-120 -244h244l-119 244h-5zM203 620l110 119h68l109 -119l-49 -4l-94 85l-95 -85z"/><glyph glyph-name="adieresis.sc" horiz-adv-x="694" d="M45 0l270 545h64l270 -545h-73l-83 169h-296l-82 -169h-70zM343 466l-120 -244h244l-119 244h-5zM403 669q0 16 11.5 27t28.5 11t29 -11t12 -27t-12 -26.5t-29 -10.5t-28.5 10.5t-11.5 26.5zM210 669q0 16 11.5 27t28.5 11t29 -11t12 -27t-12 -26.5t-29 -10.5t-28.5 10.5 t-11.5 26.5z"/><glyph glyph-name="atilde.sc" horiz-adv-x="694" d="M45 0l270 545h64l270 -545h-73l-83 169h-296l-82 -169h-70zM343 466l-120 -244h244l-119 244h-5zM228 620l-41 23q44 72 93 72q26 0 68 -30q36 -28 58 -28q11 0 22.5 8t17.5 16l17 23l39 -22q-44 -72 -93 -72q-34 0 -71 27q-39 30 -55 30q-23 0 -55 -47z"/><glyph glyph-name="aring.sc" horiz-adv-x="694" d="M45 0l270 545h64l270 -545h-73l-83 169h-296l-82 -169h-70zM343 466l-120 -244h244l-119 244h-5zM271 668q0 -27 20.5 -44.5t52.5 -17.5q33 0 54 17.5t21 44.5q0 28 -21 46.5t-54 18.5q-32 0 -52.5 -18.5t-20.5 -46.5zM232 668q0 41 30 68t82 27t83.5 -27.5t31.5 -67.5 q0 -39 -31 -65.5t-84 -26.5q-52 0 -82 26t-30 66z"/><glyph glyph-name="abreve.sc" horiz-adv-x="694" d="M45 0l270 545h64l270 -545h-73l-83 169h-296l-82 -169h-70zM343 466l-120 -244h244l-119 244h-5zM214 735h47q0 -84 86 -84t86 84h46q0 -23 -6 -43.5t-19.5 -40.5t-41 -31.5t-65.5 -11.5q-39 0 -66.5 11.5t-41 31.5t-19.5 40.5t-6 43.5z"/><glyph glyph-name="amacron.sc" horiz-adv-x="694" d="M45 0l270 545h64l270 -545h-73l-83 169h-296l-82 -169h-70zM343 466l-120 -244h244l-119 244h-5zM222 698h250v-49h-250v49z"/><glyph glyph-name="aogonek.sc" horiz-adv-x="694" d="M45 0l270 545h64l270 -545h-10q-18 -7 -36.5 -17t-41.5 -25.5t-37.5 -36t-14.5 -41.5q0 -30 25 -47t68 -17q21 0 67 8l6 -40q-47 -10 -83 -10q-63 0 -100.5 26t-37.5 69q0 42 36 76.5t84 57.5l-81 166h-296l-82 -169h-70zM343 466l-120 -244h244l-119 244h-5z"/><glyph glyph-name="aringacute.sc" horiz-adv-x="694" d="M45 0l270 545h64l270 -545h-73l-83 169h-296l-82 -169h-70zM343 466l-120 -244h244l-119 244h-5zM271 668q0 -27 20.5 -44.5t52.5 -17.5q33 0 54 17.5t21 44.5q0 28 -21 46.5t-54 18.5q-32 0 -52.5 -18.5t-20.5 -46.5zM232 668q0 41 30 68t82 27t83.5 -27.5t31.5 -67.5 q0 -39 -31 -65.5t-84 -26.5q-52 0 -82 26t-30 66zM282 797l131 118l82 -4l-156 -118z"/><glyph glyph-name="ccedilla.sc" horiz-adv-x="728" d="M625 137l45 -44q-118 -106 -269 -109l-18 -51q28 8 48 8q38 0 66.5 -19t28.5 -57q0 -42 -43 -66.5t-112 -24.5q-51 0 -147 24l11 36q86 -21 134 -21q45 0 72.5 13.5t27.5 38.5q0 43 -59 43q-17 0 -55 -9l-20 22l24 65q-124 11 -204 93t-80 193q0 119 91 203.5t226 84.5 q75 0 144.5 -25.5t118.5 -68.5l-45 -45q-43 37 -101 58.5t-116 21.5q-107 0 -177.5 -67t-70.5 -162t71.5 -162t179.5 -67q130 0 229 94z"/><glyph glyph-name="cacute.sc" horiz-adv-x="728" d="M625 137l45 -44q-120 -109 -275 -109q-138 0 -229 84t-91 204q0 119 91 203.5t226 84.5q75 0 144.5 -25.5t118.5 -68.5l-45 -45q-43 37 -101 58.5t-116 21.5q-107 0 -177.5 -67t-70.5 -162t71.5 -162t179.5 -67q130 0 229 94zM328 620l131 118l82 -4l-156 -118z"/><glyph glyph-name="ccaron.sc" horiz-adv-x="728" d="M625 137l45 -44q-120 -109 -275 -109q-138 0 -229 84t-91 204q0 119 91 203.5t226 84.5q75 0 144.5 -25.5t118.5 -68.5l-45 -45q-43 37 -101 58.5t-116 21.5q-107 0 -177.5 -67t-70.5 -162t71.5 -162t179.5 -67q130 0 229 94zM249 736l49 4l95 -86l94 86l49 -4l-109 -119 h-68z"/><glyph glyph-name="ccircumflex.sc" horiz-adv-x="728" d="M625 137l45 -44q-120 -109 -275 -109q-138 0 -229 84t-91 204q0 119 91 203.5t226 84.5q75 0 144.5 -25.5t118.5 -68.5l-45 -45q-43 37 -101 58.5t-116 21.5q-107 0 -177.5 -67t-70.5 -162t71.5 -162t179.5 -67q130 0 229 94zM249 620l110 119h68l109 -119l-49 -4l-94 85 l-95 -85z"/><glyph glyph-name="cdotaccent.sc" horiz-adv-x="728" d="M625 137l45 -44q-120 -109 -275 -109q-138 0 -229 84t-91 204q0 119 91 203.5t226 84.5q75 0 144.5 -25.5t118.5 -68.5l-45 -45q-43 37 -101 58.5t-116 21.5q-107 0 -177.5 -67t-70.5 -162t71.5 -162t179.5 -67q130 0 229 94zM353 669q0 16 11.5 27t28.5 11t29 -11 t12 -27t-12 -26.5t-29 -10.5t-28.5 10.5t-11.5 26.5z"/><glyph glyph-name="dcaron.sc" horiz-adv-x="760" d="M374 0h-246v545h246q82 0 135 -20.5t98 -62.5q75 -77 75 -190q0 -117 -78 -192q-44 -40 -96.5 -60t-133.5 -20zM194 59h178q64 0 103.5 15.5t75.5 46.5q62 60 62 151q0 89 -60 149q-35 33 -75.5 49t-105.5 16h-178v-427zM221 736l49 4l95 -86l94 86l49 -4l-109 -119h-68z"/><glyph glyph-name="dcroat.sc" horiz-adv-x="786" d="M64 258v53h89v234h247q81 0 134.5 -21t97.5 -62q76 -76 76 -190q0 -117 -78 -192q-43 -40 -96 -60t-134 -20h-247v258h-89zM220 59h177q64 0 103.5 15.5t75.5 46.5q62 59 62 151q0 88 -59 149q-35 33 -76 49t-106 16h-177v-175h191v-53h-191v-199z"/><glyph glyph-name="eacute.sc" horiz-adv-x="670" d="M436 317v-59h-242v-199h418v-59h-484v545h465v-59h-399v-169h242zM294 620l131 118l82 -4l-156 -118z"/><glyph glyph-name="egrave.sc" horiz-adv-x="670" d="M436 317v-59h-242v-199h418v-59h-484v545h465v-59h-399v-169h242zM366 616l-156 118l83 4l131 -118z"/><glyph glyph-name="ecircumflex.sc" horiz-adv-x="670" d="M436 317v-59h-242v-199h418v-59h-484v545h465v-59h-399v-169h242zM215 620l110 119h68l109 -119l-49 -4l-94 85l-95 -85z"/><glyph glyph-name="edieresis.sc" horiz-adv-x="670" d="M436 317v-59h-242v-199h418v-59h-484v545h465v-59h-399v-169h242zM415 669q0 16 11.5 27t28.5 11t29 -11t12 -27t-12 -26.5t-29 -10.5t-28.5 10.5t-11.5 26.5zM222 669q0 16 11.5 27t28.5 11t29 -11t12 -27t-12 -26.5t-29 -10.5t-28.5 10.5t-11.5 26.5z"/><glyph glyph-name="ebreve.sc" horiz-adv-x="670" d="M436 317v-59h-242v-199h418v-59h-484v545h465v-59h-399v-169h242zM226 735h47q0 -84 86 -84t86 84h46q0 -23 -6 -43.5t-19.5 -40.5t-41 -31.5t-65.5 -11.5q-39 0 -66.5 11.5t-41 31.5t-19.5 40.5t-6 43.5z"/><glyph glyph-name="ecaron.sc" horiz-adv-x="670" d="M436 317v-59h-242v-199h418v-59h-484v545h465v-59h-399v-169h242zM215 736l49 4l95 -86l94 86l49 -4l-109 -119h-68z"/><glyph glyph-name="edotaccent.sc" horiz-adv-x="670" d="M436 317v-59h-242v-199h418v-59h-484v545h465v-59h-399v-169h242zM319 669q0 16 11.5 27t28.5 11t29 -11t12 -27t-12 -26.5t-29 -10.5t-28.5 10.5t-11.5 26.5z"/><glyph glyph-name="emacron.sc" horiz-adv-x="670" d="M436 317v-59h-242v-199h418v-59h-484v545h465v-59h-399v-169h242zM234 698h250v-49h-250v49z"/><glyph glyph-name="eogonek.sc" horiz-adv-x="670" d="M436 317v-59h-242v-199h418v-59h-71q-18 -7 -36.5 -17t-41.5 -25.5t-37.5 -36t-14.5 -41.5q0 -30 25 -47t68 -17q21 0 67 8l6 -40q-47 -10 -83 -10q-63 0 -100.5 26t-37.5 69q0 74 114 131h-342v545h465v-59h-399v-169h242z"/><glyph glyph-name="gbreve.sc" horiz-adv-x="749" d="M649 469l-46 -42q-39 34 -95.5 54t-113.5 20q-106 0 -178 -67t-72 -162q0 -94 71.5 -161.5t184.5 -67.5q53 0 106.5 16t89.5 42v135h-192v60h253v-227q-117 -85 -261 -85q-135 0 -228 84.5t-93 203.5q0 120 93 204t226 84q140 0 255 -91zM258 735h47q0 -84 86 -84t86 84 h46q0 -23 -6 -43.5t-19.5 -40.5t-41 -31.5t-65.5 -11.5q-39 0 -66.5 11.5t-41 31.5t-19.5 40.5t-6 43.5z"/><glyph glyph-name="gcircumflex.sc" horiz-adv-x="749" d="M649 469l-46 -42q-39 34 -95.5 54t-113.5 20q-106 0 -178 -67t-72 -162q0 -94 71.5 -161.5t184.5 -67.5q53 0 106.5 16t89.5 42v135h-192v60h253v-227q-117 -85 -261 -85q-135 0 -228 84.5t-93 203.5q0 120 93 204t226 84q140 0 255 -91zM247 620l110 119h68l109 -119 l-49 -4l-94 85l-95 -85z"/><glyph glyph-name="uni0123.sc" horiz-adv-x="749" d="M649 469l-46 -42q-39 34 -95.5 54t-113.5 20q-106 0 -178 -67t-72 -162q0 -94 71.5 -161.5t184.5 -67.5q53 0 106.5 16t89.5 42v135h-192v60h253v-227q-117 -85 -261 -85q-135 0 -228 84.5t-93 203.5q0 120 93 204t226 84q140 0 255 -91zM386 -58l49 15q53 -41 53 -93 q0 -46 -40 -73.5t-108 -27.5q-36 0 -75 9l6 39q33 -5 59 -5q47 0 73 16.5t26 46.5q0 40 -43 73z"/><glyph glyph-name="gdotaccent.sc" horiz-adv-x="749" d="M649 469l-46 -42q-39 34 -95.5 54t-113.5 20q-106 0 -178 -67t-72 -162q0 -94 71.5 -161.5t184.5 -67.5q53 0 106.5 16t89.5 42v135h-192v60h253v-227q-117 -85 -261 -85q-135 0 -228 84.5t-93 203.5q0 120 93 204t226 84q140 0 255 -91zM351 669q0 16 11.5 27t28.5 11 t29 -11t12 -27t-12 -26.5t-29 -10.5t-28.5 10.5t-11.5 26.5z"/><glyph glyph-name="hbar.sc" horiz-adv-x="773" d="M43 395v53h89v97h67v-97h375v97h67v-97h89v-53h-89v-395h-67v237h-375v-237h-67v395h-89zM199 296h375v99h-375v-99z"/><glyph glyph-name="hcircumflex.sc" horiz-adv-x="764" d="M194 0h-66v545h66v-220h376v220h66v-545h-66v266h-376v-266zM238 620l110 119h68l109 -119l-49 -4l-94 85l-95 -85z"/><glyph glyph-name="iacute.sc" horiz-adv-x="322" d="M194 0h-66v545h66v-545zM96 620l131 118l82 -4l-156 -118z"/><glyph glyph-name="igrave.sc" horiz-adv-x="322" d="M194 0h-66v545h66v-545zM95 738l131 -118l-58 -4l-156 118z"/><glyph glyph-name="icircumflex.sc" horiz-adv-x="322" d="M194 0h-66v545h66v-545zM17 620l111 119h67l110 -119l-50 -4l-94 85l-94 -85z"/><glyph glyph-name="idieresis.sc" horiz-adv-x="322" d="M194 0h-66v545h66v-545zM217 669q0 16 11.5 27t28.5 11q18 0 29.5 -11t11.5 -27t-11.5 -26.5t-29.5 -10.5q-17 0 -28.5 10.5t-11.5 26.5zM24 669q0 16 11.5 27t28.5 11q18 0 29.5 -11t11.5 -27t-11.5 -26.5t-29.5 -10.5q-17 0 -28.5 10.5t-11.5 26.5z"/><glyph glyph-name="ibreve.sc" horiz-adv-x="322" d="M194 0h-66v545h66v-545zM28 735h47q0 -84 86 -84q48 0 67.5 24.5t19.5 59.5h46q0 -23 -6 -43.5t-19.5 -40.5t-41 -31.5t-66.5 -11.5q-73 0 -103 38t-30 89z"/><glyph glyph-name="idotaccent.sc" horiz-adv-x="322" d="M194 0h-66v545h66v-545zM121 669q0 16 11.5 27t28.5 11q18 0 29.5 -11t11.5 -27t-11.5 -26.5t-29.5 -10.5q-17 0 -28.5 10.5t-11.5 26.5z"/><glyph glyph-name="imacron.sc" horiz-adv-x="322" d="M194 0h-66v545h66v-545zM36 698h250v-49h-250v49z"/><glyph glyph-name="iogonek.sc" horiz-adv-x="322" d="M194 0q-26 -11 -51 -24.5t-51.5 -40.5t-26.5 -55q0 -30 24.5 -47t67.5 -17q21 0 67 8l6 -40q-45 -10 -83 -10q-63 0 -100 25.5t-37 69.5q0 75 118 133v543h66v-545z"/><glyph glyph-name="itilde.sc" horiz-adv-x="322" d="M194 0h-66v545h66v-545zM42 620l-41 23q44 72 93 72q28 0 68 -30q38 -28 59 -28q24 0 57 47l38 -22q-44 -72 -93 -72q-35 0 -70 27q-41 30 -55 30q-4 0 -7.5 -1t-6 -2t-6 -3.5t-6 -4t-6 -5t-5 -5.5l-5 -6.5t-4.5 -6t-5 -7t-5 -6.5z"/><glyph glyph-name="ij.sc" horiz-adv-x="951" d="M194 0h-66v545h66v-545zM768 545h67v-352q0 -98 -68.5 -153.5t-176.5 -55.5q-52 0 -92.5 13t-67 36t-41.5 43t-29 46l55 28q52 -107 174 -107q79 0 129 40t50 110v352z"/><glyph glyph-name="jcircumflex.sc" horiz-adv-x="629" d="M446 545h67v-352q0 -98 -68.5 -153.5t-176.5 -55.5q-52 0 -92.5 13t-67 36t-41.5 43t-29 46l55 28q52 -107 174 -107q79 0 129 40t50 110v352zM335 620l110 119h68l110 -119l-50 -4l-94 85l-94 -85z"/><glyph glyph-name="uni0137.sc" horiz-adv-x="701" d="M539 545h82l-228 -208l275 -337h-85l-238 293l-151 -135v-158h-66v545h66v-312zM352 -58l49 15q53 -41 53 -93q0 -46 -40 -73.5t-108 -27.5q-36 0 -75 9l6 39q33 -5 59 -5q47 0 73 16.5t26 46.5q0 40 -43 73z"/><glyph glyph-name="lacute.sc" horiz-adv-x="603" d="M128 545h66v-486h371v-59h-437v545zM96 620l131 118l82 -4l-156 -118z"/><glyph glyph-name="lcaron.sc" horiz-adv-x="603" d="M128 545h66v-486h371v-59h-437v545zM342 355l-36 2q20 77 20 212h62q0 -126 -46 -214z"/><glyph glyph-name="ldot.sc" horiz-adv-x="612" d="M128 545h66v-486h371v-59h-437v545zM413 326q0 16 11.5 27t28.5 11t29 -11t12 -27t-12 -26.5t-29 -10.5t-28.5 10.5t-11.5 26.5z"/><glyph glyph-name="uni013C.sc" horiz-adv-x="603" d="M128 545h66v-486h371v-59h-437v545zM303 -58l49 15q53 -41 53 -93q0 -46 -40 -73.5t-108 -27.5q-36 0 -75 9l6 39q33 -5 59 -5q47 0 73 16.5t26 46.5q0 40 -43 73z"/><glyph glyph-name="lslash.sc" horiz-adv-x="618" d="M143 545h67v-226l179 98l2 -53l-181 -99v-206h371v-59h-438v228l-89 -48l-1 53l90 49v263z"/><glyph glyph-name="ntilde.sc" horiz-adv-x="770" d="M575 545h67v-545h-62l-385 439h-1v-439h-66v545h61l385 -440h1v440zM265 620l-41 23q44 72 93 72q26 0 68 -30q36 -28 58 -28q11 0 22.5 8t17.5 16l17 23l39 -22q-44 -72 -93 -72q-34 0 -71 27q-39 30 -55 30q-23 0 -55 -47z"/><glyph glyph-name="nacute.sc" horiz-adv-x="770" d="M575 545h67v-545h-62l-385 439h-1v-439h-66v545h61l385 -440h1v440zM319 620l131 118l82 -4l-156 -118z"/><glyph glyph-name="ncaron.sc" horiz-adv-x="770" d="M575 545h67v-545h-62l-385 439h-1v-439h-66v545h61l385 -440h1v440zM240 736l49 4l95 -86l94 86l49 -4l-109 -119h-68z"/></font>
</defs>
</svg>
