<svg height="20" viewBox="0 0 24 20" width="24" xmlns="http://www.w3.org/2000/svg"><g fill="none" fill-rule="evenodd" transform="translate(1 .2)"><g stroke="#3c3c3c" stroke-width="1.3"><path d="m21.4935157 7.88392161c.59565-1.84747062.2197853-3.95295007-1.1753736-5.49781774-1.3951588-1.54592944-3.4517971-2.13520887-5.3502324-1.73173827h-.0010618" stroke-linecap="round"/><path d="m18.7468365 6.99734806c.2909235-.90037648.1093618-1.92604121-.5712294-2.6788324-.6795294-.75279119-1.6807736-1.0384059-2.6055707-.84197942" stroke-linecap="round"/><path d="m15.9504127 9.65318875c-.2989856-.08949804-.5042382-.15048092-.347546-.54319942.3390761-.85319575.3740848-1.58894297.0064935-2.11407338-.689163-.98447835-2.5751153-.93168299-4.7369021-.02625652 0-.00141164-.6789993.29672691-.5053675-.24167292.3325826-1.06889448.2826106-1.96415713-.234897-2.48110002-1.17279124-1.17363823-4.29167061.04432552-6.96644775 2.71797336-2.00255376 2.00311841-3.16574585 4.12594395-3.16574585 5.96164175 0 3.5113156 4.50285209 5.6459989 8.90801863 5.6459989 5.77445817 0 9.61581537-3.355188 9.61581537-6.0189544 0-1.6092706-1.3554576-2.5226023-2.5734213-2.90035735m-7.65143412 6.17329595c-2.57432737.2537108-4.79651984-.9098024-4.9640062-2.5997605-.16707281-1.689958 1.78507375-3.26619072 4.35898757-3.52052186 2.57453415-.25495146 4.79693335.90897536 4.96400615 2.59851986.1666593 1.6905783-1.7844534 3.2670178-4.35898752 3.5217625"/></g><path d="m5.7436369 12.898757c-.05829361-.7064187.62283254-1.3652991 1.52090035-1.4716119.89828425-.1065722 1.67370463.3799604 1.73199824 1.0862062.05814931.7066779-.62261611 1.3656448-1.52090036 1.4721305-.8982121.1060535-1.67356033-.3803062-1.73199823-1.0867248z" fill="#3c3c3c"/></g></svg>