<svg height="19" viewBox="0 0 22 19" width="22" xmlns="http://www.w3.org/2000/svg"><g fill="none" fill-rule="evenodd" transform="translate(.4 .7)"><path d="m13.0744259 6.11244906c-2.9324412.53460303-4.96615641 2.7601082-4.84941467 5.31730814.1538026 3.4225712 4.16749467 5.7833485 8.02089847 4.7252607l.4549222-.1213743.95895.5151461c.5290439.2890747 1.0821773.5920473 1.0821773.5920473s-.0157508-.6031656-.0528117-1.0682795c-.0611504-.7717926-.1769657-1.0201004.1871574-1.3286321 4.031296-3.4234978.0389139-9.68956414-5.801879-8.63147634z" stroke="#ffffff" stroke-linejoin="round" stroke-width="1.2"/><g fill="#ffffff"><path d="m5.75407046 3.57989461c.62725521.42434694.66338955 1.3397504.06115044 1.73352213-.97748041.63929998-2.12080821-.48549738-1.46297779-1.44444736.28907477-.42990607.98396606-.5716639 1.40182735-.28907477"/><path d="m10.7938853 3.57989461c1.0330718.69489128.2584996 2.29870037-.89687298 1.85582299-.83664911-.31872347-.93486041-1.46853692-.15380261-1.87991256.30667869-.16677391.78661689-.1538026 1.05067559.02408957"/><path d="m12.9577768 8.872094c.257573.17233303.3937717.60223911.2825891.91632997-.2334834.66894873-1.2350534.71898083-1.5055978.07319522-.3076052-.74307042.5410887-1.43240258 1.2230087-.98952519"/><path d="m17.0637504 8.94584512c.40489.38728608.3372539 1.0451165-.1352721 1.29157128-.7254665.3678291-1.4879939-.36968217-1.1127526-1.07661824.2455282-.45492216.8792691-.56517824 1.2480247-.21495304"/></g><path d="m14.9610094 6.01924098c-.4104491-3.96829251-4.8985203-6.10855767-8.69077369-5.43219682-5.82133594 1.03955736-7.82632893 7.52520938-3.41145296 10.65036714.07412174.0528117.08801957.1315661-.07782782 1.3823704-.03520782.2649852-.15565565 1.0655-.15565565 1.0655l1.19243345-.6402265 1.19243345-.6383735.63281433.1528761c.66431607.1667739 1.97256473.3678291 2.86851123.2538669" stroke="#ffffff" stroke-linejoin="round" stroke-width="1.2"/></g></svg>